{

glyphs = (
{
glyphname = .notdef;
layers = (
{
layerId = "C85A2332-1B89-4390-846F-6AFC3F1E970B";
name = Bold;
paths = (
{
closed = 1;
nodes = (
"149.975 1445.76 LINE",
"149.975 -344 LINE",
"1197.8 -344 LINE",
"1197.8 1445.76 LINE"
);
},
{
closed = 1;
nodes = (
"1013.83 10.9982 LINE",
"335.944 10.9982 LINE",
"335.944 1260.79 LINE",
"1013.83 1260.79 LINE"
);
}
);
width = 1347;
}
);
},
{
glyphname = exclam;
layers = (
{
layerId = "C85A2332-1B89-4390-846F-6AFC3F1E970B";
name = Bold;
paths = (
{
closed = 1;
nodes = (
"449.925 311.948 LINE",
"181.97 311.948 LINE",
"157.974 0 LINE",
"473.921 0 LINE"
);
},
{
closed = 1;
nodes = (
"149.975 448.925 LINE",
"483.919 448.925 LINE",
"451.925 821.863 LINE",
"441.926 1467.76 LINE",
"169.972 1463.76 LINE",
"169.972 819.864 LINE",
"169.972 820.863 LINE"
);
}
);
width = 633;
}
);
unicode = 0021;
},
{
glyphname = quotedbl;
layers = (
{
layerId = "C85A2332-1B89-4390-846F-6AFC3F1E970B";
name = Bold;
paths = (
{
closed = 1;
nodes = (
"461.923 845.859 LINE",
"449.925 1467.76 LINE",
"209.965 1467.76 LINE",
"149.975 845.859 LINE"
);
},
{
closed = 1;
nodes = (
"880.853 845.859 LINE",
"822.863 1467.76 LINE",
"581.903 1467.76 LINE",
"570.905 845.859 LINE"
);
}
);
width = 1030;
}
);
unicode = 0022;
},
{
glyphname = numbersign;
layers = (
{
layerId = "C85A2332-1B89-4390-846F-6AFC3F1E970B";
name = Bold;
paths = (
{
closed = 1;
nodes = (
"773.871 840.86 LINE",
"968.839 840.86 LINE",
"910.848 603.899 LINE",
"715.881 603.899 LINE"
);
},
{
closed = 1;
nodes = (
"680.887 1385.77 OFFCURVE",
"664.889 1321.78 OFFCURVE",
"648.892 1254.79 CURVE SMOOTH",
"632.895 1186.8 OFFCURVE",
"616.897 1121.81 OFFCURVE",
"601.9 1058.82 CURVE",
"255.957 1058.82 LINE",
"255.957 840.86 LINE",
"545.909 840.86 LINE",
"486.919 603.899 LINE",
"149.975 603.899 LINE",
"149.975 385.936 LINE",
"433.928 385.936 LINE",
"336.944 0 LINE",
"563.906 0 LINE",
"659.89 385.936 LINE",
"855.858 385.936 LINE",
"759.874 0 LINE",
"986.836 0 LINE",
"1083.82 385.936 LINE",
"1424.76 385.936 LINE",
"1424.76 603.899 LINE",
"1137.81 603.899 LINE",
"1143.81 626.896 OFFCURVE",
"1149.81 648.892 OFFCURVE",
"1154.81 667.889 CURVE SMOOTH",
"1164.81 706.882 OFFCURVE",
"1173.8 743.876 OFFCURVE",
"1182.8 780.87 CURVE SMOOTH",
"1186.8 799.867 OFFCURVE",
"1191.8 819.864 OFFCURVE",
"1196.8 840.86 CURVE",
"1531.74 840.86 LINE",
"1531.74 1058.82 LINE",
"1250.79 1058.82 LINE",
"1346.78 1446.76 LINE",
"1121.81 1446.76 LINE",
"1022.83 1058.82 LINE",
"827.862 1058.82 LINE",
"924.846 1446.76 LINE",
"695.884 1446.76 LINE"
);
}
);
width = 1681;
}
);
unicode = 0023;
},
{
glyphname = dollar;
layers = (
{
layerId = "C85A2332-1B89-4390-846F-6AFC3F1E970B";
name = Bold;
paths = (
{
closed = 1;
nodes = (
"851.858 22.9962 OFFCURVE",
"928.845 56.9905 OFFCURVE",
"1003.83 116.981 CURVE SMOOTH",
"1084.82 183.969 OFFCURVE",
"1125.81 275.954 OFFCURVE",
"1127.81 392.935 CURVE",
"1118.81 609.898 OFFCURVE",
"984.836 707.882 OFFCURVE",
"721.88 758.874 CURVE",
"722.88 791.868 OFFCURVE",
"722.88 822.863 OFFCURVE",
"723.88 852.858 CURVE SMOOTH",
"724.879 882.853 OFFCURVE",
"724.879 912.848 OFFCURVE",
"725.879 941.843 CURVE SMOOTH",
"725.879 970.838 OFFCURVE",
"725.879 1000.83 OFFCURVE",
"726.879 1029.83 CURVE SMOOTH",
"727.879 1058.82 OFFCURVE",
"727.879 1089.82 OFFCURVE",
"728.879 1121.81 CURVE",
"823.863 1111.81 OFFCURVE",
"931.845 1074.82 OFFCURVE",
"1052.82 1009.83 CURVE",
"1057.82 1241.79 LINE",
"942.843 1281.79 OFFCURVE",
"841.86 1306.78 OFFCURVE",
"730.878 1314.78 CURVE",
"735.878 1532.74 LINE",
"566.906 1534.74 LINE",
"562.906 1312.78 LINE",
"309.948 1289.79 OFFCURVE",
"167.972 1160.81 OFFCURVE",
"163.973 944.843 CURVE",
"167.972 840.86 OFFCURVE",
"202.966 759.874 OFFCURVE",
"269.955 695.884 CURVE SMOOTH",
"330.945 639.893 OFFCURVE",
"417.93 599.9 OFFCURVE",
"542.91 572.905 CURVE",
"541.91 545.909 OFFCURVE",
"541.91 519.913 OFFCURVE",
"540.91 494.918 CURVE SMOOTH",
"539.91 469.922 OFFCURVE",
"539.91 445.926 OFFCURVE",
"539.91 421.93 CURVE",
"538.91 397.934 OFFCURVE",
"538.91 373.938 OFFCURVE",
"537.91 349.942 CURVE SMOOTH",
"536.911 324.946 OFFCURVE",
"536.911 299.95 OFFCURVE",
"535.911 273.954 CURVE",
"427.929 284.953 OFFCURVE",
"300.95 335.944 OFFCURVE",
"153.974 431.928 CURVE",
"149.975 115.981 LINE",
"285.952 54.9908 OFFCURVE",
"412.931 21.9963 OFFCURVE",
"527.912 10.9982 CURVE",
"505.916 -271 LINE",
"753.875 -275 LINE",
"739.877 11.998 LINE"
);
},
{
closed = 1;
nodes = (
"426.929 810.865 OFFCURVE",
"370.938 867.856 OFFCURVE",
"370.938 944.843 CURVE SMOOTH",
"370.938 1031.83 OFFCURVE",
"445.926 1093.82 OFFCURVE",
"544.909 1113.81 CURVE",
"537.91 782.87 LINE"
);
},
{
closed = 1;
nodes = (
"821.863 501.916 OFFCURVE",
"868.855 453.924 OFFCURVE",
"868.855 374.938 CURVE SMOOTH",
"868.855 337.944 OFFCURVE",
"856.857 312.948 OFFCURVE",
"831.862 301.95 CURVE SMOOTH",
"804.866 290.952 OFFCURVE",
"767.872 280.953 OFFCURVE",
"722.88 272.955 CURVE",
"714.881 529.912 LINE"
);
}
);
width = 1277;
}
);
unicode = 0024;
},
{
glyphname = percent;
layers = (
{
layerId = "C85A2332-1B89-4390-846F-6AFC3F1E970B";
name = Bold;
paths = (
{
closed = 1;
nodes = (
"1554.74 612.898 OFFCURVE",
"1605.73 535.911 OFFCURVE",
"1605.73 407.932 CURVE SMOOTH",
"1605.73 279.953 OFFCURVE",
"1554.74 202.966 OFFCURVE",
"1471.76 202.966 CURVE SMOOTH",
"1386.77 202.966 OFFCURVE",
"1335.78 279.953 OFFCURVE",
"1335.78 407.932 CURVE SMOOTH",
"1335.78 536.911 OFFCURVE",
"1386.77 612.898 OFFCURVE",
"1471.76 612.898 CURVE SMOOTH"
);
},
{
closed = 1;
nodes = (
"1252.79 805.866 OFFCURVE",
"1111.81 640.893 OFFCURVE",
"1111.81 388.935 CURVE SMOOTH",
"1111.81 135.977 OFFCURVE",
"1248.79 -27 OFFCURVE",
"1471.76 -27 CURVE SMOOTH",
"1580.74 -27 OFFCURVE",
"1667.72 10.9982 OFFCURVE",
"1732.71 87.9854 CURVE SMOOTH",
"1799.7 163.973 OFFCURVE",
"1829.7 263.956 OFFCURVE",
"1829.7 388.935 CURVE SMOOTH",
"1829.7 640.893 OFFCURVE",
"1690.72 805.866 OFFCURVE",
"1471.76 805.866 CURVE SMOOTH"
);
},
{
closed = 1;
nodes = (
"592.901 1299.78 OFFCURVE",
"644.893 1215.8 OFFCURVE",
"644.893 1082.82 CURVE SMOOTH",
"644.893 943.843 OFFCURVE",
"593.901 863.856 OFFCURVE",
"508.915 863.856 CURVE SMOOTH",
"423.929 863.856 OFFCURVE",
"372.938 943.843 OFFCURVE",
"372.938 1082.82 CURVE SMOOTH",
"372.938 1217.8 OFFCURVE",
"424.929 1299.78 OFFCURVE",
"508.915 1299.78 CURVE SMOOTH"
);
},
{
closed = 1;
nodes = (
"1575.74 1492.75 LINE",
"1338.78 1492.75 LINE",
"413.931 -27 LINE",
"650.892 -27 LINE"
);
},
{
closed = 1;
nodes = (
"399.933 1492.75 OFFCURVE",
"312.948 1454.76 OFFCURVE",
"245.959 1377.77 CURVE SMOOTH",
"181.97 1301.78 OFFCURVE",
"149.975 1201.8 OFFCURVE",
"149.975 1076.82 CURVE SMOOTH",
"149.975 823.863 OFFCURVE",
"285.952 659.89 OFFCURVE",
"508.915 659.89 CURVE SMOOTH",
"729.879 659.89 OFFCURVE",
"868.855 823.863 OFFCURVE",
"868.855 1076.82 CURVE SMOOTH",
"868.855 1327.78 OFFCURVE",
"725.879 1492.75 OFFCURVE",
"508.915 1492.75 CURVE SMOOTH"
);
}
);
width = 1979;
}
);
unicode = 0025;
},
{
glyphname = ampersand;
layers = (
{
layerId = "C85A2332-1B89-4390-846F-6AFC3F1E970B";
name = Bold;
paths = (
{
closed = 1;
nodes = (
"852.858 258.957 OFFCURVE",
"766.872 230.962 OFFCURVE",
"670.888 230.962 CURVE SMOOTH",
"491.918 230.962 OFFCURVE",
"357.94 352.941 OFFCURVE",
"357.94 512.915 CURVE SMOOTH",
"357.94 604.899 OFFCURVE",
"396.934 684.886 OFFCURVE",
"485.919 771.872 CURVE",
"928.845 314.948 LINE"
);
},
{
closed = 1;
nodes = (
"569.905 1011.83 OFFCURVE",
"533.911 1054.82 OFFCURVE",
"516.914 1082.82 CURVE",
"517.914 1081.82 LINE",
"502.916 1108.82 OFFCURVE",
"494.918 1134.81 OFFCURVE",
"494.918 1159.81 CURVE SMOOTH",
"494.918 1202.8 OFFCURVE",
"510.915 1238.79 OFFCURVE",
"542.91 1265.79 CURVE",
"542.91 1264.79 LINE",
"577.904 1293.78 OFFCURVE",
"622.896 1308.78 OFFCURVE",
"677.887 1308.78 CURVE SMOOTH",
"757.874 1308.78 OFFCURVE",
"861.857 1272.79 OFFCURVE",
"986.836 1204.8 CURVE",
"1086.82 1407.77 LINE",
"954.841 1464.76 OFFCURVE",
"833.861 1492.75 OFFCURVE",
"724.879 1492.75 CURVE SMOOTH",
"599.9 1492.75 OFFCURVE",
"498.917 1458.76 OFFCURVE",
"423.929 1391.77 CURVE",
"424.929 1391.77 LINE",
"347.942 1322.78 OFFCURVE",
"308.949 1231.79 OFFCURVE",
"308.949 1120.81 CURVE SMOOTH",
"308.949 1047.83 OFFCURVE",
"334.944 972.838 OFFCURVE",
"385.936 896.851 CURVE",
"228.962 771.872 OFFCURVE",
"149.975 628.895 OFFCURVE",
"149.975 467.922 CURVE SMOOTH",
"149.975 321.946 OFFCURVE",
"201.966 202.966 OFFCURVE",
"304.949 109.982 CURVE SMOOTH",
"407.932 18.9968 OFFCURVE",
"536.911 -27 OFFCURVE",
"697.884 -27 CURVE SMOOTH",
"858.857 -27 OFFCURVE",
"994.834 19.9967 OFFCURVE",
"1125.81 123.979 CURVE",
"1246.79 0 LINE",
"1587.74 0 LINE",
"1286.79 306.949 LINE",
"1337.78 381.936 OFFCURVE",
"1366.77 457.924 OFFCURVE",
"1381.77 534.911 CURVE SMOOTH",
"1388.77 574.904 OFFCURVE",
"1396.77 625.896 OFFCURVE",
"1402.77 677.887 CURVE SMOOTH",
"1408.77 728.879 OFFCURVE",
"1413.76 780.87 OFFCURVE",
"1417.76 821.863 CURVE",
"1167.81 821.863 LINE",
"1163.81 728.879 OFFCURVE",
"1155.81 654.891 OFFCURVE",
"1144.81 599.9 CURVE SMOOTH",
"1136.81 560.907 OFFCURVE",
"1121.81 522.913 OFFCURVE",
"1101.82 483.919 CURVE",
"623.896 954.841 LINE",
"624.896 954.841 LINE"
);
}
);
width = 1737;
}
);
unicode = 0026;
},
{
glyphname = parenleft;
layers = (
{
layerId = "C85A2332-1B89-4390-846F-6AFC3F1E970B";
name = Bold;
paths = (
{
closed = 1;
nodes = (
"294.951 1239.79 OFFCURVE",
"173.971 958.84 OFFCURVE",
"149.975 674.888 CURVE",
"149.975 387.935 OFFCURVE",
"204.966 86.9855 OFFCURVE",
"335.944 -238 CURVE",
"617.897 -256 LINE",
"446.926 107.982 OFFCURVE",
"426.929 376.937 OFFCURVE",
"414.931 655.891 CURVE",
"426.929 934.844 OFFCURVE",
"544.909 1214.8 OFFCURVE",
"756.874 1513.75 CURVE",
"521.913 1532.74 LINE"
);
}
);
width = 906;
}
);
unicode = 0028;
},
{
glyphname = parenright;
layers = (
{
layerId = "C85A2332-1B89-4390-846F-6AFC3F1E970B";
name = Bold;
paths = (
{
closed = 1;
nodes = (
"393.934 1376.77 OFFCURVE",
"445.926 1215.8 OFFCURVE",
"468.922 1072.82 CURVE SMOOTH",
"490.918 931.845 OFFCURVE",
"501.916 791.868 OFFCURVE",
"501.916 653.891 CURVE",
"473.921 376.937 OFFCURVE",
"361.94 89.985 OFFCURVE",
"149.975 -211 CURVE",
"454.924 -229 LINE",
"539.91 -72 OFFCURVE",
"608.899 69.9883 OFFCURVE",
"667.889 204.966 CURVE SMOOTH",
"727.879 346.942 OFFCURVE",
"757.874 489.918 OFFCURVE",
"757.874 634.894 CURVE",
"756.874 775.871 OFFCURVE",
"741.877 916.847 OFFCURVE",
"713.881 1064.82 CURVE",
"713.881 1063.82 LINE",
"685.886 1211.8 OFFCURVE",
"626.896 1368.77 OFFCURVE",
"538.91 1540.74 CURVE",
"306.949 1560.74 LINE"
);
}
);
width = 907;
}
);
unicode = 0029;
},
{
glyphname = asterisk;
layers = (
{
layerId = "C85A2332-1B89-4390-846F-6AFC3F1E970B";
name = Bold;
paths = (
{
closed = 1;
nodes = (
"956.841 1317.78 OFFCURVE",
"909.849 1289.79 OFFCURVE",
"859.857 1258.79 CURVE SMOOTH",
"809.865 1227.8 OFFCURVE",
"760.873 1197.8 OFFCURVE",
"712.881 1168.81 CURVE",
"712.881 1492.75 LINE",
"531.911 1492.75 LINE",
"531.911 1168.81 LINE",
"240.96 1344.78 LINE",
"149.975 1186.8 LINE",
"197.967 1161.81 OFFCURVE",
"247.959 1133.81 OFFCURVE",
"300.95 1104.82 CURVE SMOOTH",
"353.941 1075.82 OFFCURVE",
"405.932 1046.83 OFFCURVE",
"457.924 1018.83 CURVE",
"149.975 851.858 LINE",
"242.96 694.884 LINE",
"288.952 722.88 OFFCURVE",
"335.944 751.875 OFFCURVE",
"384.936 781.87 CURVE SMOOTH",
"433.928 810.865 OFFCURVE",
"482.92 840.86 OFFCURVE",
"531.911 870.855 CURVE",
"531.911 546.909 LINE",
"712.881 546.909 LINE",
"712.881 870.855 LINE",
"1000.83 694.884 LINE",
"1093.82 851.858 LINE",
"998.834 902.85 OFFCURVE",
"888.852 962.84 OFFCURVE",
"785.869 1018.83 CURVE",
"1093.82 1186.8 LINE",
"1001.83 1344.78 LINE"
);
}
);
width = 1243;
}
);
unicode = 002A;
},
{
glyphname = plus;
layers = (
{
layerId = "C85A2332-1B89-4390-846F-6AFC3F1E970B";
name = Bold;
paths = (
{
closed = 1;
nodes = (
"149.975 752.875 LINE",
"149.975 519.913 LINE",
"669.888 519.913 LINE",
"669.888 0 LINE",
"900.85 0 LINE",
"900.85 519.913 LINE",
"1420.76 519.913 LINE",
"1420.76 752.875 LINE",
"900.85 752.875 LINE",
"900.85 1272.79 LINE",
"669.888 1272.79 LINE",
"669.888 752.875 LINE"
);
}
);
width = 1570;
}
);
unicode = 002B;
},
{
glyphname = comma;
layers = (
{
layerId = "C85A2332-1B89-4390-846F-6AFC3F1E970B";
name = Bold;
paths = (
{
closed = 1;
nodes = (
"340.943 -269 LINE",
"567.905 54.9908 LINE",
"567.905 301.95 LINE",
"258.957 301.95 LINE",
"258.957 73.9877 LINE",
"149.975 -269 LINE"
);
}
);
width = 717;
}
);
unicode = 002C;
},
{
glyphname = hyphen;
layers = (
{
layerId = "C85A2332-1B89-4390-846F-6AFC3F1E970B";
name = Bold;
paths = (
{
closed = 1;
nodes = (
"737.877 684.886 LINE",
"158.974 673.888 LINE",
"149.975 445.926 LINE",
"728.879 455.924 LINE"
);
}
);
width = 887;
}
);
unicode = 002D;
},
{
glyphname = period;
layers = (
{
layerId = "C85A2332-1B89-4390-846F-6AFC3F1E970B";
name = Bold;
paths = (
{
closed = 1;
nodes = (
"452.925 375.937 LINE",
"99.9834 375.937 LINE",
"99.9834 0 LINE",
"452.925 0 LINE"
);
}
);
width = 602;
}
);
unicode = 002E;
},
{
glyphname = slash;
layers = (
{
layerId = "C85A2332-1B89-4390-846F-6AFC3F1E970B";
name = Bold;
paths = (
{
closed = 1;
nodes = (
"931.845 1444.76 LINE",
"715.881 1450.76 LINE",
"149.975 -176 LINE",
"443.926 -186 LINE"
);
}
);
width = 1081;
}
);
unicode = 002F;
},
{
glyphname = zero;
layers = (
{
layerId = "C85A2332-1B89-4390-846F-6AFC3F1E970B";
name = Bold;
paths = (
{
closed = 1;
nodes = (
"848.859 1343.78 OFFCURVE",
"933.845 1185.8 OFFCURVE",
"933.845 870.855 CURVE",
"920.847 719.88 OFFCURVE",
"893.851 600.9 OFFCURVE",
"848.859 518.914 CURVE SMOOTH",
"803.866 436.927 OFFCURVE",
"741.877 392.935 OFFCURVE",
"658.89 392.935 CURVE SMOOTH",
"575.904 392.935 OFFCURVE",
"516.914 427.929 OFFCURVE",
"481.92 496.917 CURVE",
"482.92 495.917 LINE",
"443.926 574.904 OFFCURVE",
"422.93 696.884 OFFCURVE",
"422.93 867.856 CURVE SMOOTH",
"422.93 1184.8 OFFCURVE",
"507.915 1343.78 OFFCURVE",
"677.887 1343.78 CURVE SMOOTH"
);
},
{
closed = 1;
nodes = (
"509.915 1492.75 OFFCURVE",
"380.937 1425.76 OFFCURVE",
"292.951 1297.78 CURVE SMOOTH",
"203.966 1169.81 OFFCURVE",
"156.974 979.837 OFFCURVE",
"149.975 732.878 CURVE SMOOTH",
"149.975 237.96 OFFCURVE",
"321.946 -27 OFFCURVE",
"658.89 -27 CURVE SMOOTH",
"995.834 -27 OFFCURVE",
"1173.8 238.96 OFFCURVE",
"1186.8 731.878 CURVE SMOOTH",
"1186.8 1226.8 OFFCURVE",
"1014.83 1492.75 OFFCURVE",
"677.887 1492.75 CURVE SMOOTH"
);
}
);
width = 1336;
}
);
unicode = 0030;
},
{
glyphname = one;
layers = (
{
layerId = "C85A2332-1B89-4390-846F-6AFC3F1E970B";
name = Bold;
paths = (
{
closed = 1;
nodes = (
"1053.82 335.944 LINE",
"745.876 335.944 LINE",
"745.876 1467.76 LINE",
"517.914 1467.76 LINE",
"149.975 1393.77 LINE",
"149.975 1145.81 LINE",
"484.919 1212.8 LINE",
"484.919 335.944 LINE",
"176.971 335.944 LINE",
"176.971 0 LINE",
"1053.82 0 LINE"
);
}
);
width = 1203;
}
);
unicode = 0031;
},
{
glyphname = two;
layers = (
{
layerId = "C85A2332-1B89-4390-846F-6AFC3F1E970B";
name = Bold;
paths = (
{
closed = 1;
nodes = (
"686.886 404.933 OFFCURVE",
"730.878 466.922 OFFCURVE",
"793.868 530.912 CURVE SMOOTH",
"835.861 574.904 OFFCURVE",
"868.855 609.898 OFFCURVE",
"893.851 636.894 CURVE SMOOTH",
"918.847 662.89 OFFCURVE",
"934.844 680.887 OFFCURVE",
"942.843 689.885 CURVE",
"1002.83 762.873 OFFCURVE",
"1043.83 825.863 OFFCURVE",
"1065.82 880.853 CURVE SMOOTH",
"1089.82 936.844 OFFCURVE",
"1101.82 995.834 OFFCURVE",
"1101.82 1057.82 CURVE SMOOTH",
"1101.82 1189.8 OFFCURVE",
"1054.82 1295.78 OFFCURVE",
"959.84 1376.77 CURVE SMOOTH",
"866.856 1453.76 OFFCURVE",
"742.876 1492.75 OFFCURVE",
"589.902 1492.75 CURVE SMOOTH",
"476.921 1492.75 OFFCURVE",
"332.945 1457.76 OFFCURVE",
"158.974 1388.77 CURVE",
"158.974 1109.82 LINE",
"339.943 1210.8 OFFCURVE",
"480.92 1259.79 OFFCURVE",
"593.901 1259.79 CURVE SMOOTH",
"740.877 1259.79 OFFCURVE",
"837.861 1170.81 OFFCURVE",
"837.861 1045.83 CURVE SMOOTH",
"837.861 1006.83 OFFCURVE",
"825.863 966.839 OFFCURVE",
"804.866 923.846 CURVE SMOOTH",
"781.87 878.854 OFFCURVE",
"741.877 824.863 OFFCURVE",
"684.886 759.874 CURVE SMOOTH",
"655.891 724.879 OFFCURVE",
"585.902 666.889 OFFCURVE",
"475.921 584.903 CURVE SMOOTH",
"364.939 500.917 OFFCURVE",
"248.959 406.932 OFFCURVE",
"149.975 325.946 CURVE",
"149.975 0 LINE",
"1108.82 0 LINE",
"1108.82 344.943 LINE",
"661.89 344.943 LINE"
);
}
);
width = 1258;
}
);
unicode = 0032;
},
{
glyphname = three;
layers = (
{
layerId = "C85A2332-1B89-4390-846F-6AFC3F1E970B";
name = Bold;
paths = (
{
closed = 1;
nodes = (
"1108.82 1217.8 OFFCURVE",
"1062.82 1315.78 OFFCURVE",
"969.839 1387.77 CURVE",
"969.839 1386.77 LINE",
"880.853 1458.76 OFFCURVE",
"758.874 1492.75 OFFCURVE",
"606.899 1492.75 CURVE SMOOTH",
"489.918 1492.75 OFFCURVE",
"354.941 1471.76 OFFCURVE",
"191.968 1424.76 CURVE",
"191.968 1194.8 LINE",
"363.939 1253.79 OFFCURVE",
"489.918 1278.79 OFFCURVE",
"589.902 1278.79 CURVE SMOOTH",
"756.874 1278.79 OFFCURVE",
"846.859 1212.8 OFFCURVE",
"846.859 1093.82 CURVE SMOOTH",
"846.859 977.837 OFFCURVE",
"758.874 915.848 OFFCURVE",
"597.901 915.848 CURVE SMOOTH",
"390.935 915.848 LINE",
"390.935 685.886 LINE",
"589.902 685.886 LINE SMOOTH",
"776.871 685.886 OFFCURVE",
"879.854 591.901 OFFCURVE",
"879.854 488.919 CURVE SMOOTH",
"879.854 467.922 OFFCURVE",
"852.858 433.928 OFFCURVE",
"798.867 387.935 CURVE SMOOTH",
"743.876 340.943 OFFCURVE",
"662.89 317.947 OFFCURVE",
"553.908 317.947 CURVE SMOOTH",
"424.929 317.947 OFFCURVE",
"285.952 358.94 OFFCURVE",
"149.975 438.927 CURVE",
"149.975 51.9913 LINE",
"302.95 -1 OFFCURVE",
"438.927 -27 OFFCURVE",
"558.907 -27 CURVE SMOOTH",
"745.876 -27 OFFCURVE",
"890.852 13.9977 OFFCURVE",
"990.835 94.9842 CURVE SMOOTH",
"1089.82 175.971 OFFCURVE",
"1141.81 297.95 OFFCURVE",
"1141.81 460.923 CURVE SMOOTH",
"1141.81 559.907 OFFCURVE",
"1112.81 642.893 OFFCURVE",
"1056.82 710.882 CURVE",
"1023.83 747.876 OFFCURVE",
"984.836 776.871 OFFCURVE",
"938.844 795.868 CURVE",
"1049.83 859.857 OFFCURVE",
"1108.82 961.84 OFFCURVE",
"1108.82 1094.82 CURVE SMOOTH"
);
}
);
width = 1291;
}
);
unicode = 0033;
},
{
glyphname = four;
layers = (
{
layerId = "C85A2332-1B89-4390-846F-6AFC3F1E970B";
name = Bold;
paths = (
{
closed = 1;
nodes = (
"777.871 1201.8 LINE",
"769.872 624.896 LINE",
"409.932 624.896 LINE"
);
},
{
closed = 1;
nodes = (
"759.874 393.934 LINE",
"739.877 0 LINE",
"1071.82 0 LINE",
"1070.82 29.995 OFFCURVE",
"1068.82 61.9897 OFFCURVE",
"1067.82 94.9842 CURVE SMOOTH",
"1065.82 127.979 OFFCURVE",
"1063.82 160.973 OFFCURVE",
"1062.82 194.968 CURVE SMOOTH",
"1060.82 228.962 OFFCURVE",
"1058.82 262.956 OFFCURVE",
"1056.82 296.951 CURVE SMOOTH",
"1054.82 329.945 OFFCURVE",
"1052.82 362.94 OFFCURVE",
"1051.82 393.934 CURVE",
"1239.79 393.934 LINE",
"1239.79 624.896 LINE",
"1050.83 624.896 LINE",
"1041.83 1467.76 LINE",
"747.876 1467.76 LINE",
"149.975 557.907 LINE",
"149.975 393.934 LINE"
);
}
);
width = 1389;
}
);
unicode = 0034;
},
{
glyphname = five;
layers = (
{
layerId = "C85A2332-1B89-4390-846F-6AFC3F1E970B";
name = Bold;
paths = (
{
closed = 1;
nodes = (
"344.943 735.878 OFFCURVE",
"453.924 762.873 OFFCURVE",
"550.908 762.873 CURVE SMOOTH",
"742.876 762.873 OFFCURVE",
"853.858 680.887 OFFCURVE",
"853.858 511.915 CURVE SMOOTH",
"853.858 474.921 OFFCURVE",
"827.862 432.928 OFFCURVE",
"774.871 383.936 CURVE SMOOTH",
"723.88 333.944 OFFCURVE",
"649.892 308.949 OFFCURVE",
"550.908 308.949 CURVE SMOOTH",
"422.93 308.949 OFFCURVE",
"294.951 345.942 OFFCURVE",
"149.975 424.929 CURVE",
"149.975 42.9928 LINE",
"300.95 -4 OFFCURVE",
"434.928 -27 OFFCURVE",
"553.908 -27 CURVE SMOOTH",
"912.848 -27 OFFCURVE",
"1125.81 160.973 OFFCURVE",
"1125.81 483.919 CURVE SMOOTH",
"1125.81 796.867 OFFCURVE",
"910.848 995.834 OFFCURVE",
"582.903 995.834 CURVE SMOOTH",
"535.911 995.834 OFFCURVE",
"494.918 989.835 OFFCURVE",
"437.927 977.837 CURVE",
"437.927 1252.79 LINE",
"1023.83 1252.79 LINE",
"1023.83 1467.76 LINE",
"208.965 1467.76 LINE",
"208.965 672.888 LINE"
);
}
);
width = 1275;
}
);
unicode = 0035;
},
{
glyphname = six;
layers = (
{
layerId = "C85A2332-1B89-4390-846F-6AFC3F1E970B";
name = Bold;
paths = (
{
closed = 1;
nodes = (
"831.862 771.872 OFFCURVE",
"921.847 667.889 OFFCURVE",
"921.847 483.919 CURVE SMOOTH",
"921.847 383.936 OFFCURVE",
"838.86 317.947 OFFCURVE",
"683.886 317.947 CURVE SMOOTH",
"528.912 317.947 OFFCURVE",
"445.926 383.936 OFFCURVE",
"445.926 483.919 CURVE SMOOTH",
"445.926 667.889 OFFCURVE",
"535.911 771.872 OFFCURVE",
"683.886 771.872 CURVE SMOOTH"
);
},
{
closed = 1;
nodes = (
"968.839 1470.76 OFFCURVE",
"863.856 1492.75 OFFCURVE",
"764.873 1492.75 CURVE SMOOTH",
"388.935 1492.75 OFFCURVE",
"149.975 1189.8 OFFCURVE",
"149.975 732.878 CURVE SMOOTH",
"149.975 245.959 OFFCURVE",
"332.945 -27 OFFCURVE",
"683.886 -27 CURVE SMOOTH",
"986.836 -27 OFFCURVE",
"1186.8 175.971 OFFCURVE",
"1186.8 483.919 CURVE SMOOTH",
"1186.8 640.893 OFFCURVE",
"1141.81 763.873 OFFCURVE",
"1053.82 856.857 CURVE SMOOTH",
"964.839 949.842 OFFCURVE",
"845.859 995.834 OFFCURVE",
"695.884 995.834 CURVE SMOOTH",
"588.902 995.834 OFFCURVE",
"498.917 963.84 OFFCURVE",
"422.93 900.85 CURVE",
"461.923 1136.81 OFFCURVE",
"576.904 1259.79 OFFCURVE",
"771.872 1259.79 CURVE SMOOTH",
"862.856 1259.79 OFFCURVE",
"971.838 1228.8 OFFCURVE",
"1095.82 1168.81 CURVE",
"1095.82 1425.76 LINE"
);
}
);
width = 1336;
}
);
unicode = 0036;
},
{
glyphname = seven;
layers = (
{
layerId = "C85A2332-1B89-4390-846F-6AFC3F1E970B";
name = Bold;
paths = (
{
closed = 1;
nodes = (
"333.944 0 LINE",
"754.874 0 LINE",
"1110.82 1344.78 LINE",
"1110.82 1467.76 LINE",
"149.975 1467.76 LINE",
"149.975 1252.79 LINE",
"847.859 1252.79 LINE"
);
}
);
width = 1260;
}
);
unicode = 0037;
},
{
glyphname = eight;
layers = (
{
layerId = "C85A2332-1B89-4390-846F-6AFC3F1E970B";
name = Bold;
paths = (
{
closed = 1;
nodes = (
"846.859 679.887 OFFCURVE",
"935.844 595.901 OFFCURVE",
"935.844 447.925 CURVE SMOOTH",
"935.844 412.931 OFFCURVE",
"913.848 376.937 OFFCURVE",
"870.855 338.944 CURVE",
"871.855 338.944 LINE",
"826.862 299.95 OFFCURVE",
"764.873 280.953 OFFCURVE",
"683.886 280.953 CURVE SMOOTH",
"522.913 280.953 OFFCURVE",
"432.928 375.937 OFFCURVE",
"432.928 447.925 CURVE SMOOTH",
"432.928 594.901 OFFCURVE",
"520.913 679.887 OFFCURVE",
"683.886 679.887 CURVE SMOOTH"
);
},
{
closed = 1;
nodes = (
"181.97 610.898 OFFCURVE",
"149.975 526.912 OFFCURVE",
"149.975 428.929 CURVE SMOOTH",
"149.975 281.953 OFFCURVE",
"198.967 168.972 OFFCURVE",
"296.951 89.985 CURVE SMOOTH",
"391.935 11.998 OFFCURVE",
"520.913 -27 OFFCURVE",
"683.886 -27 CURVE SMOOTH",
"1007.83 -27 OFFCURVE",
"1217.8 133.978 OFFCURVE",
"1217.8 428.929 CURVE SMOOTH",
"1217.8 624.896 OFFCURVE",
"1089.82 732.878 OFFCURVE",
"982.836 780.87 CURVE",
"1094.82 844.859 OFFCURVE",
"1147.81 953.841 OFFCURVE",
"1147.81 1094.82 CURVE SMOOTH",
"1147.81 1203.8 OFFCURVE",
"1107.82 1294.78 OFFCURVE",
"1026.83 1367.77 CURVE SMOOTH",
"945.843 1438.76 OFFCURVE",
"830.862 1474.75 OFFCURVE",
"683.886 1474.75 CURVE SMOOTH",
"390.935 1474.75 OFFCURVE",
"219.963 1315.78 OFFCURVE",
"219.963 1094.82 CURVE SMOOTH",
"219.963 953.841 OFFCURVE",
"272.955 844.859 OFFCURVE",
"385.936 780.87 CURVE",
"330.945 756.874 OFFCURVE",
"285.952 722.88 OFFCURVE",
"245.959 679.887 CURVE SMOOTH"
);
},
{
closed = 1;
nodes = (
"463.923 1181.8 OFFCURVE",
"481.92 1221.8 OFFCURVE",
"518.914 1254.79 CURVE",
"517.914 1254.79 LINE",
"557.907 1289.79 OFFCURVE",
"612.898 1306.78 OFFCURVE",
"683.886 1306.78 CURVE SMOOTH",
"719.88 1306.78 OFFCURVE",
"751.875 1302.78 OFFCURVE",
"778.87 1293.78 CURVE SMOOTH",
"833.861 1276.79 OFFCURVE",
"904.849 1232.79 OFFCURVE",
"904.849 1132.81 CURVE SMOOTH",
"904.849 1011.83 OFFCURVE",
"822.863 940.843 OFFCURVE",
"683.886 940.843 CURVE SMOOTH",
"542.91 940.843 OFFCURVE",
"463.923 1011.83 OFFCURVE",
"463.923 1132.81 CURVE SMOOTH"
);
}
);
width = 1367;
}
);
unicode = 0038;
},
{
glyphname = nine;
layers = (
{
layerId = "C85A2332-1B89-4390-846F-6AFC3F1E970B";
name = Bold;
paths = (
{
closed = 1;
nodes = (
"365.939 -5 OFFCURVE",
"471.921 -27 OFFCURVE",
"570.905 -27 CURVE SMOOTH",
"946.842 -27 OFFCURVE",
"1185.8 276.954 OFFCURVE",
"1185.8 732.878 CURVE SMOOTH",
"1185.8 979.837 OFFCURVE",
"1138.81 1169.81 OFFCURVE",
"1048.83 1297.78 CURVE SMOOTH",
"958.84 1425.76 OFFCURVE",
"824.863 1492.75 OFFCURVE",
"651.891 1492.75 CURVE SMOOTH",
"499.917 1492.75 OFFCURVE",
"377.937 1445.76 OFFCURVE",
"286.952 1351.78 CURVE SMOOTH",
"195.967 1259.79 OFFCURVE",
"149.975 1136.81 OFFCURVE",
"149.975 981.837 CURVE SMOOTH",
"149.975 824.863 OFFCURVE",
"193.968 699.883 OFFCURVE",
"280.953 608.899 CURVE SMOOTH",
"369.938 517.914 OFFCURVE",
"489.918 471.921 OFFCURVE",
"639.893 471.921 CURVE SMOOTH",
"743.876 471.921 OFFCURVE",
"835.861 503.916 OFFCURVE",
"911.848 566.906 CURVE",
"895.851 471.921 OFFCURVE",
"866.856 409.932 OFFCURVE",
"825.863 380.937 CURVE SMOOTH",
"765.872 339.943 OFFCURVE",
"679.887 317.947 OFFCURVE",
"562.906 317.947 CURVE SMOOTH",
"473.921 317.947 OFFCURVE",
"362.94 348.942 OFFCURVE",
"238.96 408.932 CURVE",
"238.96 39.9933 LINE"
);
},
{
closed = 1;
nodes = (
"536.911 826.862 OFFCURVE",
"458.924 837.861 OFFCURVE",
"402.933 859.857 CURVE SMOOTH",
"358.94 875.854 OFFCURVE",
"336.944 926.846 OFFCURVE",
"336.944 1011.83 CURVE SMOOTH",
"336.944 1190.8 OFFCURVE",
"450.925 1298.78 OFFCURVE",
"635.894 1298.78 CURVE SMOOTH",
"819.864 1298.78 OFFCURVE",
"933.845 1188.8 OFFCURVE",
"933.845 1011.83 CURVE SMOOTH",
"933.845 926.846 OFFCURVE",
"911.848 875.854 OFFCURVE",
"866.856 859.857 CURVE SMOOTH",
"810.865 837.861 OFFCURVE",
"733.878 826.862 OFFCURVE",
"635.894 826.862 CURVE SMOOTH"
);
}
);
width = 1335;
}
);
unicode = 0039;
},
{
glyphname = colon;
layers = (
{
layerId = "C85A2332-1B89-4390-846F-6AFC3F1E970B";
name = Bold;
paths = (
{
closed = 1;
nodes = (
"467.922 359.94 LINE",
"149.975 359.94 LINE",
"149.975 0 LINE",
"467.922 0 LINE"
);
},
{
closed = 1;
nodes = (
"467.922 1101.82 LINE",
"149.975 1101.82 LINE",
"149.975 761.873 LINE",
"467.922 761.873 LINE"
);
}
);
width = 617;
}
);
unicode = 003A;
},
{
glyphname = semicolon;
layers = (
{
layerId = "C85A2332-1B89-4390-846F-6AFC3F1E970B";
name = Bold;
paths = (
{
closed = 1;
nodes = (
"541.91 1097.82 LINE",
"240.96 1097.82 LINE",
"240.96 748.875 LINE",
"541.91 748.875 LINE"
);
},
{
closed = 1;
nodes = (
"354.941 -306 LINE",
"537.91 52.9912 LINE",
"537.91 277.954 LINE",
"244.959 277.954 LINE",
"244.959 66.9889 LINE",
"149.975 -306 LINE"
);
}
);
width = 691;
}
);
unicode = 003B;
},
{
glyphname = less;
layers = (
{
layerId = "C85A2332-1B89-4390-846F-6AFC3F1E970B";
name = Bold;
paths = (
{
closed = 1;
nodes = (
"149.975 566.906 LINE",
"1375.77 -3 LINE",
"1401.77 300.95 LINE",
"543.909 691.885 LINE",
"1456.76 928.845 LINE",
"1478.75 1177.8 LINE",
"171.971 829.862 LINE"
);
}
);
width = 1628;
}
);
unicode = 003C;
},
{
glyphname = equal;
layers = (
{
layerId = "C85A2332-1B89-4390-846F-6AFC3F1E970B";
name = Bold;
paths = (
{
closed = 1;
nodes = (
"1420.76 942.843 LINE",
"149.975 942.843 LINE",
"149.975 710.882 LINE",
"1420.76 710.882 LINE"
);
},
{
closed = 1;
nodes = (
"1420.76 589.902 LINE",
"149.975 589.902 LINE",
"149.975 328.945 LINE",
"1420.76 328.945 LINE"
);
}
);
width = 1570;
}
);
unicode = 003D;
},
{
glyphname = greater;
layers = (
{
layerId = "C85A2332-1B89-4390-846F-6AFC3F1E970B";
name = Bold;
paths = (
{
closed = 1;
nodes = (
"149.975 114.981 LINE",
"1456.76 462.923 LINE",
"1478.75 725.879 LINE",
"252.958 1295.78 LINE",
"231.961 1047.83 LINE",
"1086.82 655.891 LINE",
"176.971 419.93 LINE"
);
}
);
width = 1628;
}
);
unicode = 003E;
},
{
glyphname = question;
layers = (
{
layerId = "C85A2332-1B89-4390-846F-6AFC3F1E970B";
name = Bold;
paths = (
{
closed = 1;
nodes = (
"641.893 329.945 LINE",
"321.946 329.945 LINE",
"321.946 -9 LINE",
"641.893 -9 LINE"
);
},
{
closed = 1;
nodes = (
"645.893 586.902 OFFCURVE",
"647.892 618.897 OFFCURVE",
"654.891 639.893 CURVE",
"656.891 646.892 OFFCURVE",
"659.89 653.891 OFFCURVE",
"664.889 660.89 CURVE",
"673.888 675.888 OFFCURVE",
"685.886 692.885 OFFCURVE",
"699.883 713.881 CURVE SMOOTH",
"706.882 724.879 OFFCURVE",
"712.881 735.878 OFFCURVE",
"719.88 746.876 CURVE",
"732.878 759.874 OFFCURVE",
"743.876 772.871 OFFCURVE",
"754.874 784.869 CURVE SMOOTH",
"764.873 795.868 OFFCURVE",
"775.871 808.865 OFFCURVE",
"787.869 821.863 CURVE SMOOTH",
"840.86 877.854 OFFCURVE",
"881.853 928.845 OFFCURVE",
"909.849 969.839 CURVE SMOOTH",
"942.843 1018.83 OFFCURVE",
"958.84 1070.82 OFFCURVE",
"958.84 1126.81 CURVE SMOOTH",
"958.84 1235.79 OFFCURVE",
"921.847 1324.78 OFFCURVE",
"846.859 1392.77 CURVE SMOOTH",
"773.871 1460.76 OFFCURVE",
"675.888 1492.75 OFFCURVE",
"550.908 1492.75 CURVE SMOOTH",
"417.93 1492.75 OFFCURVE",
"283.953 1451.76 OFFCURVE",
"149.975 1370.77 CURVE",
"149.975 1131.81 LINE",
"302.95 1236.79 OFFCURVE",
"426.929 1293.78 OFFCURVE",
"518.914 1293.78 CURVE SMOOTH",
"575.904 1293.78 OFFCURVE",
"619.897 1275.79 OFFCURVE",
"651.891 1239.79 CURVE SMOOTH",
"686.886 1202.8 OFFCURVE",
"703.883 1162.81 OFFCURVE",
"703.883 1117.81 CURVE",
"699.883 1094.82 OFFCURVE",
"688.885 1078.82 OFFCURVE",
"671.888 1061.82 CURVE",
"651.891 1038.83 OFFCURVE",
"616.897 1010.83 OFFCURVE",
"569.905 971.838 CURVE",
"475.921 887.852 LINE SMOOTH",
"414.931 830.862 OFFCURVE",
"375.937 776.871 OFFCURVE",
"355.941 728.879 CURVE SMOOTH",
"336.944 679.887 OFFCURVE",
"326.946 622.896 OFFCURVE",
"326.946 554.908 CURVE SMOOTH",
"326.946 373.938 LINE",
"645.893 373.938 LINE",
"645.893 525.912 LINE SMOOTH"
);
}
);
width = 1108;
}
);
unicode = 003F;
},
{
glyphname = at;
layers = (
{
layerId = "C85A2332-1B89-4390-846F-6AFC3F1E970B";
name = Bold;
paths = (
{
closed = 1;
nodes = (
"781.87 682.886 OFFCURVE",
"800.867 734.878 OFFCURVE",
"837.861 774.871 CURVE",
"876.854 813.865 OFFCURVE",
"927.846 832.861 OFFCURVE",
"990.835 832.861 CURVE SMOOTH",
"1118.81 832.861 OFFCURVE",
"1201.8 749.875 OFFCURVE",
"1201.8 614.898 CURVE SMOOTH",
"1201.8 478.92 OFFCURVE",
"1124.81 396.934 OFFCURVE",
"992.835 396.934 CURVE SMOOTH",
"857.857 396.934 OFFCURVE",
"781.87 478.92 OFFCURVE",
"781.87 614.898 CURVE SMOOTH"
);
},
{
closed = 1;
nodes = (
"1331.78 79.9867 OFFCURVE",
"1408.77 88.9852 OFFCURVE",
"1479.75 107.982 CURVE",
"1334.78 0 OFFCURVE",
"1178.8 -49 OFFCURVE",
"1029.83 -49 CURVE SMOOTH",
"934.844 -49 OFFCURVE",
"850.858 -38 OFFCURVE",
"774.871 -14 CURVE SMOOTH",
"701.883 7.99867 OFFCURVE",
"634.894 48.9918 OFFCURVE",
"573.904 108.982 CURVE",
"500.917 187.969 OFFCURVE",
"436.927 265.956 OFFCURVE",
"403.933 321.946 CURVE",
"404.933 321.946 LINE",
"371.938 376.937 OFFCURVE",
"355.941 450.925 OFFCURVE",
"355.941 543.909 CURVE SMOOTH",
"355.941 770.872 OFFCURVE",
"463.923 973.838 OFFCURVE",
"650.892 1096.82 CURVE SMOOTH",
"765.872 1172.8 OFFCURVE",
"898.85 1210.8 OFFCURVE",
"1045.83 1210.8 CURVE SMOOTH",
"1253.79 1210.8 OFFCURVE",
"1432.76 1127.81 OFFCURVE",
"1557.74 972.838 CURVE SMOOTH",
"1630.73 879.854 OFFCURVE",
"1667.72 770.872 OFFCURVE",
"1667.72 646.892 CURVE SMOOTH",
"1667.72 545.909 OFFCURVE",
"1642.73 462.923 OFFCURVE",
"1597.73 398.934 CURVE",
"1560.74 351.941 OFFCURVE",
"1511.75 316.947 OFFCURVE",
"1451.76 299.95 CURVE",
"1451.76 976.837 LINE",
"1243.79 976.837 LINE",
"1243.79 910.848 LINE",
"1174.8 967.839 OFFCURVE",
"1087.82 995.834 OFFCURVE",
"983.836 995.834 CURVE SMOOTH",
"866.856 995.834 OFFCURVE",
"770.872 952.841 OFFCURVE",
"695.884 865.856 CURVE SMOOTH",
"620.897 780.87 OFFCURVE",
"585.902 671.888 OFFCURVE",
"585.902 538.91 CURVE SMOOTH",
"585.902 270.955 OFFCURVE",
"747.876 81.9864 OFFCURVE",
"983.836 81.9864 CURVE SMOOTH",
"1091.82 81.9864 OFFCURVE",
"1171.8 105.982 OFFCURVE",
"1243.79 165.972 CURVE",
"1243.79 76.9872 LINE"
);
},
{
closed = 1;
nodes = (
"1823.7 337.944 OFFCURVE",
"1876.69 475.921 OFFCURVE",
"1876.69 650.892 CURVE SMOOTH",
"1876.69 811.865 OFFCURVE",
"1824.7 964.839 OFFCURVE",
"1725.71 1093.82 CURVE SMOOTH",
"1562.74 1301.78 OFFCURVE",
"1319.78 1420.76 OFFCURVE",
"1043.83 1420.76 CURVE SMOOTH",
"798.867 1420.76 OFFCURVE",
"574.904 1331.78 OFFCURVE",
"405.932 1164.81 CURVE SMOOTH",
"240.96 999.834 OFFCURVE",
"149.975 780.87 OFFCURVE",
"149.975 543.909 CURVE SMOOTH",
"149.975 296.951 OFFCURVE",
"237.96 80.9865 OFFCURVE",
"405.932 -83 CURVE SMOOTH",
"572.905 -246 OFFCURVE",
"786.869 -332 OFFCURVE",
"1029.83 -332 CURVE SMOOTH",
"1228.8 -332 OFFCURVE",
"1431.76 -258 OFFCURVE",
"1611.73 -119 CURVE",
"1495.75 112.981 LINE",
"1584.74 138.977 OFFCURVE",
"1658.72 179.97 OFFCURVE",
"1716.71 235.961 CURVE SMOOTH"
);
}
);
width = 2026;
}
);
unicode = 0040;
},
{
glyphname = A;
layers = (
{
layerId = "C85A2332-1B89-4390-846F-6AFC3F1E970B";
name = Bold;
paths = (
{
closed = 1;
nodes = (
"665.889 587.902 OFFCURVE",
"683.886 641.893 OFFCURVE",
"700.883 694.884 CURVE SMOOTH",
"717.88 746.876 OFFCURVE",
"735.878 797.867 OFFCURVE",
"752.875 848.859 CURVE SMOOTH",
"769.872 899.85 OFFCURVE",
"785.869 949.842 OFFCURVE",
"802.866 1000.83 CURVE SMOOTH",
"819.864 1051.82 OFFCURVE",
"836.861 1103.82 OFFCURVE",
"854.858 1157.81 CURVE",
"1063.82 531.911 LINE",
"646.892 531.911 LINE"
);
},
{
closed = 1;
nodes = (
"563.906 230.962 LINE",
"1144.81 230.962 LINE",
"1197.8 0 LINE",
"1559.74 0 LINE",
"970.838 1492.75 LINE",
"739.877 1492.75 LINE",
"149.975 0 LINE",
"491.918 0 LINE"
);
}
);
width = 1709;
}
);
unicode = 0041;
},
{
glyphname = B;
layers = (
{
layerId = "C85A2332-1B89-4390-846F-6AFC3F1E970B";
name = Bold;
paths = (
{
closed = 1;
nodes = (
"780.87 676.887 OFFCURVE",
"848.859 658.89 OFFCURVE",
"891.852 621.896 CURVE SMOOTH",
"932.845 587.902 OFFCURVE",
"952.841 560.907 OFFCURVE",
"952.841 540.91 CURVE SMOOTH",
"952.841 466.922 OFFCURVE",
"933.845 418.93 OFFCURVE",
"895.851 395.934 CURVE",
"896.851 395.934 LINE",
"854.858 369.938 OFFCURVE",
"784.869 356.941 OFFCURVE",
"687.885 356.941 CURVE SMOOTH",
"417.93 356.941 LINE",
"417.93 676.887 LINE",
"687.885 676.887 LINE SMOOTH"
);
},
{
closed = 1;
nodes = (
"830.862 1287.79 OFFCURVE",
"903.85 1203.8 OFFCURVE",
"903.85 1083.82 CURVE SMOOTH",
"903.85 966.839 OFFCURVE",
"823.863 907.849 OFFCURVE",
"663.89 907.849 CURVE SMOOTH",
"417.93 907.849 LINE",
"417.93 1287.79 LINE",
"663.89 1287.79 LINE SMOOTH"
);
},
{
closed = 1;
nodes = (
"1031.83 0 OFFCURVE",
"1249.79 155.974 OFFCURVE",
"1249.79 434.928 CURVE SMOOTH",
"1249.79 609.898 OFFCURVE",
"1164.81 740.877 OFFCURVE",
"979.837 807.866 CURVE",
"1076.82 861.857 OFFCURVE",
"1124.81 960.84 OFFCURVE",
"1124.81 1104.82 CURVE SMOOTH",
"1124.81 1228.8 OFFCURVE",
"1080.82 1325.78 OFFCURVE",
"996.834 1391.77 CURVE SMOOTH",
"912.848 1457.76 OFFCURVE",
"789.869 1492.75 OFFCURVE",
"630.895 1492.75 CURVE SMOOTH",
"149.975 1492.75 LINE",
"149.975 0 LINE",
"696.884 0 LINE SMOOTH"
);
}
);
width = 1399;
}
);
unicode = 0042;
},
{
glyphname = C;
layers = (
{
layerId = "C85A2332-1B89-4390-846F-6AFC3F1E970B";
name = Bold;
paths = (
{
closed = 1;
nodes = (
"1157.81 1517.75 OFFCURVE",
"1024.83 1526.75 OFFCURVE",
"849.859 1518.75 CURVE SMOOTH",
"397.934 1498.75 OFFCURVE",
"149.975 1217.8 OFFCURVE",
"149.975 744.876 CURVE SMOOTH",
"149.975 269.955 OFFCURVE",
"428.929 -28 OFFCURVE",
"879.854 -28 CURVE SMOOTH",
"1055.82 -28 OFFCURVE",
"1216.8 23.996 OFFCURVE",
"1367.77 126.979 CURVE",
"1367.77 567.905 LINE",
"1200.8 412.931 OFFCURVE",
"1045.83 338.944 OFFCURVE",
"890.852 338.944 CURVE SMOOTH",
"581.903 338.944 OFFCURVE",
"432.928 439.927 OFFCURVE",
"427.929 744.876 CURVE",
"427.929 1096.82 OFFCURVE",
"559.907 1284.79 OFFCURVE",
"860.857 1284.79 CURVE SMOOTH",
"1015.83 1284.79 OFFCURVE",
"1140.81 1260.79 OFFCURVE",
"1367.77 1105.82 CURVE",
"1367.77 1415.76 LINE"
);
}
);
width = 1517;
}
);
unicode = 0043;
},
{
glyphname = D;
layers = (
{
layerId = "C85A2332-1B89-4390-846F-6AFC3F1E970B";
name = Bold;
paths = (
{
closed = 1;
nodes = (
"800.867 1259.79 OFFCURVE",
"932.845 1219.8 OFFCURVE",
"1019.83 1137.81 CURVE SMOOTH",
"1106.82 1055.82 OFFCURVE",
"1147.81 933.845 OFFCURVE",
"1147.81 769.872 CURVE",
"1120.81 644.893 OFFCURVE",
"1063.82 550.908 OFFCURVE",
"1003.83 502.916 CURVE",
"933.845 455.924 OFFCURVE",
"805.866 432.928 OFFCURVE",
"619.897 432.928 CURVE SMOOTH",
"426.929 432.928 LINE",
"426.929 1259.79 LINE",
"619.897 1259.79 LINE SMOOTH"
);
},
{
closed = 1;
nodes = (
"864.856 0 OFFCURVE",
"1073.82 59.99 OFFCURVE",
"1210.8 180.97 CURVE SMOOTH",
"1347.78 303.949 OFFCURVE",
"1416.76 492.918 OFFCURVE",
"1416.76 747.876 CURVE SMOOTH",
"1416.76 999.834 OFFCURVE",
"1344.78 1188.8 OFFCURVE",
"1211.8 1311.78 CURVE",
"1075.82 1428.76 OFFCURVE",
"860.857 1492.75 OFFCURVE",
"581.903 1492.75 CURVE SMOOTH",
"149.975 1492.75 LINE",
"149.975 0 LINE",
"581.903 0 LINE SMOOTH"
);
}
);
width = 1566;
}
);
unicode = 0044;
},
{
glyphname = E;
layers = (
{
layerId = "C85A2332-1B89-4390-846F-6AFC3F1E970B";
name = Bold;
paths = (
{
closed = 1;
nodes = (
"1138.81 369.938 LINE",
"417.93 369.938 LINE",
"417.93 674.888 LINE",
"1091.82 674.888 LINE",
"1091.82 911.848 LINE",
"417.93 911.848 LINE",
"417.93 1255.79 LINE",
"1121.81 1255.79 LINE",
"1121.81 1492.75 LINE",
"149.975 1492.75 LINE",
"149.975 0 LINE",
"1138.81 0 LINE"
);
}
);
width = 1288;
}
);
unicode = 0045;
},
{
glyphname = F;
layers = (
{
layerId = "C85A2332-1B89-4390-846F-6AFC3F1E970B";
name = Bold;
paths = (
{
closed = 1;
nodes = (
"457.924 638.894 LINE",
"999.834 638.894 LINE",
"999.834 913.848 LINE",
"447.925 913.848 LINE",
"450.925 974.838 OFFCURVE",
"452.925 1028.83 OFFCURVE",
"456.924 1081.82 CURVE SMOOTH",
"459.923 1134.81 OFFCURVE",
"461.923 1186.8 OFFCURVE",
"464.923 1245.79 CURVE",
"1050.83 1245.79 LINE",
"1050.83 1492.75 LINE",
"199.967 1492.75 LINE",
"149.975 0 LINE",
"476.921 0 LINE"
);
}
);
width = 1200;
}
);
unicode = 0046;
},
{
glyphname = G;
layers = (
{
layerId = "C85A2332-1B89-4390-846F-6AFC3F1E970B";
name = Bold;
paths = (
{
closed = 1;
nodes = (
"1148.81 393.934 OFFCURVE",
"1120.81 382.936 OFFCURVE",
"1083.82 373.938 CURVE",
"1084.82 373.938 LINE",
"1033.83 362.94 OFFCURVE",
"977.837 357.94 OFFCURVE",
"910.848 357.94 CURVE SMOOTH",
"745.876 357.94 OFFCURVE",
"623.896 385.936 OFFCURVE",
"546.909 440.927 CURVE",
"547.909 440.927 LINE",
"475.921 495.917 OFFCURVE",
"435.927 608.899 OFFCURVE",
"427.929 765.872 CURVE",
"428.929 1124.81 OFFCURVE",
"589.902 1303.78 OFFCURVE",
"910.848 1303.78 CURVE SMOOTH",
"1078.82 1303.78 OFFCURVE",
"1240.79 1238.79 OFFCURVE",
"1416.76 1088.82 CURVE",
"1416.76 1376.77 LINE",
"1256.79 1476.75 OFFCURVE",
"1087.82 1518.75 OFFCURVE",
"894.851 1518.75 CURVE SMOOTH",
"430.928 1518.75 OFFCURVE",
"149.975 1228.8 OFFCURVE",
"149.975 744.876 CURVE SMOOTH",
"149.975 504.916 OFFCURVE",
"215.964 315.947 OFFCURVE",
"346.942 176.971 CURVE SMOOTH",
"479.92 39.9933 OFFCURVE",
"662.89 -28 OFFCURVE",
"894.851 -28 CURVE SMOOTH",
"1107.82 -28 OFFCURVE",
"1296.78 30.9948 OFFCURVE",
"1463.76 149.975 CURVE",
"1463.76 787.869 LINE",
"865.856 787.869 LINE",
"865.856 526.912 LINE",
"1168.81 526.912 LINE",
"1168.81 408.932 LINE"
);
}
);
width = 1613;
}
);
unicode = 0047;
},
{
glyphname = H;
layers = (
{
layerId = "C85A2332-1B89-4390-846F-6AFC3F1E970B";
name = Bold;
paths = (
{
closed = 1;
nodes = (
"446.926 475.921 LINE",
"1028.83 475.921 LINE",
"1028.83 0 LINE",
"1325.78 0 LINE",
"1306.78 1492.75 LINE",
"1028.83 1492.75 LINE",
"1028.83 816.864 LINE",
"446.926 816.864 LINE",
"446.926 1492.75 LINE",
"168.972 1492.75 LINE",
"149.975 0 LINE",
"446.926 0 LINE"
);
}
);
width = 1475;
}
);
unicode = 0048;
},
{
glyphname = I;
layers = (
{
layerId = "C85A2332-1B89-4390-846F-6AFC3F1E970B";
name = Bold;
paths = (
{
closed = 1;
nodes = (
"437.927 1492.75 LINE",
"180.97 1492.75 LINE",
"149.975 0 LINE",
"456.924 0 LINE"
);
}
);
width = 606;
}
);
unicode = 0049;
},
{
glyphname = J;
layers = (
{
layerId = "C85A2332-1B89-4390-846F-6AFC3F1E970B";
name = Bold;
paths = (
{
closed = 1;
nodes = (
"486.919 79.9867 OFFCURVE",
"470.922 49.9917 OFFCURVE",
"439.927 20.9965 CURVE SMOOTH",
"408.932 -8 OFFCURVE",
"352.941 -26 OFFCURVE",
"284.953 -30 CURVE",
"149.975 0 LINE",
"149.975 -395 LINE",
"296.951 -410 LINE",
"459.923 -407 OFFCURVE",
"577.904 -366 OFFCURVE",
"650.892 -289 CURVE SMOOTH",
"722.88 -214 OFFCURVE",
"761.873 -83 OFFCURVE",
"765.872 95.984 CURVE SMOOTH",
"818.864 1479.75 LINE",
"541.91 1496.75 LINE",
"487.919 110.982 LINE SMOOTH"
);
}
);
width = 968;
}
);
unicode = 004A;
},
{
glyphname = K;
layers = (
{
layerId = "C85A2332-1B89-4390-846F-6AFC3F1E970B";
name = Bold;
paths = (
{
closed = 1;
nodes = (
"474.921 44.9925 OFFCURVE",
"472.921 91.9847 OFFCURVE",
"469.922 140.977 CURVE SMOOTH",
"464.923 239.96 OFFCURVE",
"458.924 341.943 OFFCURVE",
"452.925 442.926 CURVE SMOOTH",
"449.925 493.918 OFFCURVE",
"446.926 542.91 OFFCURVE",
"443.926 589.902 CURVE",
"860.857 0 LINE",
"1423.76 0 LINE",
"632.895 792.868 LINE",
"1377.77 1492.75 LINE",
"1020.83 1492.75 LINE",
"439.927 944.843 LINE",
"456.924 1492.75 LINE",
"189.968 1492.75 LINE",
"149.975 0 LINE",
"476.921 0 LINE"
);
}
);
width = 1573;
}
);
unicode = 004B;
},
{
glyphname = L;
layers = (
{
layerId = "C85A2332-1B89-4390-846F-6AFC3F1E970B";
name = Bold;
paths = (
{
closed = 1;
nodes = (
"1119.81 369.938 LINE",
"427.929 369.938 LINE",
"436.927 1492.75 LINE",
"169.972 1492.75 LINE",
"149.975 0 LINE",
"1096.82 0 LINE"
);
}
);
width = 1269;
}
);
unicode = 004C;
},
{
glyphname = M;
layers = (
{
layerId = "C85A2332-1B89-4390-846F-6AFC3F1E970B";
name = Bold;
paths = (
{
closed = 1;
nodes = (
"495.917 166.972 OFFCURVE",
"489.918 337.944 OFFCURVE",
"484.919 510.915 CURVE SMOOTH",
"479.92 683.886 OFFCURVE",
"473.921 856.857 OFFCURVE",
"468.922 1028.83 CURVE",
"742.876 224.963 LINE",
"1027.83 224.963 LINE",
"1301.78 1026.83 LINE",
"1269.79 0 LINE",
"1621.73 0 LINE",
"1561.74 1492.75 LINE",
"1232.79 1492.75 LINE",
"885.853 769.872 LINE",
"557.907 1492.75 LINE",
"209.965 1492.75 LINE",
"149.975 0 LINE",
"500.917 0 LINE"
);
}
);
width = 1771;
}
);
unicode = 004D;
},
{
glyphname = N;
layers = (
{
layerId = "C85A2332-1B89-4390-846F-6AFC3F1E970B";
name = Bold;
paths = (
{
closed = 1;
nodes = (
"462.923 170.972 OFFCURVE",
"454.924 344.943 OFFCURVE",
"446.926 523.913 CURVE SMOOTH",
"437.927 702.883 OFFCURVE",
"429.928 878.854 OFFCURVE",
"420.93 1053.82 CURVE",
"979.837 0 LINE",
"1317.78 0 LINE",
"1317.78 1492.75 LINE",
"1065.82 1492.75 LINE",
"1039.83 450.925 LINE",
"487.919 1464.76 LINE",
"188.969 1464.76 LINE",
"149.975 0 LINE",
"470.922 0 LINE"
);
}
);
width = 1467;
}
);
unicode = 004E;
},
{
glyphname = O;
layers = (
{
layerId = "C85A2332-1B89-4390-846F-6AFC3F1E970B";
name = Bold;
paths = (
{
closed = 1;
nodes = (
"1097.82 1286.79 OFFCURVE",
"1258.79 1087.82 OFFCURVE",
"1258.79 744.876 CURVE SMOOTH",
"1258.79 480.92 OFFCURVE",
"1109.82 412.931 OFFCURVE",
"844.859 412.931 CURVE SMOOTH",
"712.881 412.931 OFFCURVE",
"607.899 436.927 OFFCURVE",
"531.911 481.92 CURVE",
"463.923 525.912 OFFCURVE",
"427.929 612.898 OFFCURVE",
"427.929 744.876 CURVE SMOOTH",
"427.929 911.848 OFFCURVE",
"469.922 1049.83 OFFCURVE",
"541.91 1145.81 CURVE",
"616.897 1233.79 OFFCURVE",
"720.88 1286.79 OFFCURVE",
"844.859 1286.79 CURVE SMOOTH"
);
},
{
closed = 1;
nodes = (
"633.894 1518.75 OFFCURVE",
"464.923 1447.76 OFFCURVE",
"337.944 1305.78 CURVE SMOOTH",
"212.965 1164.81 OFFCURVE",
"149.975 980.837 OFFCURVE",
"149.975 744.876 CURVE SMOOTH",
"149.975 511.915 OFFCURVE",
"212.965 324.946 OFFCURVE",
"337.944 183.969 CURVE SMOOTH",
"464.923 42.9928 OFFCURVE",
"633.894 -28 OFFCURVE",
"844.859 -28 CURVE SMOOTH",
"1053.82 -28 OFFCURVE",
"1221.8 42.9928 OFFCURVE",
"1349.78 183.969 CURVE SMOOTH",
"1474.75 324.946 OFFCURVE",
"1537.74 511.915 OFFCURVE",
"1537.74 744.876 CURVE SMOOTH",
"1537.74 980.837 OFFCURVE",
"1474.75 1164.81 OFFCURVE",
"1349.78 1305.78 CURVE SMOOTH",
"1222.8 1447.76 OFFCURVE",
"1053.82 1518.75 OFFCURVE",
"844.859 1518.75 CURVE SMOOTH"
);
}
);
width = 1687;
}
);
unicode = 004F;
},
{
glyphname = P;
layers = (
{
layerId = "C85A2332-1B89-4390-846F-6AFC3F1E970B";
name = Bold;
paths = (
{
closed = 1;
nodes = (
"855.858 1334.78 OFFCURVE",
"949.842 1252.79 OFFCURVE",
"949.842 1107.82 CURVE SMOOTH",
"949.842 959.84 OFFCURVE",
"855.858 878.854 OFFCURVE",
"687.885 878.854 CURVE SMOOTH",
"467.922 878.854 LINE",
"470.922 961.84 OFFCURVE",
"472.921 1035.83 OFFCURVE",
"476.921 1108.82 CURVE SMOOTH",
"479.92 1181.8 OFFCURVE",
"481.92 1254.79 OFFCURVE",
"484.919 1334.78 CURVE",
"687.885 1334.78 LINE SMOOTH"
);
},
{
closed = 1;
nodes = (
"474.921 550.908 LINE",
"669.888 550.908 LINE SMOOTH",
"840.86 550.908 OFFCURVE",
"968.839 592.901 OFFCURVE",
"1055.82 677.887 CURVE SMOOTH",
"1144.81 760.873 OFFCURVE",
"1189.8 878.854 OFFCURVE",
"1189.8 1031.83 CURVE SMOOTH",
"1189.8 1335.78 OFFCURVE",
"1014.83 1492.75 OFFCURVE",
"669.888 1492.75 CURVE SMOOTH",
"210.965 1492.75 LINE",
"149.975 0 LINE",
"455.924 0 LINE"
);
}
);
width = 1339;
}
);
unicode = 0050;
},
{
glyphname = Q;
layers = (
{
layerId = "C85A2332-1B89-4390-846F-6AFC3F1E970B";
name = Bold;
paths = (
{
closed = 1;
nodes = (
"1096.82 1286.79 OFFCURVE",
"1258.79 1084.82 OFFCURVE",
"1258.79 744.876 CURVE SMOOTH",
"1258.79 615.897 OFFCURVE",
"1209.8 522.913 OFFCURVE",
"1111.81 465.922 CURVE",
"1042.83 476.921 OFFCURVE",
"958.84 502.916 OFFCURVE",
"873.855 541.91 CURVE",
"868.855 532.911 OFFCURVE",
"862.856 521.913 OFFCURVE",
"855.858 510.915 CURVE SMOOTH",
"848.859 499.917 OFFCURVE",
"840.86 487.919 OFFCURVE",
"833.861 474.921 CURVE SMOOTH",
"826.862 461.923 OFFCURVE",
"818.864 449.925 OFFCURVE",
"811.865 436.927 CURVE",
"803.866 423.929 OFFCURVE",
"796.867 412.931 OFFCURVE",
"790.868 401.933 CURVE",
"725.879 412.931 LINE SMOOTH",
"674.888 419.93 OFFCURVE",
"606.899 444.926 OFFCURVE",
"530.912 487.919 CURVE SMOOTH",
"461.923 528.912 OFFCURVE",
"427.929 613.898 OFFCURVE",
"427.929 744.876 CURVE SMOOTH",
"427.929 911.848 OFFCURVE",
"469.922 1049.83 OFFCURVE",
"541.91 1145.81 CURVE",
"616.897 1233.79 OFFCURVE",
"720.88 1286.79 OFFCURVE",
"844.859 1286.79 CURVE SMOOTH"
);
},
{
closed = 1;
nodes = (
"1364.77 179.97 OFFCURVE",
"1409.77 250.958 OFFCURVE",
"1456.76 337.944 CURVE SMOOTH",
"1509.75 438.927 OFFCURVE",
"1536.74 574.904 OFFCURVE",
"1536.74 744.876 CURVE SMOOTH",
"1536.74 1211.8 OFFCURVE",
"1263.79 1518.75 OFFCURVE",
"844.859 1518.75 CURVE SMOOTH",
"421.93 1518.75 OFFCURVE",
"149.975 1211.8 OFFCURVE",
"149.975 744.876 CURVE SMOOTH",
"149.975 276.954 OFFCURVE",
"426.929 -28 OFFCURVE",
"834.861 -28 CURVE SMOOTH",
"843.86 -28 OFFCURVE",
"852.858 -28 OFFCURVE",
"861.857 -28 CURVE SMOOTH",
"870.855 -28 OFFCURVE",
"883.853 -27 OFFCURVE",
"898.85 -26 CURVE",
"1096.82 -251 LINE",
"1649.73 -251 LINE",
"1315.78 120.98 LINE"
);
}
);
width = 1799;
}
);
unicode = 0051;
},
{
glyphname = R;
layers = (
{
layerId = "C85A2332-1B89-4390-846F-6AFC3F1E970B";
name = Bold;
paths = (
{
closed = 1;
nodes = (
"1111.81 1195.8 OFFCURVE",
"1065.82 1308.78 OFFCURVE",
"981.837 1382.77 CURVE SMOOTH",
"897.851 1456.76 OFFCURVE",
"775.871 1492.75 OFFCURVE",
"620.897 1492.75 CURVE SMOOTH",
"149.975 1492.75 LINE",
"149.975 0 LINE",
"454.924 0 LINE",
"454.924 598.9 LINE",
"559.907 598.9 LINE SMOOTH",
"694.884 598.9 OFFCURVE",
"754.874 562.906 OFFCURVE",
"841.86 383.936 CURVE",
"840.86 386.936 LINE",
"993.835 0 LINE",
"1352.77 0 LINE",
"1321.78 62.9895 OFFCURVE",
"1282.79 140.977 OFFCURVE",
"1242.79 219.963 CURVE SMOOTH",
"1202.8 298.95 OFFCURVE",
"1162.81 377.937 OFFCURVE",
"1130.81 441.926 CURVE SMOOTH",
"1069.82 561.906 OFFCURVE",
"1008.83 648.892 OFFCURVE",
"941.843 699.883 CURVE",
"1049.83 764.873 OFFCURVE",
"1111.81 883.853 OFFCURVE",
"1111.81 1046.83 CURVE SMOOTH"
);
},
{
closed = 1;
nodes = (
"768.872 1315.78 OFFCURVE",
"900.85 1258.79 OFFCURVE",
"900.85 1046.83 CURVE SMOOTH",
"900.85 958.84 OFFCURVE",
"770.872 869.855 OFFCURVE",
"639.893 869.855 CURVE SMOOTH",
"435.927 869.855 LINE",
"435.927 1315.78 LINE",
"639.893 1315.78 LINE SMOOTH"
);
}
);
width = 1502;
}
);
unicode = 0052;
},
{
glyphname = S;
layers = (
{
layerId = "C85A2332-1B89-4390-846F-6AFC3F1E970B";
name = Bold;
paths = (
{
closed = 1;
nodes = (
"971.838 1490.75 OFFCURVE",
"820.863 1518.75 OFFCURVE",
"684.886 1518.75 CURVE SMOOTH",
"357.94 1518.75 OFFCURVE",
"149.975 1351.78 OFFCURVE",
"149.975 1075.82 CURVE SMOOTH",
"149.975 839.86 OFFCURVE",
"284.953 708.882 OFFCURVE",
"585.902 651.891 CURVE SMOOTH",
"702.883 628.895 LINE SMOOTH",
"785.869 609.898 OFFCURVE",
"858.857 580.903 OFFCURVE",
"894.851 549.908 CURVE",
"927.846 517.914 OFFCURVE",
"946.842 488.919 OFFCURVE",
"946.842 461.923 CURVE SMOOTH",
"946.842 432.928 OFFCURVE",
"922.846 400.933 OFFCURVE",
"873.855 365.939 CURVE SMOOTH",
"819.864 326.946 OFFCURVE",
"742.876 307.949 OFFCURVE",
"641.893 307.949 CURVE SMOOTH",
"502.916 307.949 OFFCURVE",
"343.943 362.94 OFFCURVE",
"154.974 467.922 CURVE",
"154.974 73.9877 LINE",
"337.944 5.999 OFFCURVE",
"502.916 -28 OFFCURVE",
"641.893 -28 CURVE SMOOTH",
"1022.83 -28 OFFCURVE",
"1222.8 129.978 OFFCURVE",
"1222.8 428.929 CURVE SMOOTH",
"1222.8 680.887 OFFCURVE",
"1079.82 826.862 OFFCURVE",
"772.871 885.853 CURVE",
"773.871 885.853 LINE",
"656.891 908.849 LINE SMOOTH",
"559.907 926.846 OFFCURVE",
"493.918 949.842 OFFCURVE",
"459.923 978.837 CURVE",
"460.923 977.837 LINE",
"431.928 1001.83 OFFCURVE",
"417.93 1039.83 OFFCURVE",
"417.93 1091.82 CURVE SMOOTH",
"417.93 1216.8 OFFCURVE",
"521.913 1286.79 OFFCURVE",
"706.882 1286.79 CURVE SMOOTH",
"821.863 1286.79 OFFCURVE",
"958.84 1245.79 OFFCURVE",
"1137.81 1161.81 CURVE",
"1137.81 1435.76 LINE"
);
}
);
width = 1372;
}
);
unicode = 0053;
},
{
glyphname = T;
layers = (
{
layerId = "C85A2332-1B89-4390-846F-6AFC3F1E970B";
name = Bold;
paths = (
{
closed = 1;
nodes = (
"613.898 0 LINE",
"960.84 0 LINE",
"922.846 1273.79 LINE",
"1424.76 1253.79 LINE",
"1424.76 1492.75 LINE",
"149.975 1492.75 LINE",
"149.975 1254.79 LINE",
"651.891 1273.79 LINE"
);
}
);
width = 1574;
}
);
unicode = 0054;
},
{
glyphname = U;
layers = (
{
layerId = "C85A2332-1B89-4390-846F-6AFC3F1E970B";
name = Bold;
paths = (
{
closed = 1;
nodes = (
"149.975 176.971 OFFCURVE",
"347.942 -28 OFFCURVE",
"730.878 -28 CURVE SMOOTH",
"1114.81 -28 OFFCURVE",
"1310.78 173.971 OFFCURVE",
"1310.78 569.905 CURVE SMOOTH",
"1310.78 1492.75 LINE",
"1042.83 1492.75 LINE",
"1042.83 726.879 LINE SMOOTH",
"1042.83 584.903 OFFCURVE",
"1017.83 482.92 OFFCURVE",
"968.839 421.93 CURVE",
"968.839 422.93 LINE",
"921.847 365.939 OFFCURVE",
"841.86 336.944 OFFCURVE",
"730.878 336.944 CURVE SMOOTH",
"619.897 336.944 OFFCURVE",
"539.91 365.939 OFFCURVE",
"492.918 422.93 CURVE",
"492.918 421.93 LINE",
"443.926 482.92 OFFCURVE",
"418.93 584.903 OFFCURVE",
"418.93 726.879 CURVE SMOOTH",
"418.93 1492.75 LINE",
"149.975 1492.75 LINE",
"149.975 569.905 LINE SMOOTH"
);
}
);
width = 1460;
}
);
unicode = 0055;
},
{
glyphname = V;
layers = (
{
layerId = "C85A2332-1B89-4390-846F-6AFC3F1E970B";
name = Bold;
paths = (
{
closed = 1;
nodes = (
"1276.79 1492.75 LINE",
"852.858 492.918 LINE",
"428.929 1492.75 LINE",
"149.975 1492.75 LINE",
"668.889 0 LINE",
"1036.83 0 LINE",
"1554.74 1492.75 LINE"
);
}
);
width = 1704;
}
);
unicode = 0056;
},
{
glyphname = W;
layers = (
{
layerId = "C85A2332-1B89-4390-846F-6AFC3F1E970B";
name = Bold;
paths = (
{
closed = 1;
nodes = (
"879.854 99.9834 OFFCURVE",
"921.847 213.964 OFFCURVE",
"965.839 331.945 CURVE SMOOTH",
"1009.83 449.925 OFFCURVE",
"1052.82 564.906 OFFCURVE",
"1093.82 677.887 CURVE",
"1328.78 0 LINE",
"1664.72 0 LINE",
"2040.66 1492.75 LINE",
"1778.7 1492.75 LINE",
"1729.71 1335.78 OFFCURVE",
"1678.72 1174.8 OFFCURVE",
"1626.73 1010.83 CURVE SMOOTH",
"1574.74 846.859 OFFCURVE",
"1523.75 674.888 OFFCURVE",
"1473.75 514.914 CURVE",
"1197.8 1121.81 LINE",
"980.837 1121.81 LINE",
"932.845 1026.83 OFFCURVE",
"882.853 928.845 OFFCURVE",
"831.862 828.862 CURVE SMOOTH",
"779.87 728.879 OFFCURVE",
"728.879 629.895 OFFCURVE",
"679.887 531.911 CURVE",
"409.932 1492.75 LINE",
"149.975 1492.75 LINE",
"483.919 0 LINE",
"838.86 0 LINE"
);
}
);
width = 2190;
}
);
unicode = 0057;
},
{
glyphname = X;
layers = (
{
layerId = "C85A2332-1B89-4390-846F-6AFC3F1E970B";
name = Bold;
paths = (
{
closed = 1;
nodes = (
"557.907 0 LINE",
"831.862 469.922 LINE",
"1104.82 0 LINE",
"1511.75 0 LINE",
"1014.83 699.883 LINE",
"1473.75 1492.75 LINE",
"1179.8 1492.75 LINE",
"847.859 927.846 LINE",
"516.914 1492.75 LINE",
"223.963 1492.75 LINE",
"665.889 701.883 LINE",
"149.975 0 LINE"
);
}
);
width = 1661;
}
);
unicode = 0058;
},
{
glyphname = Y;
layers = (
{
layerId = "C85A2332-1B89-4390-846F-6AFC3F1E970B";
name = Bold;
paths = (
{
closed = 1;
nodes = (
"971.838 0 LINE",
"971.838 512.915 LINE",
"1468.76 1492.75 LINE",
"1177.8 1492.75 LINE",
"810.865 808.865 LINE",
"440.927 1492.75 LINE",
"149.975 1492.75 LINE",
"636.894 512.915 LINE",
"636.894 0 LINE"
);
}
);
width = 1618;
}
);
unicode = 0059;
},
{
glyphname = Z;
layers = (
{
layerId = "C85A2332-1B89-4390-846F-6AFC3F1E970B";
name = Bold;
paths = (
{
closed = 1;
nodes = (
"149.975 322.946 LINE",
"149.975 0 LINE",
"1382.77 0 LINE",
"1382.77 360.94 LINE",
"512.915 360.94 LINE",
"1360.77 1293.78 LINE",
"1360.77 1492.75 LINE",
"171.971 1492.75 LINE",
"171.971 1255.79 LINE",
"997.834 1255.79 LINE"
);
}
);
width = 1532;
}
);
unicode = 005A;
},
{
glyphname = bracketleft;
layers = (
{
layerId = "C85A2332-1B89-4390-846F-6AFC3F1E970B";
name = Bold;
paths = (
{
closed = 1;
nodes = (
"619.897 30.9948 LINE",
"395.934 30.9948 LINE",
"395.934 1318.78 LINE",
"619.897 1318.78 LINE",
"619.897 1526.75 LINE",
"149.975 1526.75 LINE",
"149.975 -252 LINE",
"619.897 -252 LINE"
);
}
);
width = 769;
}
);
unicode = 005B;
},
{
glyphname = backslash;
layers = (
{
layerId = "C85A2332-1B89-4390-846F-6AFC3F1E970B";
name = Bold;
paths = (
{
closed = 1;
nodes = (
"836.861 -202 LINE",
"386.936 1461.76 LINE",
"149.975 1468.76 LINE",
"561.906 -191 LINE"
);
}
);
width = 986;
}
);
unicode = 005C;
},
{
glyphname = bracketright;
layers = (
{
layerId = "C85A2332-1B89-4390-846F-6AFC3F1E970B";
name = Bold;
paths = (
{
closed = 1;
nodes = (
"372.938 1318.78 LINE",
"372.938 20.9965 LINE",
"149.975 20.9965 LINE",
"149.975 -252 LINE",
"620.897 -252 LINE",
"620.897 1526.75 LINE",
"149.975 1526.75 LINE",
"149.975 1318.78 LINE"
);
}
);
width = 770;
}
);
unicode = 005D;
},
{
glyphname = asciicircum;
layers = (
{
layerId = "C85A2332-1B89-4390-846F-6AFC3F1E970B";
name = Bold;
paths = (
{
closed = 1;
nodes = (
"548.909 873.855 LINE",
"837.861 1271.79 LINE",
"1127.81 873.855 LINE",
"1526.75 873.855 LINE",
"925.846 1467.76 LINE",
"750.875 1467.76 LINE",
"149.975 873.855 LINE"
);
}
);
width = 1676;
}
);
unicode = 005E;
},
{
glyphname = underscore;
layers = (
{
layerId = "C85A2332-1B89-4390-846F-6AFC3F1E970B";
name = Bold;
paths = (
{
closed = 1;
nodes = (
"1217.8 -451 LINE",
"1217.8 -209 LINE",
"149.975 -209 LINE",
"149.975 -451 LINE"
);
}
);
width = 1367;
}
);
unicode = 005F;
},
{
glyphname = a;
lastChange = "2013-01-12 20:50:53 -0500";
layers = (
{
layerId = "C85A2332-1B89-4390-846F-6AFC3F1E970B";
name = Bold;
paths = (
{
closed = 1;
nodes = (
"867 1120 OFFCURVE",
"739.877 1144.81 OFFCURVE",
"614.898 1144.81 CURVE SMOOTH",
"335.944 1144.81 OFFCURVE",
"149.975 905.849 OFFCURVE",
"149.975 558.907 CURVE SMOOTH",
"149.975 211.965 OFFCURVE",
"335.944 -27 OFFCURVE",
"614.898 -27 CURVE SMOOTH",
"739.877 -27 OFFCURVE",
"882 59 OFFCURVE",
"912 264 CURVE",
"912 0 LINE",
"1162 0 LINE",
"1161.81 1143.81 LINE",
"924.846 1143.81 LINE",
"925 1001 LINE"
);
},
{
closed = 1;
nodes = (
"460.923 913.848 OFFCURVE",
"522.913 944.843 OFFCURVE",
"599.9 944.843 CURVE SMOOTH",
"675.888 944.843 OFFCURVE",
"732.878 909.849 OFFCURVE",
"770.872 848.859 CURVE SMOOTH",
"808.865 787.869 OFFCURVE",
"848 724 OFFCURVE",
"852 615 CURVE",
"847 415 OFFCURVE",
"759.874 359.94 OFFCURVE",
"594.901 359.94 CURVE SMOOTH",
"513.914 359.94 OFFCURVE",
"455.924 376.937 OFFCURVE",
"418.93 409.932 CURVE",
"418.93 408.932 LINE",
"381.936 441.926 OFFCURVE",
"356.941 499.917 OFFCURVE",
"344.943 582.903 CURVE",
"345.942 697.884 OFFCURVE",
"369.938 787.869 OFFCURVE",
"415.931 852.858 CURVE",
"414.931 851.858 LINE"
);
}
);
width = 1257;
}
);
unicode = 0061;
},
{
glyphname = b;
layers = (
{
layerId = "C85A2332-1B89-4390-846F-6AFC3F1E970B";
name = Bold;
paths = (
{
closed = 1;
nodes = (
"853.858 377.937 OFFCURVE",
"799.867 357.94 OFFCURVE",
"731.878 353.941 CURVE",
"579.904 354.941 OFFCURVE",
"503.916 434.928 OFFCURVE",
"479.92 594.901 CURVE",
"480.92 707.882 OFFCURVE",
"504.916 798.867 OFFCURVE",
"549.908 859.857 CURVE",
"594.901 915.848 OFFCURVE",
"657.891 947.842 OFFCURVE",
"734.878 947.842 CURVE SMOOTH",
"811.865 947.842 OFFCURVE",
"869.855 918.847 OFFCURVE",
"907.849 860.857 CURVE SMOOTH",
"947.842 799.867 OFFCURVE",
"971.838 713.881 OFFCURVE",
"975.838 600.9 CURVE",
"960.84 505.916 OFFCURVE",
"933.845 440.927 OFFCURVE",
"896.851 408.932 CURVE"
);
},
{
closed = 1;
nodes = (
"472.921 6.99884 OFFCURVE",
"569.905 -27 OFFCURVE",
"694.884 -27 CURVE SMOOTH",
"971.838 -27 OFFCURVE",
"1159.81 211.965 OFFCURVE",
"1159.81 558.907 CURVE SMOOTH",
"1159.81 905.849 OFFCURVE",
"971.838 1144.81 OFFCURVE",
"694.884 1144.81 CURVE SMOOTH",
"569.905 1144.81 OFFCURVE",
"477.92 1114.81 OFFCURVE",
"401.933 1038.83 CURVE",
"416.931 1526.75 LINE",
"168.972 1526.75 LINE",
"192.968 209.965 LINE",
"397.934 82.9862 LINE"
);
}
);
width = 1309;
}
);
unicode = 0062;
},
{
glyphname = c;
layers = (
{
layerId = "C85A2332-1B89-4390-846F-6AFC3F1E970B";
name = Bold;
paths = (
{
closed = 1;
nodes = (
"935.844 1118.81 OFFCURVE",
"823.863 1144.81 OFFCURVE",
"712.881 1144.81 CURVE SMOOTH",
"364.939 1144.81 OFFCURVE",
"149.975 919.847 OFFCURVE",
"149.975 558.907 CURVE SMOOTH",
"149.975 205.966 OFFCURVE",
"366.939 -27 OFFCURVE",
"701.883 -27 CURVE SMOOTH",
"822.863 -27 OFFCURVE",
"934.844 -1 OFFCURVE",
"1051.82 53.991 CURVE",
"1046.83 410.932 LINE",
"965.839 363.939 OFFCURVE",
"904.849 343.943 OFFCURVE",
"861.857 342.943 CURVE SMOOTH",
"714.881 342.943 LINE",
"621.896 350.942 OFFCURVE",
"534.911 370.938 OFFCURVE",
"489.918 399.933 CURVE",
"449.925 428.929 OFFCURVE",
"423.929 486.919 OFFCURVE",
"414.931 562.906 CURVE",
"417.93 794.868 OFFCURVE",
"520.913 933.845 OFFCURVE",
"720.88 933.845 CURVE SMOOTH",
"813.865 933.845 OFFCURVE",
"924.846 898.85 OFFCURVE",
"1051.82 828.862 CURVE",
"1051.82 1065.82 LINE"
);
}
);
width = 1201;
}
);
unicode = 0063;
},
{
glyphname = d;
layers = (
{
layerId = "C85A2332-1B89-4390-846F-6AFC3F1E970B";
name = Bold;
paths = (
{
closed = 1;
nodes = (
"838.86 1106.82 OFFCURVE",
"739.877 1144.81 OFFCURVE",
"614.898 1144.81 CURVE SMOOTH",
"335.944 1144.81 OFFCURVE",
"149.975 905.849 OFFCURVE",
"149.975 558.907 CURVE SMOOTH",
"149.975 211.965 OFFCURVE",
"335.944 -27 OFFCURVE",
"614.898 -27 CURVE SMOOTH",
"739.877 -27 OFFCURVE",
"836.861 6.99884 OFFCURVE",
"911.848 82.9862 CURVE",
"911.848 0 LINE",
"1158.81 0 LINE",
"1176.8 1526.75 LINE",
"931.845 1526.75 LINE",
"914.848 1031.83 LINE"
);
},
{
closed = 1;
nodes = (
"460.923 913.848 OFFCURVE",
"522.913 944.843 OFFCURVE",
"599.9 944.843 CURVE SMOOTH",
"675.888 944.843 OFFCURVE",
"732.878 909.849 OFFCURVE",
"770.872 848.859 CURVE SMOOTH",
"808.865 787.869 OFFCURVE",
"828.862 698.884 OFFCURVE",
"832.861 589.902 CURVE",
"827.862 389.935 OFFCURVE",
"759.874 359.94 OFFCURVE",
"594.901 359.94 CURVE SMOOTH",
"513.914 359.94 OFFCURVE",
"455.924 376.937 OFFCURVE",
"418.93 409.932 CURVE",
"418.93 408.932 LINE",
"381.936 441.926 OFFCURVE",
"356.941 499.917 OFFCURVE",
"344.943 582.903 CURVE",
"345.942 697.884 OFFCURVE",
"369.938 787.869 OFFCURVE",
"415.931 852.858 CURVE",
"414.931 851.858 LINE"
);
}
);
width = 1326;
}
);
unicode = 0064;
},
{
glyphname = e;
layers = (
{
layerId = "C85A2332-1B89-4390-846F-6AFC3F1E970B";
name = Bold;
paths = (
{
closed = 1;
nodes = (
"1170.81 828.862 OFFCURVE",
"1124.81 945.843 OFFCURVE",
"1044.83 1021.83 CURVE",
"1045.83 1021.83 LINE",
"965.839 1097.82 OFFCURVE",
"850.858 1138.81 OFFCURVE",
"700.883 1144.81 CURVE",
"361.94 1144.81 OFFCURVE",
"161.973 910.848 OFFCURVE",
"149.975 550.908 CURVE SMOOTH",
"149.975 373.938 OFFCURVE",
"201.966 234.961 OFFCURVE",
"306.949 132.978 CURVE SMOOTH",
"412.931 31.9947 OFFCURVE",
"552.908 -21 OFFCURVE",
"727.879 -27 CURVE SMOOTH",
"868.855 -27 OFFCURVE",
"1009.83 4.99917 OFFCURVE",
"1153.81 64.9892 CURVE",
"1148.81 388.935 LINE",
"1057.82 340.943 OFFCURVE",
"983.836 313.948 OFFCURVE",
"924.846 308.949 CURVE SMOOTH",
"861.857 303.949 OFFCURVE",
"804.866 301.95 OFFCURVE",
"737.877 301.95 CURVE",
"636.894 309.948 OFFCURVE",
"543.909 330.945 OFFCURVE",
"486.919 365.939 CURVE",
"443.926 397.934 OFFCURVE",
"412.931 465.922 OFFCURVE",
"404.933 565.906 CURVE",
"1183.8 565.906 LINE",
"1183.8 670.888 LINE"
);
},
{
closed = 1;
nodes = (
"434.928 827.862 OFFCURVE",
"457.924 865.856 OFFCURVE",
"496.917 904.849 CURVE",
"496.917 903.85 LINE",
"546.909 954.841 OFFCURVE",
"614.898 979.837 OFFCURVE",
"700.883 979.837 CURVE SMOOTH",
"773.871 979.837 OFFCURVE",
"832.861 954.841 OFFCURVE",
"876.854 903.85 CURVE SMOOTH",
"907.849 866.856 OFFCURVE",
"934.844 825.863 OFFCURVE",
"949.842 790.868 CURVE",
"425.929 789.869 LINE"
);
}
);
width = 1333;
}
);
unicode = 0065;
},
{
glyphname = f;
layers = (
{
layerId = "C85A2332-1B89-4390-846F-6AFC3F1E970B";
name = Bold;
paths = (
{
closed = 1;
nodes = (
"555.907 1507.75 OFFCURVE",
"476.921 1481.75 OFFCURVE",
"412.931 1428.76 CURVE",
"413.931 1428.76 LINE",
"346.942 1375.77 OFFCURVE",
"314.948 1284.79 OFFCURVE",
"313.948 1157.81 CURVE",
"307.949 1119.81 LINE",
"149.975 1119.81 LINE",
"149.975 874.854 LINE",
"302.95 874.854 LINE",
"275.954 0 LINE",
"599.9 0 LINE",
"594.901 138.977 OFFCURVE",
"589.902 286.952 OFFCURVE",
"585.902 435.927 CURVE SMOOTH",
"581.903 584.903 OFFCURVE",
"576.904 734.878 OFFCURVE",
"571.905 874.854 CURVE",
"843.86 874.854 LINE",
"843.86 1119.81 LINE",
"567.905 1119.81 LINE",
"566.906 1126.81 OFFCURVE",
"566.906 1132.81 OFFCURVE",
"565.906 1137.81 CURVE",
"564.906 1141.81 OFFCURVE",
"564.906 1145.81 OFFCURVE",
"564.906 1148.81 CURVE",
"563.906 1151.81 OFFCURVE",
"563.906 1155.81 OFFCURVE",
"562.906 1159.81 CURVE",
"561.906 1162.81 OFFCURVE",
"561.906 1168.81 OFFCURVE",
"560.907 1175.8 CURVE",
"560.907 1230.8 OFFCURVE",
"565.906 1262.79 OFFCURVE",
"576.904 1273.79 CURVE",
"585.902 1284.79 OFFCURVE",
"613.898 1289.79 OFFCURVE",
"641.893 1290.79 CURVE",
"833.861 1266.79 LINE",
"833.861 1485.75 LINE",
"647.892 1507.75 LINE"
);
}
);
width = 993;
}
);
unicode = 0066;
},
{
glyphname = g;
layers = (
{
layerId = "C85A2332-1B89-4390-846F-6AFC3F1E970B";
name = Bold;
paths = (
{
closed = 1;
nodes = (
"836.861 365.939 OFFCURVE",
"741.877 352.941 OFFCURVE",
"568.905 352.941 CURVE SMOOTH",
"484.919 352.941 OFFCURVE",
"423.929 364.939 OFFCURVE",
"388.935 385.936 CURVE",
"359.94 408.932 OFFCURVE",
"337.944 477.92 OFFCURVE",
"326.946 585.902 CURVE",
"327.945 642.893 OFFCURVE",
"333.944 692.885 OFFCURVE",
"344.943 737.877 CURVE SMOOTH",
"366.939 825.863 OFFCURVE",
"422.93 936.844 OFFCURVE",
"581.903 936.844 CURVE SMOOTH",
"662.89 936.844 OFFCURVE",
"726.879 904.849 OFFCURVE",
"770.872 844.859 CURVE SMOOTH",
"813.865 783.87 OFFCURVE",
"836.861 694.884 OFFCURVE",
"836.861 581.903 CURVE SMOOTH"
);
},
{
closed = 1;
nodes = (
"932.845 1106.82 OFFCURVE",
"930.845 1091.82 OFFCURVE",
"929.845 1074.82 CURVE",
"927.846 1057.82 OFFCURVE",
"925.846 1040.83 OFFCURVE",
"922.846 1023.83 CURVE",
"846.859 1107.82 OFFCURVE",
"746.876 1144.81 OFFCURVE",
"613.898 1144.81 CURVE SMOOTH",
"332.945 1144.81 OFFCURVE",
"149.975 911.848 OFFCURVE",
"149.975 571.905 CURVE SMOOTH",
"149.975 232.961 OFFCURVE",
"332.945 0 OFFCURVE",
"613.898 0 CURVE SMOOTH",
"697.884 0 OFFCURVE",
"770.872 16.9972 OFFCURVE",
"831.862 49.9917 CURVE SMOOTH",
"850.858 60.9898 OFFCURVE",
"868.855 72.9879 OFFCURVE",
"883.853 83.986 CURVE",
"866.856 47.992 OFFCURVE",
"844.859 9.99834 OFFCURVE",
"813.865 -26 CURVE SMOOTH",
"766.872 -77 OFFCURVE",
"692.885 -107 OFFCURVE",
"593.901 -107 CURVE SMOOTH",
"497.917 -107 OFFCURVE",
"389.935 -75 OFFCURVE",
"256.957 -2 CURVE",
"256.957 -397 LINE",
"377.937 -441 OFFCURVE",
"495.917 -463 OFFCURVE",
"620.897 -463 CURVE SMOOTH",
"793.868 -463 OFFCURVE",
"924.846 -415 OFFCURVE",
"1011.83 -320 CURVE SMOOTH",
"1095.82 -229 OFFCURVE",
"1140.81 -57 OFFCURVE",
"1148.81 165.972 CURVE SMOOTH",
"1177.8 1119.81 LINE",
"933.845 1119.81 LINE"
);
}
);
width = 1327;
}
);
unicode = 0067;
},
{
glyphname = h;
layers = (
{
layerId = "C85A2332-1B89-4390-846F-6AFC3F1E970B";
name = Bold;
paths = (
{
closed = 1;
nodes = (
"1119.81 982.836 OFFCURVE",
"982.836 1144.81 OFFCURVE",
"717.88 1144.81 CURVE SMOOTH",
"594.901 1144.81 OFFCURVE",
"499.917 1108.82 OFFCURVE",
"419.93 1028.83 CURVE",
"436.927 1526.75 LINE",
"188.969 1526.75 LINE",
"149.975 0 LINE",
"436.927 0 LINE",
"433.928 98.9835 OFFCURVE",
"430.928 205.966 OFFCURVE",
"426.929 313.948 CURVE SMOOTH",
"422.93 421.93 OFFCURVE",
"419.93 529.912 OFFCURVE",
"416.931 628.895 CURVE",
"416.931 812.865 OFFCURVE",
"517.914 939.844 OFFCURVE",
"678.887 939.844 CURVE SMOOTH",
"807.866 939.844 OFFCURVE",
"873.855 837.861 OFFCURVE",
"873.855 662.89 CURVE",
"873.855 663.89 LINE",
"853.858 0 LINE",
"1139.81 0 LINE",
"1119.81 668.889 LINE",
"1119.81 667.889 LINE"
);
}
);
width = 1289;
}
);
unicode = 0068;
},
{
glyphname = i;
layers = (
{
layerId = "C85A2332-1B89-4390-846F-6AFC3F1E970B";
name = Bold;
paths = (
{
closed = 1;
nodes = (
"388.935 1119.81 LINE",
"160.973 1119.81 LINE",
"151.975 0 LINE",
"397.934 0 LINE"
);
},
{
closed = 1;
nodes = (
"387.935 1526.75 LINE",
"161.973 1526.75 LINE",
"149.975 1234.79 LINE",
"399.933 1234.79 LINE"
);
}
);
width = 549;
}
);
unicode = 0069;
},
{
glyphname = j;
layers = (
{
layerId = "C85A2332-1B89-4390-846F-6AFC3F1E970B";
name = Bold;
paths = (
{
closed = 1;
nodes = (
"399.933 83.986 OFFCURVE",
"397.934 48.9918 OFFCURVE",
"392.935 22.9962 CURVE SMOOTH",
"387.935 -4 OFFCURVE",
"380.937 -22 OFFCURVE",
"371.938 -32 CURVE SMOOTH",
"354.941 -51 OFFCURVE",
"317.947 -63 OFFCURVE",
"262.956 -66 CURVE",
"154.974 -65 LINE",
"149.975 -398 LINE",
"281.953 -399 LINE",
"404.933 -395 OFFCURVE",
"495.917 -361 OFFCURVE",
"553.908 -297 CURVE SMOOTH",
"610.898 -236 OFFCURVE",
"641.893 -131 OFFCURVE",
"645.893 9.99834 CURVE SMOOTH",
"683.886 1111.81 LINE",
"447.925 1115.81 LINE",
"400.933 126.979 LINE SMOOTH"
);
},
{
closed = 1;
nodes = (
"712.881 1526.75 LINE",
"486.919 1526.75 LINE",
"474.921 1234.79 LINE",
"724.879 1234.79 LINE"
);
}
);
width = 874;
}
);
unicode = 006A;
},
{
glyphname = k;
layers = (
{
layerId = "C85A2332-1B89-4390-846F-6AFC3F1E970B";
name = Bold;
paths = (
{
closed = 1;
nodes = (
"432.928 416.931 LINE",
"771.872 0 LINE",
"1236.79 0 LINE",
"1190.8 44.9925 OFFCURVE",
"1141.81 91.9847 OFFCURVE",
"1088.82 142.976 CURVE SMOOTH",
"1035.83 193.968 OFFCURVE",
"982.836 244.959 OFFCURVE",
"928.845 296.951 CURVE SMOOTH",
"874.854 348.942 OFFCURVE",
"821.863 400.933 OFFCURVE",
"768.872 451.925 CURVE SMOOTH",
"715.881 502.916 OFFCURVE",
"664.889 550.908 OFFCURVE",
"617.897 596.901 CURVE",
"1039.83 1119.81 LINE",
"725.879 1119.81 LINE",
"426.929 769.872 LINE",
"435.927 1526.75 LINE",
"188.969 1526.75 LINE",
"149.975 0 LINE",
"455.924 0 LINE"
);
}
);
width = 1386;
}
);
unicode = 006B;
},
{
glyphname = l;
layers = (
{
layerId = "C85A2332-1B89-4390-846F-6AFC3F1E970B";
name = Bold;
paths = (
{
closed = 1;
nodes = (
"522.913 286.952 LINE",
"406.932 286.952 LINE",
"406.932 1526.75 LINE",
"169.972 1526.75 LINE",
"149.975 0 LINE",
"522.913 0 LINE"
);
}
);
width = 672;
}
);
unicode = 006C;
},
{
glyphname = m;
layers = (
{
layerId = "C85A2332-1B89-4390-846F-6AFC3F1E970B";
name = Bold;
paths = (
{
closed = 1;
nodes = (
"873.855 1121.81 OFFCURVE",
"797.867 1144.81 OFFCURVE",
"714.881 1144.81 CURVE SMOOTH",
"598.9 1144.81 OFFCURVE",
"506.916 1112.81 OFFCURVE",
"431.928 1043.83 CURVE",
"438.927 1119.81 LINE",
"188.969 1119.81 LINE",
"149.975 0 LINE",
"454.924 0 LINE",
"451.925 98.9835 OFFCURVE",
"448.925 205.966 OFFCURVE",
"444.926 313.948 CURVE SMOOTH",
"440.927 421.93 OFFCURVE",
"437.927 529.912 OFFCURVE",
"434.928 628.895 CURVE",
"434.928 720.88 OFFCURVE",
"459.923 799.867 OFFCURVE",
"509.915 864.856 CURVE SMOOTH",
"557.907 927.846 OFFCURVE",
"617.897 958.84 OFFCURVE",
"693.885 958.84 CURVE SMOOTH",
"816.864 958.84 OFFCURVE",
"872.855 876.854 OFFCURVE",
"873.855 703.883 CURVE",
"804.866 0 LINE",
"1119.81 0 LINE",
"1130.81 626.896 LINE SMOOTH",
"1130.81 817.864 OFFCURVE",
"1219.8 948.842 OFFCURVE",
"1371.77 948.842 CURVE SMOOTH",
"1487.75 948.842 OFFCURVE",
"1522.75 876.854 OFFCURVE",
"1522.75 692.885 CURVE",
"1472.75 0 LINE",
"1789.7 0 LINE",
"1786.7 104.983 OFFCURVE",
"1783.7 218.964 OFFCURVE",
"1779.7 334.944 CURVE SMOOTH",
"1775.7 449.925 OFFCURVE",
"1772.7 563.906 OFFCURVE",
"1769.71 668.889 CURVE",
"1769.71 667.889 LINE",
"1769.71 819.864 OFFCURVE",
"1735.71 939.844 OFFCURVE",
"1671.72 1020.83 CURVE SMOOTH",
"1607.73 1101.82 OFFCURVE",
"1512.75 1144.81 OFFCURVE",
"1391.77 1144.81 CURVE SMOOTH",
"1212.8 1144.81 OFFCURVE",
"1124.81 1068.82 OFFCURVE",
"1049.83 960.84 CURVE",
"1022.83 1009.83 OFFCURVE",
"984.836 1049.83 OFFCURVE",
"937.844 1081.82 CURVE"
);
}
);
width = 1939;
}
);
unicode = 006D;
},
{
glyphname = n;
layers = (
{
layerId = "C85A2332-1B89-4390-846F-6AFC3F1E970B";
name = Bold;
paths = (
{
closed = 1;
nodes = (
"1121.81 973.838 OFFCURVE",
"986.836 1144.81 OFFCURVE",
"725.879 1144.81 CURVE SMOOTH",
"645.893 1144.81 OFFCURVE",
"575.904 1126.81 OFFCURVE",
"514.914 1093.82 CURVE",
"482.92 1074.82 OFFCURVE",
"453.924 1058.82 OFFCURVE",
"425.929 1039.83 CURVE",
"425.929 1128.81 LINE",
"179.97 1128.81 LINE",
"149.975 0 LINE",
"464.923 0 LINE",
"434.928 638.894 LINE",
"434.928 822.863 OFFCURVE",
"518.914 930.845 OFFCURVE",
"706.882 930.845 CURVE SMOOTH",
"833.861 930.845 OFFCURVE",
"881.853 845.859 OFFCURVE",
"881.853 673.888 CURVE",
"842.86 0 LINE",
"1167.81 0 LINE",
"1137.81 669.888 LINE SMOOTH"
);
}
);
width = 1317;
}
);
unicode = 006E;
},
{
glyphname = o;
layers = (
{
layerId = "C85A2332-1B89-4390-846F-6AFC3F1E970B";
name = Bold;
paths = (
{
closed = 1;
nodes = (
"823.863 943.843 OFFCURVE",
"926.846 813.865 OFFCURVE",
"926.846 588.902 CURVE SMOOTH",
"926.846 481.92 OFFCURVE",
"905.849 414.931 OFFCURVE",
"863.856 387.935 CURVE",
"816.864 360.94 OFFCURVE",
"749.875 343.943 OFFCURVE",
"666.889 343.943 CURVE SMOOTH",
"494.918 343.943 OFFCURVE",
"404.933 372.938 OFFCURVE",
"404.933 588.902 CURVE SMOOTH",
"404.933 812.865 OFFCURVE",
"507.915 943.843 OFFCURVE",
"666.889 943.843 CURVE SMOOTH"
);
},
{
closed = 1;
nodes = (
"503.916 1144.81 OFFCURVE",
"376.937 1091.82 OFFCURVE",
"285.952 986.836 CURVE SMOOTH",
"193.968 881.853 OFFCURVE",
"149.975 739.877 OFFCURVE",
"149.975 558.907 CURVE SMOOTH",
"149.975 377.937 OFFCURVE",
"193.968 235.961 OFFCURVE",
"285.952 131.978 CURVE SMOOTH",
"376.937 25.9957 OFFCURVE",
"503.916 -27 OFFCURVE",
"666.889 -27 CURVE SMOOTH",
"987.836 -27 OFFCURVE",
"1183.8 198.967 OFFCURVE",
"1183.8 558.907 CURVE SMOOTH",
"1183.8 918.847 OFFCURVE",
"987.836 1144.81 OFFCURVE",
"666.889 1144.81 CURVE SMOOTH"
);
}
);
width = 1333;
}
);
unicode = 006F;
},
{
glyphname = p;
layers = (
{
layerId = "C85A2332-1B89-4390-846F-6AFC3F1E970B";
name = Bold;
paths = (
{
closed = 1;
nodes = (
"489.918 10.9982 OFFCURVE",
"588.902 -27 OFFCURVE",
"713.881 -27 CURVE SMOOTH",
"989.835 -27 OFFCURVE",
"1178.8 213.964 OFFCURVE",
"1178.8 558.907 CURVE SMOOTH",
"1178.8 903.85 OFFCURVE",
"989.835 1144.81 OFFCURVE",
"713.881 1144.81 CURVE SMOOTH",
"598.9 1144.81 OFFCURVE",
"504.916 1112.81 OFFCURVE",
"432.928 1048.83 CURVE",
"438.927 1119.81 LINE",
"188.969 1119.81 LINE",
"149.975 -398 LINE",
"396.934 -398 LINE",
"413.931 85.9857 LINE"
);
},
{
closed = 1;
nodes = (
"994.834 360.94 OFFCURVE",
"915.848 329.945 OFFCURVE",
"748.875 329.945 CURVE SMOOTH",
"583.903 329.945 OFFCURVE",
"484.919 361.94 OFFCURVE",
"484.919 588.902 CURVE SMOOTH",
"484.919 706.882 OFFCURVE",
"508.915 798.867 OFFCURVE",
"555.907 863.856 CURVE",
"554.908 862.856 LINE",
"601.9 925.846 OFFCURVE",
"662.89 956.841 OFFCURVE",
"739.877 956.841 CURVE SMOOTH",
"816.864 956.841 OFFCURVE",
"877.854 925.846 OFFCURVE",
"922.846 862.856 CURVE SMOOTH",
"969.839 797.867 OFFCURVE",
"994.834 707.882 OFFCURVE",
"994.834 588.902 CURVE SMOOTH"
);
}
);
width = 1328;
}
);
unicode = 0070;
},
{
glyphname = q;
layers = (
{
layerId = "C85A2332-1B89-4390-846F-6AFC3F1E970B";
name = Bold;
paths = (
{
closed = 1;
nodes = (
"337.944 701.883 OFFCURVE",
"361.94 791.868 OFFCURVE",
"408.932 858.857 CURVE",
"407.932 857.857 LINE",
"454.924 919.847 OFFCURVE",
"515.914 950.842 OFFCURVE",
"592.901 950.842 CURVE SMOOTH",
"669.888 950.842 OFFCURVE",
"730.878 919.847 OFFCURVE",
"777.871 857.857 CURVE",
"824.863 790.868 OFFCURVE",
"848.859 699.883 OFFCURVE",
"848.859 582.903 CURVE SMOOTH",
"848.859 470.922 OFFCURVE",
"827.862 401.933 OFFCURVE",
"784.869 376.937 CURVE SMOOTH",
"737.877 347.942 OFFCURVE",
"671.888 333.944 OFFCURVE",
"587.902 333.944 CURVE SMOOTH",
"422.93 333.944 OFFCURVE",
"337.944 358.94 OFFCURVE",
"337.944 582.903 CURVE SMOOTH"
);
},
{
closed = 1;
nodes = (
"1127.81 12.9978 OFFCURVE",
"1123.81 68.9885 OFFCURVE",
"1124.81 83.986 CURVE SMOOTH",
"1177.8 1119.81 LINE",
"934.844 1119.81 LINE",
"931.845 1092.82 OFFCURVE",
"927.846 1058.82 OFFCURVE",
"922.846 1023.83 CURVE",
"846.859 1107.82 OFFCURVE",
"747.876 1144.81 OFFCURVE",
"614.898 1144.81 CURVE SMOOTH",
"335.944 1144.81 OFFCURVE",
"149.975 905.849 OFFCURVE",
"149.975 558.907 CURVE SMOOTH",
"149.975 211.965 OFFCURVE",
"335.944 -27 OFFCURVE",
"614.898 -27 CURVE SMOOTH",
"741.877 -27 OFFCURVE",
"832.861 2.9995 OFFCURVE",
"908.849 78.9869 CURVE",
"892.851 -398 LINE",
"1105.82 -398 LINE SMOOTH",
"1128.81 -398 OFFCURVE",
"1148.81 -395 OFFCURVE",
"1209.8 -379 CURVE SMOOTH",
"1394.77 -329 LINE",
"1339.78 -301 OFFCURVE",
"1276.79 -203 OFFCURVE",
"1223.8 -126 CURVE SMOOTH",
"1132.81 5.999 LINE SMOOTH"
);
}
);
width = 1544;
}
);
unicode = 0071;
},
{
glyphname = r;
layers = (
{
layerId = "C85A2332-1B89-4390-846F-6AFC3F1E970B";
name = Bold;
paths = (
{
closed = 1;
nodes = (
"768.872 1121.81 OFFCURVE",
"738.877 1126.81 OFFCURVE",
"713.881 1126.81 CURVE SMOOTH",
"624.896 1126.81 OFFCURVE",
"547.909 1107.82 OFFCURVE",
"483.919 1069.82 CURVE",
"483.919 1070.82 LINE",
"473.921 1063.82 OFFCURVE",
"463.923 1057.82 OFFCURVE",
"453.924 1052.82 CURVE SMOOTH",
"443.926 1047.83 OFFCURVE",
"434.928 1041.83 OFFCURVE",
"426.929 1036.83 CURVE",
"426.929 1110.82 LINE",
"199.967 1110.82 LINE",
"149.975 0 LINE",
"446.926 0 LINE",
"426.929 560.907 LINE",
"426.929 663.89 OFFCURVE",
"445.926 745.876 OFFCURVE",
"484.919 806.866 CURVE",
"484.919 805.866 LINE",
"520.913 860.857 OFFCURVE",
"579.904 888.852 OFFCURVE",
"662.89 888.852 CURVE SMOOTH",
"686.886 888.852 OFFCURVE",
"707.882 888.852 OFFCURVE",
"732.878 881.853 CURVE SMOOTH",
"757.874 874.854 OFFCURVE",
"785.869 862.856 OFFCURVE",
"828.862 837.861 CURVE",
"827.862 1110.82 LINE"
);
}
);
width = 978;
}
);
unicode = 0072;
},
{
glyphname = s;
layers = (
{
layerId = "C85A2332-1B89-4390-846F-6AFC3F1E970B";
name = Bold;
paths = (
{
closed = 1;
nodes = (
"851.858 1123.81 OFFCURVE",
"728.879 1144.81 OFFCURVE",
"596.901 1144.81 CURVE SMOOTH",
"313.948 1144.81 OFFCURVE",
"157.974 1022.83 OFFCURVE",
"157.974 799.867 CURVE SMOOTH",
"157.974 614.898 OFFCURVE",
"264.956 532.911 OFFCURVE",
"488.919 487.919 CURVE",
"487.919 487.919 LINE",
"547.909 473.921 LINE SMOOTH",
"644.893 452.925 OFFCURVE",
"698.884 435.927 OFFCURVE",
"709.882 424.929 CURVE SMOOTH",
"724.879 408.932 OFFCURVE",
"737.877 386.936 OFFCURVE",
"753.875 359.94 CURVE",
"752.875 328.945 OFFCURVE",
"735.878 304.949 OFFCURVE",
"704.883 289.952 CURVE SMOOTH",
"673.888 273.954 OFFCURVE",
"624.896 265.956 OFFCURVE",
"557.907 265.956 CURVE SMOOTH",
"443.926 265.956 OFFCURVE",
"307.949 306.949 OFFCURVE",
"149.975 388.935 CURVE",
"149.975 48.9918 LINE",
"304.949 -2 OFFCURVE",
"439.927 -27 OFFCURVE",
"554.908 -27 CURVE SMOOTH",
"838.86 -27 OFFCURVE",
"1023.83 106.982 OFFCURVE",
"1023.83 325.946 CURVE SMOOTH",
"1023.83 421.93 OFFCURVE",
"990.835 496.917 OFFCURVE",
"933.845 547.909 CURVE SMOOTH",
"877.854 594.901 OFFCURVE",
"783.87 635.894 OFFCURVE",
"655.891 662.89 CURVE",
"646.892 663.89 OFFCURVE",
"636.894 665.889 OFFCURVE",
"627.896 668.889 CURVE SMOOTH",
"617.897 671.888 OFFCURVE",
"607.899 673.888 OFFCURVE",
"598.9 675.888 CURVE SMOOTH",
"514.914 694.884 OFFCURVE",
"452.925 716.881 OFFCURVE",
"424.929 737.877 CURVE",
"425.929 737.877 LINE",
"400.933 756.874 OFFCURVE",
"388.935 783.87 OFFCURVE",
"388.935 816.864 CURVE SMOOTH",
"388.935 897.851 OFFCURVE",
"469.922 944.843 OFFCURVE",
"616.897 944.843 CURVE SMOOTH",
"721.88 944.843 OFFCURVE",
"838.86 911.848 OFFCURVE",
"967.839 846.859 CURVE",
"967.839 1076.82 LINE"
);
}
);
width = 1173;
}
);
unicode = 0073;
},
{
glyphname = t;
layers = (
{
layerId = "C85A2332-1B89-4390-846F-6AFC3F1E970B";
name = Bold;
paths = (
{
closed = 1;
nodes = (
"149.975 1119.81 LINE",
"149.975 911.848 LINE",
"275.954 911.848 LINE",
"266.956 381.936 LINE SMOOTH",
"266.956 97.9837 OFFCURVE",
"378.937 0 OFFCURVE",
"662.89 0 CURVE SMOOTH",
"876.854 0 LINE",
"876.854 329.945 LINE",
"662.89 329.945 LINE SMOOTH",
"601.9 329.945 OFFCURVE",
"562.906 338.944 OFFCURVE",
"547.909 355.941 CURVE",
"530.912 371.938 OFFCURVE",
"522.913 417.93 OFFCURVE",
"522.913 492.918 CURVE SMOOTH",
"532.911 911.848 LINE",
"773.871 911.848 LINE",
"773.871 1119.81 LINE",
"533.911 1119.81 LINE",
"542.91 1378.77 LINE",
"285.952 1378.77 LINE",
"276.954 1119.81 LINE"
);
}
);
width = 1026;
}
);
unicode = 0074;
},
{
glyphname = u;
layers = (
{
layerId = "C85A2332-1B89-4390-846F-6AFC3F1E970B";
name = Bold;
paths = (
{
closed = 1;
nodes = (
"149.975 136.977 OFFCURVE",
"288.952 -27 OFFCURVE",
"553.908 -27 CURVE SMOOTH",
"670.888 -27 OFFCURVE",
"768.872 9.99834 OFFCURVE",
"845.859 84.9859 CURVE",
"840.86 0 LINE",
"1089.82 0 LINE",
"1109.82 1119.81 LINE",
"835.861 1119.81 LINE",
"824.863 641.893 LINE",
"817.864 550.908 OFFCURVE",
"793.868 472.921 OFFCURVE",
"748.875 421.93 CURVE SMOOTH",
"705.883 370.938 OFFCURVE",
"643.893 345.942 OFFCURVE",
"561.906 345.942 CURVE SMOOTH",
"434.928 345.942 OFFCURVE",
"378.937 436.927 OFFCURVE",
"367.939 607.899 CURVE",
"367.939 1119.81 LINE",
"149.975 1119.81 LINE",
"149.975 449.925 LINE SMOOTH"
);
}
);
width = 1259;
}
);
unicode = 0075;
},
{
glyphname = v;
layers = (
{
layerId = "C85A2332-1B89-4390-846F-6AFC3F1E970B";
name = Bold;
paths = (
{
closed = 1;
nodes = (
"1274.79 1119.81 LINE",
"1013.83 1119.81 LINE",
"965.839 1005.83 OFFCURVE",
"915.848 888.852 OFFCURVE",
"863.856 767.872 CURVE SMOOTH",
"811.865 646.892 OFFCURVE",
"760.873 528.912 OFFCURVE",
"711.882 412.931 CURVE",
"410.932 1119.81 LINE",
"149.975 1119.81 LINE",
"559.907 0 LINE",
"865.856 0 LINE"
);
}
);
width = 1424;
}
);
unicode = 0076;
},
{
glyphname = w;
layers = (
{
layerId = "C85A2332-1B89-4390-846F-6AFC3F1E970B";
name = Bold;
paths = (
{
closed = 1;
nodes = (
"899.85 411.931 LINE",
"1062.82 0 LINE",
"1356.77 0 LINE",
"1649.73 1119.81 LINE",
"1401.77 1119.81 LINE",
"1369.77 1012.83 OFFCURVE",
"1337.78 901.85 OFFCURVE",
"1304.78 788.869 CURVE SMOOTH",
"1271.79 674.888 OFFCURVE",
"1238.79 562.906 OFFCURVE",
"1206.8 452.925 CURVE",
"1043.83 774.871 LINE",
"756.874 774.871 LINE",
"594.901 452.925 LINE",
"398.934 1119.81 LINE",
"149.975 1119.81 LINE",
"442.926 0 LINE",
"727.879 0 LINE"
);
}
);
width = 1799;
}
);
unicode = 0077;
},
{
glyphname = x;
layers = (
{
layerId = "C85A2332-1B89-4390-846F-6AFC3F1E970B";
name = Bold;
paths = (
{
closed = 1;
nodes = (
"1002.83 1054.82 OFFCURVE",
"953.841 988.835 OFFCURVE",
"902.85 920.847 CURVE SMOOTH",
"851.858 851.858 OFFCURVE",
"802.866 784.869 OFFCURVE",
"754.874 719.88 CURVE",
"486.919 1119.81 LINE",
"214.964 1119.81 LINE",
"598.9 539.91 LINE",
"149.975 0 LINE",
"526.912 0 LINE",
"763.873 334.944 LINE",
"984.836 0 LINE",
"1361.77 0 LINE",
"1328.78 38.9935 OFFCURVE",
"1293.78 81.9864 OFFCURVE",
"1256.79 126.979 CURVE SMOOTH",
"1219.8 171.971 OFFCURVE",
"1181.8 216.964 OFFCURVE",
"1142.81 263.956 CURVE SMOOTH",
"1103.82 309.948 OFFCURVE",
"1065.82 355.941 OFFCURVE",
"1027.83 401.933 CURVE SMOOTH",
"989.835 446.926 OFFCURVE",
"953.841 489.918 OFFCURVE",
"920.847 529.912 CURVE",
"1311.78 1119.81 LINE",
"1049.83 1119.81 LINE"
);
}
);
width = 1511;
}
);
unicode = 0078;
},
{
glyphname = y;
layers = (
{
layerId = "C85A2332-1B89-4390-846F-6AFC3F1E970B";
name = Bold;
paths = (
{
closed = 1;
nodes = (
"754.874 552.908 LINE",
"409.932 1119.81 LINE",
"149.975 1119.81 LINE",
"186.969 1040.83 OFFCURVE",
"224.963 959.84 OFFCURVE",
"263.956 875.854 CURVE SMOOTH",
"341.943 707.882 OFFCURVE",
"420.93 536.911 OFFCURVE",
"499.917 368.939 CURVE SMOOTH",
"538.91 284.953 OFFCURVE",
"576.904 203.966 OFFCURVE",
"613.898 124.979 CURVE",
"602.9 101.983 OFFCURVE",
"591.901 79.9867 OFFCURVE",
"580.903 58.9902 CURVE SMOOTH",
"569.905 37.9937 OFFCURVE",
"557.907 15.9973 OFFCURVE",
"546.909 -7 CURVE",
"519.913 -42 OFFCURVE",
"492.918 -70 OFFCURVE",
"469.922 -90 CURVE",
"450.925 -105 OFFCURVE",
"420.93 -114 OFFCURVE",
"383.936 -114 CURVE SMOOTH",
"226.962 -114 LINE",
"226.962 -416 LINE",
"419.93 -416 LINE SMOOTH",
"591.901 -416 OFFCURVE",
"693.885 -359 OFFCURVE",
"818.864 -74 CURVE",
"1278.79 1119.81 LINE",
"1019.83 1119.81 LINE"
);
}
);
width = 1428;
}
);
unicode = 0079;
},
{
glyphname = z;
layers = (
{
layerId = "C85A2332-1B89-4390-846F-6AFC3F1E970B";
name = Bold;
paths = (
{
closed = 1;
nodes = (
"149.975 301.95 LINE",
"149.975 0 LINE",
"1062.82 0 LINE",
"1062.82 304.949 LINE",
"528.912 304.949 LINE",
"1072.82 910.848 LINE",
"1072.82 1119.81 LINE",
"191.968 1119.81 LINE",
"191.968 916.847 LINE",
"762.873 916.847 LINE"
);
}
);
width = 1222;
}
);
unicode = 007A;
},
{
glyphname = braceleft;
layers = (
{
layerId = "C85A2332-1B89-4390-846F-6AFC3F1E970B";
name = Bold;
paths = (
{
closed = 1;
nodes = (
"773.871 -57 OFFCURVE",
"726.879 -46 OFFCURVE",
"711.882 -27 CURVE",
"692.885 -7 OFFCURVE",
"683.886 32.9945 OFFCURVE",
"678.887 85.9857 CURVE",
"682.886 315.947 LINE",
"677.887 406.932 OFFCURVE",
"661.89 476.921 OFFCURVE",
"634.894 526.912 CURVE",
"634.894 525.912 LINE",
"617.897 556.907 OFFCURVE",
"594.901 581.903 OFFCURVE",
"565.906 600.9 CURVE",
"596.901 617.897 OFFCURVE",
"621.896 640.893 OFFCURVE",
"640.893 669.888 CURVE SMOOTH",
"673.888 720.88 OFFCURVE",
"691.885 798.867 OFFCURVE",
"693.885 901.85 CURVE SMOOTH",
"697.884 1133.81 LINE",
"697.884 1132.81 LINE",
"701.883 1289.79 OFFCURVE",
"705.883 1295.78 OFFCURVE",
"876.854 1306.78 CURVE",
"975.838 1305.78 LINE",
"979.837 1513.75 LINE",
"882.853 1514.75 LINE SMOOTH",
"554.908 1506.75 OFFCURVE",
"454.924 1437.76 OFFCURVE",
"449.925 1140.81 CURVE SMOOTH",
"446.926 916.847 LINE SMOOTH",
"444.926 834.861 OFFCURVE",
"430.928 780.87 OFFCURVE",
"404.933 755.874 CURVE SMOOTH",
"377.937 730.878 OFFCURVE",
"323.946 716.881 OFFCURVE",
"243.959 711.882 CURVE",
"151.975 712.881 LINE",
"149.975 504.916 LINE",
"154.974 504.916 OFFCURVE",
"160.973 504.916 OFFCURVE",
"169.972 504.916 CURVE SMOOTH",
"177.97 504.916 OFFCURVE",
"186.969 504.916 OFFCURVE",
"195.967 504.916 CURVE",
"204.966 503.916 OFFCURVE",
"213.964 503.916 OFFCURVE",
"222.963 503.916 CURVE SMOOTH",
"231.961 503.916 OFFCURVE",
"237.96 503.916 OFFCURVE",
"242.96 503.916 CURVE SMOOTH",
"397.934 499.917 OFFCURVE",
"426.929 458.924 OFFCURVE",
"434.928 285.952 CURVE",
"431.928 64.9892 LINE",
"435.927 -80 OFFCURVE",
"468.922 -183 OFFCURVE",
"520.913 -238 CURVE",
"579.904 -289 OFFCURVE",
"692.885 -321 OFFCURVE",
"852.858 -324 CURVE SMOOTH",
"948.842 -325 LINE",
"950.842 -60 LINE",
"850.858 -59 LINE SMOOTH"
);
}
);
width = 1129;
}
);
unicode = 007B;
},
{
glyphname = bar;
layers = (
{
layerId = "C85A2332-1B89-4390-846F-6AFC3F1E970B";
name = Bold;
paths = (
{
closed = 1;
nodes = (
"149.975 -451 LINE",
"402.933 -451 LINE",
"431.928 565.906 LINE",
"199.967 565.906 LINE"
);
},
{
closed = 1;
nodes = (
"236.961 1534.74 LINE",
"196.967 590.902 LINE",
"430.928 590.902 LINE",
"470.922 1534.74 LINE"
);
}
);
width = 620;
}
);
unicode = 007C;
},
{
glyphname = braceright;
layers = (
{
layerId = "C85A2332-1B89-4390-846F-6AFC3F1E970B";
name = Bold;
paths = (
{
closed = 1;
nodes = (
"411.931 -312 OFFCURVE",
"523.913 -286 OFFCURVE",
"580.903 -233 CURVE",
"579.904 -233 LINE",
"640.893 -180 OFFCURVE",
"671.888 -79 OFFCURVE",
"671.888 69.9883 CURVE SMOOTH",
"671.888 292.951 LINE SMOOTH",
"671.888 461.923 OFFCURVE",
"711.882 504.916 OFFCURVE",
"867.856 504.916 CURVE SMOOTH",
"962.84 504.916 LINE",
"962.84 712.881 LINE",
"867.856 712.881 LINE SMOOTH",
"790.868 712.881 OFFCURVE",
"738.877 726.879 OFFCURVE",
"711.882 754.874 CURVE",
"711.882 753.875 LINE",
"684.886 782.87 OFFCURVE",
"671.888 838.86 OFFCURVE",
"671.888 921.847 CURVE SMOOTH",
"671.888 1145.81 LINE SMOOTH",
"671.888 1293.78 OFFCURVE",
"640.893 1394.77 OFFCURVE",
"579.904 1448.76 CURVE",
"580.903 1448.76 LINE",
"522.913 1500.75 OFFCURVE",
"410.932 1526.75 OFFCURVE",
"245.959 1526.75 CURVE SMOOTH",
"149.975 1526.75 LINE",
"149.975 1318.78 LINE",
"252.958 1318.78 LINE SMOOTH",
"403.933 1318.78 OFFCURVE",
"424.929 1297.78 OFFCURVE",
"424.929 1141.81 CURVE SMOOTH",
"424.929 910.848 LINE SMOOTH",
"424.929 805.866 OFFCURVE",
"440.927 727.879 OFFCURVE",
"472.921 677.887 CURVE SMOOTH",
"491.918 649.892 OFFCURVE",
"514.914 626.896 OFFCURVE",
"546.909 607.899 CURVE",
"514.914 588.902 OFFCURVE",
"491.918 565.906 OFFCURVE",
"472.921 537.91 CURVE SMOOTH",
"440.927 487.919 OFFCURVE",
"424.929 413.931 OFFCURVE",
"424.929 314.948 CURVE SMOOTH",
"424.929 82.9862 LINE SMOOTH",
"424.929 -74 OFFCURVE",
"405.932 -93 OFFCURVE",
"252.958 -93 CURVE SMOOTH",
"149.975 -93 LINE",
"149.975 -312 LINE",
"245.959 -312 LINE SMOOTH"
);
}
);
width = 1112;
}
);
unicode = 007D;
},
{
glyphname = asciitilde;
layers = (
{
layerId = "C85A2332-1B89-4390-846F-6AFC3F1E970B";
name = Bold;
paths = (
{
closed = 1;
nodes = (
"1257.79 744.876 OFFCURVE",
"1145.81 687.885 OFFCURVE",
"1048.83 687.885 CURVE SMOOTH",
"992.835 687.885 OFFCURVE",
"922.846 706.882 OFFCURVE",
"831.862 741.877 CURVE",
"828.862 742.876 OFFCURVE",
"824.863 744.876 OFFCURVE",
"820.863 746.876 CURVE",
"816.864 747.876 OFFCURVE",
"812.865 748.875 OFFCURVE",
"809.865 749.875 CURVE",
"795.868 755.874 LINE SMOOTH",
"698.884 794.868 OFFCURVE",
"614.898 814.864 OFFCURVE",
"542.91 814.864 CURVE SMOOTH",
"478.92 814.864 OFFCURVE",
"416.931 802.866 OFFCURVE",
"353.941 777.871 CURVE SMOOTH",
"289.952 752.875 OFFCURVE",
"222.963 713.881 OFFCURVE",
"149.975 657.891 CURVE",
"149.975 363.939 LINE",
"178.97 388.935 OFFCURVE",
"223.963 425.929 OFFCURVE",
"267.955 461.923 CURVE SMOOTH",
"311.948 497.917 OFFCURVE",
"353.941 531.911 OFFCURVE",
"380.937 551.908 CURVE SMOOTH",
"427.929 586.902 OFFCURVE",
"473.921 603.899 OFFCURVE",
"520.913 603.899 CURVE SMOOTH",
"572.905 603.899 OFFCURVE",
"646.892 579.904 OFFCURVE",
"739.877 528.912 CURVE",
"759.874 522.913 LINE",
"771.872 517.914 LINE",
"867.856 459.923 OFFCURVE",
"952.841 430.928 OFFCURVE",
"1027.83 430.928 CURVE SMOOTH",
"1094.82 430.928 OFFCURVE",
"1158.81 451.925 OFFCURVE",
"1221.8 492.918 CURVE",
"1221.8 491.918 LINE",
"1249.79 508.915 OFFCURVE",
"1282.79 532.911 OFFCURVE",
"1317.78 557.907 CURVE SMOOTH",
"1352.77 581.903 OFFCURVE",
"1388.77 608.899 OFFCURVE",
"1420.76 633.894 CURVE",
"1420.76 877.854 LINE"
);
}
);
width = 1570;
}
);
unicode = 007E;
},
{
glyphname = exclamdown;
layers = (
{
layerId = "C85A2332-1B89-4390-846F-6AFC3F1E970B";
name = Bold;
paths = (
{
closed = 1;
nodes = (
"159.973 1137.81 LINE",
"461.923 1137.81 LINE",
"461.923 1467.76 LINE",
"159.973 1467.76 LINE"
);
},
{
closed = 1;
nodes = (
"181.97 1018.83 LINE",
"159.973 649.892 LINE",
"149.975 0 LINE",
"471.921 0 LINE",
"461.923 649.892 LINE",
"440.927 1018.83 LINE"
);
}
);
width = 621;
}
);
unicode = 00A1;
},
{
glyphname = cent;
layers = (
{
layerId = "C85A2332-1B89-4390-846F-6AFC3F1E970B";
name = Bold;
paths = (
{
closed = 1;
nodes = (
"556.907 285.952 OFFCURVE",
"505.916 313.948 OFFCURVE",
"469.922 356.941 CURVE",
"470.922 356.941 LINE",
"427.929 405.932 OFFCURVE",
"407.932 478.92 OFFCURVE",
"406.932 553.908 CURVE",
"410.932 654.891 OFFCURVE",
"432.928 740.877 OFFCURVE",
"471.921 805.866 CURVE SMOOTH",
"510.915 869.855 OFFCURVE",
"562.906 913.848 OFFCURVE",
"629.895 932.845 CURVE",
"616.897 270.955 LINE"
);
},
{
closed = 1;
nodes = (
"971.838 1093.82 OFFCURVE",
"887.852 1117.81 OFFCURVE",
"803.866 1128.81 CURVE",
"807.866 1400.77 LINE",
"637.894 1402.77 LINE",
"636.894 1360.77 OFFCURVE",
"636.894 1315.78 OFFCURVE",
"635.894 1268.79 CURVE SMOOTH",
"634.894 1221.8 OFFCURVE",
"633.894 1175.8 OFFCURVE",
"632.895 1131.81 CURVE",
"484.919 1114.81 OFFCURVE",
"374.938 1060.82 OFFCURVE",
"289.952 964.839 CURVE SMOOTH",
"200.967 864.856 OFFCURVE",
"152.975 731.878 OFFCURVE",
"149.975 559.907 CURVE SMOOTH",
"147.975 389.935 OFFCURVE",
"189.968 252.958 OFFCURVE",
"275.954 148.975 CURVE SMOOTH",
"358.94 51.9913 OFFCURVE",
"470.922 -7 OFFCURVE",
"612.898 -27 CURVE",
"608.899 -301 LINE",
"777.871 -302 LINE",
"778.87 -261 OFFCURVE",
"779.87 -216 OFFCURVE",
"780.87 -169 CURVE SMOOTH",
"781.87 -122 OFFCURVE",
"781.87 -77 OFFCURVE",
"782.87 -34 CURVE",
"870.855 -23 OFFCURVE",
"955.841 0 OFFCURVE",
"1043.83 36.9938 CURVE",
"1049.83 356.941 LINE",
"945.843 304.949 OFFCURVE",
"862.856 272.955 OFFCURVE",
"787.869 260.957 CURVE",
"799.867 938.844 LINE",
"866.856 929.845 OFFCURVE",
"946.842 894.851 OFFCURVE",
"1058.82 830.862 CURVE",
"1060.82 1050.83 LINE"
);
}
);
width = 1210;
}
);
unicode = 00A2;
},
{
glyphname = sterling;
layers = (
{
layerId = "C85A2332-1B89-4390-846F-6AFC3F1E970B";
name = Bold;
paths = (
{
closed = 1;
nodes = (
"1054.82 1453.76 OFFCURVE",
"943.843 1480.75 OFFCURVE",
"862.856 1481.75 CURVE",
"706.882 1477.75 OFFCURVE",
"591.901 1436.76 OFFCURVE",
"516.914 1357.77 CURVE SMOOTH",
"441.926 1280.79 OFFCURVE",
"401.933 1155.81 OFFCURVE",
"397.934 982.836 CURVE SMOOTH",
"391.935 797.867 LINE",
"205.966 800.867 LINE",
"201.966 610.898 LINE",
"386.936 607.899 LINE",
"385.936 544.909 OFFCURVE",
"384.936 491.918 OFFCURVE",
"382.936 439.927 CURVE SMOOTH",
"380.937 386.936 OFFCURVE",
"378.937 334.944 OFFCURVE",
"377.937 275.954 CURVE",
"157.974 280.953 LINE",
"149.975 0.999834 LINE",
"1151.81 -17 LINE",
"1158.81 262.956 LINE",
"638.894 272.955 LINE",
"639.893 333.944 OFFCURVE",
"642.893 387.935 OFFCURVE",
"644.893 440.927 CURVE SMOOTH",
"646.892 492.918 OFFCURVE",
"647.892 544.909 OFFCURVE",
"648.892 603.899 CURVE",
"1013.83 595.901 LINE",
"1017.83 785.869 LINE",
"962.84 786.869 OFFCURVE",
"900.85 788.869 OFFCURVE",
"837.861 789.869 CURVE SMOOTH",
"774.871 789.869 OFFCURVE",
"710.882 791.868 OFFCURVE",
"653.891 792.868 CURVE",
"657.891 955.841 LINE SMOOTH",
"665.889 1203.8 OFFCURVE",
"714.881 1246.79 OFFCURVE",
"877.854 1257.79 CURVE",
"945.843 1254.79 OFFCURVE",
"1041.83 1218.8 OFFCURVE",
"1165.81 1150.81 CURVE",
"1171.8 1408.77 LINE"
);
}
);
width = 1321;
}
);
unicode = 00A3;
},
{
glyphname = currency;
layers = (
{
layerId = "C85A2332-1B89-4390-846F-6AFC3F1E970B";
name = Bold;
paths = (
{
closed = 1;
nodes = (
"868.855 1049.83 OFFCURVE",
"795.868 1070.82 OFFCURVE",
"723.88 1070.82 CURVE SMOOTH",
"648.892 1070.82 OFFCURVE",
"576.904 1050.83 OFFCURVE",
"509.915 1009.83 CURVE",
"311.948 1207.8 LINE",
"151.975 1047.83 LINE",
"166.972 1033.83 OFFCURVE",
"181.97 1018.83 OFFCURVE",
"198.967 1001.83 CURVE SMOOTH",
"214.964 984.836 OFFCURVE",
"231.961 967.839 OFFCURVE",
"248.959 950.842 CURVE SMOOTH",
"265.956 933.845 OFFCURVE",
"283.953 915.848 OFFCURVE",
"300.95 898.85 CURVE SMOOTH",
"317.947 881.853 OFFCURVE",
"333.944 864.856 OFFCURVE",
"349.942 849.859 CURVE",
"309.948 781.87 OFFCURVE",
"288.952 711.882 OFFCURVE",
"288.952 635.894 CURVE SMOOTH",
"288.952 566.906 OFFCURVE",
"308.949 494.918 OFFCURVE",
"348.942 419.93 CURVE",
"149.975 220.963 LINE",
"306.949 60.9898 LINE",
"506.916 259.957 LINE",
"578.904 220.963 OFFCURVE",
"650.892 200.967 OFFCURVE",
"723.88 200.967 CURVE SMOOTH",
"796.867 200.967 OFFCURVE",
"867.856 219.963 OFFCURVE",
"939.844 262.956 CURVE",
"1137.81 64.9892 LINE",
"1296.78 221.963 LINE",
"1096.82 420.93 LINE",
"1139.81 491.918 OFFCURVE",
"1158.81 555.907 OFFCURVE",
"1158.81 635.894 CURVE SMOOTH",
"1158.81 710.882 OFFCURVE",
"1138.81 783.87 OFFCURVE",
"1099.82 853.858 CURVE",
"1297.78 1051.82 LINE",
"1139.81 1210.8 LINE",
"940.843 1010.83 LINE"
);
},
{
closed = 1;
nodes = (
"937.844 576.904 OFFCURVE",
"916.847 525.912 OFFCURVE",
"874.854 483.919 CURVE",
"875.854 483.919 LINE",
"834.861 442.926 OFFCURVE",
"784.869 422.93 OFFCURVE",
"723.88 422.93 CURVE SMOOTH",
"662.89 422.93 OFFCURVE",
"611.898 443.926 OFFCURVE",
"570.905 484.919 CURVE",
"570.905 483.919 LINE",
"529.912 524.913 OFFCURVE",
"509.915 575.904 OFFCURVE",
"509.915 636.894 CURVE SMOOTH",
"509.915 757.874 OFFCURVE",
"606.899 847.859 OFFCURVE",
"723.88 847.859 CURVE SMOOTH",
"844.859 847.859 OFFCURVE",
"937.844 756.874 OFFCURVE",
"937.844 636.894 CURVE SMOOTH"
);
}
);
width = 1447;
}
);
unicode = 00A4;
},
{
glyphname = yen;
layers = (
{
layerId = "C85A2332-1B89-4390-846F-6AFC3F1E970B";
name = Bold;
paths = (
{
closed = 1;
nodes = (
"890.852 614.898 LINE",
"954.841 731.878 LINE",
"1278.79 731.878 LINE",
"1278.79 920.847 LINE",
"1056.82 920.847 LINE",
"1353.77 1467.76 LINE",
"1071.82 1467.76 LINE",
"1019.83 1368.77 OFFCURVE",
"966.839 1266.79 OFFCURVE",
"912.848 1163.81 CURVE SMOOTH",
"857.857 1059.82 OFFCURVE",
"804.866 957.841 OFFCURVE",
"751.875 856.857 CURVE",
"429.928 1467.76 LINE",
"149.975 1467.76 LINE",
"437.927 920.847 LINE",
"214.964 920.847 LINE",
"214.964 731.878 LINE",
"541.91 731.878 LINE",
"556.907 709.882 OFFCURVE",
"569.905 689.885 OFFCURVE",
"582.903 672.888 CURVE",
"594.901 654.891 OFFCURVE",
"607.899 634.894 OFFCURVE",
"621.896 613.898 CURVE",
"232.961 613.898 LINE",
"232.961 386.936 LINE",
"618.897 386.936 LINE",
"590.902 0 LINE",
"913.848 0 LINE",
"912.848 28.9952 OFFCURVE",
"910.848 59.99 OFFCURVE",
"909.849 92.9845 CURVE SMOOTH",
"907.849 125.979 OFFCURVE",
"905.849 158.974 OFFCURVE",
"904.849 191.968 CURVE SMOOTH",
"902.85 224.963 OFFCURVE",
"900.85 258.957 OFFCURVE",
"898.85 291.951 CURVE SMOOTH",
"896.851 324.946 OFFCURVE",
"894.851 355.941 OFFCURVE",
"893.851 386.936 CURVE",
"1278.79 386.936 LINE",
"1278.79 613.898 LINE",
"890.852 613.898 LINE"
);
}
);
width = 1503;
}
);
unicode = 00A5;
},
{
glyphname = brokenbar;
layers = (
{
layerId = "C85A2332-1B89-4390-846F-6AFC3F1E970B";
name = Bold;
paths = (
{
closed = 1;
nodes = (
"382.936 -327 LINE",
"382.936 454.924 LINE",
"149.975 454.924 LINE",
"149.975 -327 LINE"
);
},
{
closed = 1;
nodes = (
"382.936 628.895 LINE",
"382.936 1410.77 LINE",
"149.975 1410.77 LINE",
"149.975 628.895 LINE"
);
}
);
width = 532;
}
);
unicode = 00A6;
},
{
glyphname = section;
layers = (
{
layerId = "C85A2332-1B89-4390-846F-6AFC3F1E970B";
name = Bold;
paths = (
{
closed = 1;
nodes = (
"476.921 902.85 LINE",
"457.924 888.852 LINE",
"436.927 900.85 LINE"
);
},
{
closed = 1;
nodes = (
"760.873 683.886 OFFCURVE",
"779.87 648.892 OFFCURVE",
"779.87 611.898 CURVE SMOOTH",
"779.87 570.905 OFFCURVE",
"751.875 528.912 OFFCURVE",
"696.884 485.919 CURVE",
"549.908 566.906 OFFCURVE",
"468.922 619.897 OFFCURVE",
"427.929 656.891 CURVE",
"428.929 656.891 LINE",
"392.935 691.885 OFFCURVE",
"374.938 726.879 OFFCURVE",
"374.938 762.873 CURVE SMOOTH",
"374.938 803.866 OFFCURVE",
"402.933 845.859 OFFCURVE",
"457.924 888.852 CURVE",
"596.901 812.865 OFFCURVE",
"683.886 757.874 OFFCURVE",
"723.88 718.88 CURVE SMOOTH"
);
},
{
closed = 1;
nodes = (
"790.868 1471.76 OFFCURVE",
"682.886 1492.75 OFFCURVE",
"589.902 1492.75 CURVE SMOOTH",
"478.92 1492.75 OFFCURVE",
"388.935 1464.76 OFFCURVE",
"317.947 1409.77 CURVE SMOOTH",
"245.959 1352.77 OFFCURVE",
"210.965 1280.79 OFFCURVE",
"210.965 1185.8 CURVE SMOOTH",
"210.965 1106.82 OFFCURVE",
"241.96 1037.83 OFFCURVE",
"294.951 981.837 CURVE",
"202.966 916.847 OFFCURVE",
"149.975 819.864 OFFCURVE",
"149.975 711.882 CURVE SMOOTH",
"149.975 563.906 OFFCURVE",
"211.965 481.92 OFFCURVE",
"487.919 328.945 CURVE SMOOTH",
"512.915 314.948 LINE",
"511.915 315.947 LINE",
"635.894 245.959 OFFCURVE",
"697.884 192.968 OFFCURVE",
"697.884 157.974 CURVE SMOOTH",
"697.884 90.9849 OFFCURVE",
"638.894 73.9877 OFFCURVE",
"534.911 73.9877 CURVE SMOOTH",
"467.922 73.9877 OFFCURVE",
"363.939 103.983 OFFCURVE",
"223.963 166.972 CURVE",
"223.963 -118 LINE",
"354.941 -161 OFFCURVE",
"459.923 -182 OFFCURVE",
"555.907 -182 CURVE SMOOTH",
"788.869 -182 OFFCURVE",
"944.843 -54 OFFCURVE",
"944.843 144.976 CURVE SMOOTH",
"944.843 220.963 OFFCURVE",
"917.847 285.952 OFFCURVE",
"857.857 348.942 CURVE",
"956.841 417.93 OFFCURVE",
"1005.83 507.915 OFFCURVE",
"1005.83 618.897 CURVE SMOOTH",
"1005.83 690.885 OFFCURVE",
"981.837 753.875 OFFCURVE",
"934.844 808.865 CURVE",
"935.844 808.865 LINE",
"892.851 859.857 OFFCURVE",
"802.866 923.846 OFFCURVE",
"667.889 1000.83 CURVE SMOOTH",
"629.895 1021.83 LINE",
"630.895 1021.83 LINE",
"515.914 1086.82 OFFCURVE",
"457.924 1139.81 OFFCURVE",
"457.924 1180.8 CURVE SMOOTH",
"457.924 1245.79 OFFCURVE",
"512.915 1283.79 OFFCURVE",
"611.898 1283.79 CURVE SMOOTH",
"675.888 1283.79 OFFCURVE",
"776.871 1253.79 OFFCURVE",
"911.848 1189.8 CURVE",
"911.848 1426.76 LINE"
);
}
);
width = 1155;
}
);
unicode = 00A7;
},
{
glyphname = dieresis;
layers = (
{
layerId = "C85A2332-1B89-4390-846F-6AFC3F1E970B";
name = Bold;
paths = (
{
closed = 1;
nodes = (
"818.864 1536.74 LINE",
"540.91 1536.74 LINE",
"540.91 1259.79 LINE",
"818.864 1259.79 LINE"
);
},
{
closed = 1;
nodes = (
"427.929 1536.74 LINE",
"149.975 1536.74 LINE",
"149.975 1259.79 LINE",
"427.929 1259.79 LINE"
);
}
);
width = 968;
}
);
unicode = 00A8;
},
{
glyphname = copyright;
layers = (
{
layerId = "C85A2332-1B89-4390-846F-6AFC3F1E970B";
name = Bold;
paths = (
{
closed = 1;
nodes = (
"477.92 1460.76 OFFCURVE",
"149.975 1131.81 OFFCURVE",
"149.975 728.879 CURVE SMOOTH",
"149.975 528.912 OFFCURVE",
"220.963 357.94 OFFCURVE",
"363.939 215.964 CURVE SMOOTH",
"506.916 71.988 OFFCURVE",
"677.887 0 OFFCURVE",
"878.854 0 CURVE SMOOTH",
"1277.79 0 OFFCURVE",
"1607.73 328.945 OFFCURVE",
"1607.73 728.879 CURVE SMOOTH",
"1607.73 1131.81 OFFCURVE",
"1277.79 1460.76 OFFCURVE",
"878.854 1460.76 CURVE SMOOTH"
);
},
{
closed = 1;
nodes = (
"1032.83 1289.79 OFFCURVE",
"1164.81 1234.79 OFFCURVE",
"1275.79 1125.81 CURVE SMOOTH",
"1383.77 1015.83 OFFCURVE",
"1437.76 883.853 OFFCURVE",
"1437.76 728.879 CURVE SMOOTH",
"1437.76 576.904 OFFCURVE",
"1385.77 450.925 OFFCURVE",
"1277.79 366.939 CURVE",
"1280.79 367.939 LINE",
"1168.81 291.951 OFFCURVE",
"1035.83 244.959 OFFCURVE",
"878.854 244.959 CURVE SMOOTH",
"722.88 244.959 OFFCURVE",
"590.902 291.951 OFFCURVE",
"477.92 367.939 CURVE",
"482.92 364.939 LINE",
"373.938 463.923 OFFCURVE",
"317.947 579.904 OFFCURVE",
"317.947 728.879 CURVE SMOOTH",
"317.947 880.853 OFFCURVE",
"374.938 1014.83 OFFCURVE",
"483.919 1125.81 CURVE SMOOTH",
"592.901 1234.79 OFFCURVE",
"724.879 1289.79 OFFCURVE",
"878.854 1289.79 CURVE SMOOTH"
);
},
{
closed = 1;
nodes = (
"1094.82 1164.81 OFFCURVE",
"997.834 1186.8 OFFCURVE",
"901.85 1186.8 CURVE SMOOTH",
"610.898 1186.8 OFFCURVE",
"428.929 1008.83 OFFCURVE",
"428.929 728.879 CURVE SMOOTH",
"428.929 448.925 OFFCURVE",
"613.898 269.955 OFFCURVE",
"901.85 269.955 CURVE SMOOTH",
"993.835 269.955 OFFCURVE",
"1090.82 288.952 OFFCURVE",
"1194.8 335.944 CURVE",
"1194.8 595.901 LINE",
"1078.82 536.911 OFFCURVE",
"995.834 510.915 OFFCURVE",
"922.846 510.915 CURVE SMOOTH",
"751.875 510.915 OFFCURVE",
"655.891 623.896 OFFCURVE",
"655.891 728.879 CURVE SMOOTH",
"655.891 816.864 OFFCURVE",
"678.887 889.852 OFFCURVE",
"724.879 946.842 CURVE SMOOTH",
"768.872 999.834 OFFCURVE",
"832.861 1028.83 OFFCURVE",
"912.848 1028.83 CURVE SMOOTH",
"988.835 1028.83 OFFCURVE",
"1079.82 1001.83 OFFCURVE",
"1194.8 944.843 CURVE",
"1194.8 1123.81 LINE"
);
}
);
width = 1757;
}
);
unicode = 00A9;
},
{
glyphname = ordfeminine;
layers = (
{
layerId = "C85A2332-1B89-4390-846F-6AFC3F1E970B";
name = Bold;
paths = (
{
closed = 1;
nodes = (
"888.852 626.896 LINE",
"171.971 626.896 LINE",
"171.971 437.927 LINE",
"888.852 437.927 LINE"
);
},
{
closed = 1;
nodes = (
"886.852 1373.77 OFFCURVE",
"766.872 1492.75 OFFCURVE",
"511.915 1492.75 CURVE SMOOTH",
"420.93 1492.75 OFFCURVE",
"318.947 1471.76 OFFCURVE",
"206.966 1428.76 CURVE",
"206.966 1224.8 LINE",
"322.946 1280.79 OFFCURVE",
"419.93 1310.78 OFFCURVE",
"491.918 1310.78 CURVE SMOOTH",
"594.901 1310.78 OFFCURVE",
"654.891 1277.79 OFFCURVE",
"669.888 1211.8 CURVE",
"540.91 1211.8 LINE SMOOTH",
"279.953 1211.8 OFFCURVE",
"149.975 1114.81 OFFCURVE",
"149.975 919.847 CURVE SMOOTH",
"149.975 756.874 OFFCURVE",
"270.955 650.892 OFFCURVE",
"447.925 650.892 CURVE SMOOTH",
"537.91 650.892 OFFCURVE",
"612.898 673.888 OFFCURVE",
"672.888 719.88 CURVE",
"672.888 668.889 LINE",
"886.852 668.889 LINE",
"886.852 1124.81 LINE SMOOTH"
);
},
{
closed = 1;
nodes = (
"663.89 1090.82 LINE",
"663.89 1100.82 LINE",
"663.89 1127.81 LINE",
"700.883 1090.82 LINE"
);
},
{
closed = 1;
nodes = (
"579.904 915.848 OFFCURVE",
"535.911 897.851 OFFCURVE",
"482.92 897.851 CURVE SMOOTH",
"402.933 897.851 OFFCURVE",
"351.941 934.844 OFFCURVE",
"351.941 991.835 CURVE SMOOTH",
"351.941 1025.83 OFFCURVE",
"364.939 1049.83 OFFCURVE",
"390.935 1063.82 CURVE SMOOTH",
"425.929 1082.82 OFFCURVE",
"487.919 1090.82 OFFCURVE",
"582.903 1090.82 CURVE SMOOTH",
"663.89 1090.82 LINE",
"661.89 1034.83 OFFCURVE",
"644.893 988.835 OFFCURVE",
"612.898 952.841 CURVE SMOOTH"
);
}
);
width = 1038;
}
);
unicode = 00AA;
},
{
glyphname = guillemotleft;
layers = (
{
layerId = "C85A2332-1B89-4390-846F-6AFC3F1E970B";
name = Bold;
paths = (
{
closed = 1;
nodes = (
"1044.83 28.9952 LINE",
"1107.82 328.945 LINE",
"1066.82 367.939 OFFCURVE",
"1024.83 407.932 OFFCURVE",
"980.837 450.925 CURVE SMOOTH",
"935.844 492.918 OFFCURVE",
"892.851 533.911 OFFCURVE",
"850.858 573.904 CURVE",
"1120.81 797.867 LINE",
"1130.81 1076.82 LINE",
"607.899 641.893 LINE",
"554.908 496.917 LINE"
);
},
{
closed = 1;
nodes = (
"639.893 42.9928 LINE",
"702.883 342.943 LINE",
"621.896 421.93 OFFCURVE",
"529.912 508.915 OFFCURVE",
"445.926 588.902 CURVE",
"715.881 812.865 LINE",
"725.879 1090.82 LINE",
"202.966 655.891 LINE",
"149.975 510.915 LINE"
);
}
);
width = 1280;
}
);
unicode = 00AB;
},
{
glyphname = logicalnot;
layers = (
{
layerId = "C85A2332-1B89-4390-846F-6AFC3F1E970B";
name = Bold;
paths = (
{
closed = 1;
nodes = (
"316.947 628.895 OFFCURVE",
"489.918 632.895 OFFCURVE",
"666.889 635.894 CURVE SMOOTH",
"843.86 638.894 OFFCURVE",
"1015.83 642.893 OFFCURVE",
"1184.8 645.893 CURVE",
"1138.81 267.955 LINE",
"1450.76 267.955 LINE",
"1419.76 878.854 LINE",
"149.975 878.854 LINE",
"149.975 625.896 LINE"
);
}
);
width = 1600;
}
);
unicode = 00AC;
},
{
glyphname = sfthyphen;
layers = (
{
layerId = "C85A2332-1B89-4390-846F-6AFC3F1E970B";
name = Bold;
paths = (
{
closed = 1;
nodes = (
"727.879 674.888 LINE",
"149.975 674.888 LINE",
"149.975 446.926 LINE",
"727.879 446.926 LINE"
);
}
);
width = 877;
}
);
unicode = 00AD;
},
{
glyphname = registered;
layers = (
{
layerId = "C85A2332-1B89-4390-846F-6AFC3F1E970B";
name = Bold;
paths = (
{
closed = 1;
nodes = (
"1027.83 1289.79 OFFCURVE",
"1168.81 1232.79 OFFCURVE",
"1275.79 1137.81 CURVE",
"1376.77 1038.83 OFFCURVE",
"1437.76 913.848 OFFCURVE",
"1437.76 774.871 CURVE SMOOTH",
"1437.76 491.918 OFFCURVE",
"1187.8 259.957 OFFCURVE",
"878.854 259.957 CURVE SMOOTH",
"570.905 259.957 OFFCURVE",
"317.947 495.917 OFFCURVE",
"317.947 774.871 CURVE SMOOTH",
"317.947 1054.82 OFFCURVE",
"571.905 1289.79 OFFCURVE",
"878.854 1289.79 CURVE SMOOTH"
);
},
{
closed = 1;
nodes = (
"477.92 1460.76 OFFCURVE",
"149.975 1131.81 OFFCURVE",
"149.975 728.879 CURVE SMOOTH",
"149.975 528.912 OFFCURVE",
"220.963 357.94 OFFCURVE",
"363.939 215.964 CURVE SMOOTH",
"506.916 71.988 OFFCURVE",
"677.887 0 OFFCURVE",
"878.854 0 CURVE SMOOTH",
"1277.79 0 OFFCURVE",
"1607.73 328.945 OFFCURVE",
"1607.73 728.879 CURVE SMOOTH",
"1607.73 1131.81 OFFCURVE",
"1277.79 1460.76 OFFCURVE",
"878.854 1460.76 CURVE SMOOTH"
);
},
{
closed = 1;
nodes = (
"1008.83 1045.83 OFFCURVE",
"1046.83 1020.83 OFFCURVE",
"1046.83 953.841 CURVE SMOOTH",
"1046.83 886.852 OFFCURVE",
"1020.83 862.856 OFFCURVE",
"899.85 862.856 CURVE SMOOTH",
"822.863 862.856 LINE",
"822.863 1045.83 LINE",
"899.85 1045.83 LINE SMOOTH"
);
},
{
closed = 1;
nodes = (
"822.863 314.948 LINE",
"822.863 647.892 LINE",
"837.861 647.892 LINE",
"838.86 646.892 OFFCURVE",
"840.86 644.893 OFFCURVE",
"843.86 642.893 CURVE",
"845.859 641.893 OFFCURVE",
"848.859 639.893 OFFCURVE",
"851.858 637.894 CURVE",
"854.858 634.894 OFFCURVE",
"857.857 632.895 OFFCURVE",
"862.856 629.895 CURVE",
"881.853 616.897 OFFCURVE",
"908.849 582.903 OFFCURVE",
"941.843 527.912 CURVE SMOOTH",
"1073.82 314.948 LINE",
"1320.78 314.948 LINE",
"1158.81 580.903 LINE",
"1127.81 627.896 OFFCURVE",
"1100.82 664.889 OFFCURVE",
"1077.82 692.885 CURVE",
"1170.81 731.878 OFFCURVE",
"1223.8 804.866 OFFCURVE",
"1223.8 908.849 CURVE SMOOTH",
"1223.8 1085.82 OFFCURVE",
"1106.82 1169.81 OFFCURVE",
"859.857 1169.81 CURVE SMOOTH",
"556.907 1169.81 LINE",
"556.907 314.948 LINE"
);
}
);
width = 1757;
}
);
unicode = 00AE;
},
{
glyphname = macron;
layers = (
{
layerId = "C85A2332-1B89-4390-846F-6AFC3F1E970B";
name = Bold;
paths = (
{
closed = 1;
nodes = (
"781.87 1498.75 LINE",
"149.975 1498.75 LINE",
"149.975 1285.79 LINE",
"781.87 1285.79 LINE"
);
}
);
width = 931;
}
);
unicode = 00AF;
},
{
glyphname = degree;
layers = (
{
layerId = "C85A2332-1B89-4390-846F-6AFC3F1E970B";
name = Bold;
paths = (
{
closed = 1;
nodes = (
"562.906 1344.78 OFFCURVE",
"622.896 1284.79 OFFCURVE",
"622.896 1219.8 CURVE SMOOTH",
"622.896 1150.81 OFFCURVE",
"561.906 1097.82 OFFCURVE",
"482.92 1097.82 CURVE SMOOTH",
"403.933 1097.82 OFFCURVE",
"342.943 1150.81 OFFCURVE",
"342.943 1219.8 CURVE SMOOTH",
"342.943 1287.79 OFFCURVE",
"405.932 1344.78 OFFCURVE",
"482.92 1344.78 CURVE SMOOTH"
);
},
{
closed = 1;
nodes = (
"387.935 1492.75 OFFCURVE",
"308.949 1459.76 OFFCURVE",
"245.959 1394.77 CURVE SMOOTH",
"181.97 1330.78 OFFCURVE",
"149.975 1251.79 OFFCURVE",
"149.975 1156.81 CURVE SMOOTH",
"149.975 968.839 OFFCURVE",
"292.951 825.863 OFFCURVE",
"480.92 825.863 CURVE SMOOTH",
"574.904 825.863 OFFCURVE",
"653.891 857.857 OFFCURVE",
"717.88 921.847 CURVE",
"717.88 920.847 LINE",
"782.87 985.836 OFFCURVE",
"815.864 1064.82 OFFCURVE",
"815.864 1156.81 CURVE SMOOTH",
"815.864 1251.79 OFFCURVE",
"783.87 1330.78 OFFCURVE",
"718.88 1393.77 CURVE",
"719.88 1392.77 LINE",
"658.89 1456.76 OFFCURVE",
"573.904 1492.75 OFFCURVE",
"482.92 1492.75 CURVE SMOOTH"
);
}
);
width = 965;
}
);
unicode = 00B0;
},
{
glyphname = plusminus;
layers = (
{
layerId = "C85A2332-1B89-4390-846F-6AFC3F1E970B";
name = Bold;
paths = (
{
closed = 1;
nodes = (
"149.975 911.848 LINE",
"149.975 678.887 LINE",
"669.888 678.887 LINE",
"669.888 316.947 LINE",
"900.85 316.947 LINE",
"900.85 678.887 LINE",
"1420.76 678.887 LINE",
"1420.76 911.848 LINE",
"900.85 911.848 LINE",
"900.85 1272.79 LINE",
"669.888 1272.79 LINE",
"669.888 911.848 LINE"
);
},
{
closed = 1;
nodes = (
"1420.76 251.958 LINE",
"149.975 251.958 LINE",
"149.975 0 LINE",
"1420.76 0 LINE"
);
}
);
width = 1570;
}
);
unicode = 00B1;
},
{
glyphname = twosuperior;
layers = (
{
layerId = "C85A2332-1B89-4390-846F-6AFC3F1E970B";
name = Bold;
paths = (
{
closed = 1;
nodes = (
"453.924 807.866 OFFCURVE",
"455.924 808.865 OFFCURVE",
"456.924 809.865 CURVE SMOOTH",
"457.924 810.865 OFFCURVE",
"457.924 810.865 OFFCURVE",
"457.924 811.865 CURVE",
"670.888 994.834 OFFCURVE",
"777.871 1134.81 OFFCURVE",
"777.871 1231.79 CURVE SMOOTH",
"777.871 1391.77 OFFCURVE",
"638.894 1492.75 OFFCURVE",
"442.926 1492.75 CURVE SMOOTH",
"367.939 1492.75 OFFCURVE",
"271.955 1471.76 OFFCURVE",
"155.974 1430.76 CURVE",
"155.974 1228.8 LINE",
"274.954 1287.79 OFFCURVE",
"363.939 1316.78 OFFCURVE",
"422.93 1316.78 CURVE SMOOTH",
"506.916 1316.78 OFFCURVE",
"561.906 1276.79 OFFCURVE",
"561.906 1216.8 CURVE SMOOTH",
"561.906 1169.81 OFFCURVE",
"458.924 1055.82 OFFCURVE",
"252.958 872.855 CURVE SMOOTH",
"149.975 779.87 LINE",
"149.975 622.896 LINE",
"782.87 622.896 LINE",
"782.87 804.866 LINE",
"449.925 804.866 LINE"
);
}
);
width = 932;
}
);
unicode = 00B2;
},
{
glyphname = threesuperior;
layers = (
{
layerId = "C85A2332-1B89-4390-846F-6AFC3F1E970B";
name = Bold;
paths = (
{
closed = 1;
nodes = (
"781.87 1325.78 OFFCURVE",
"747.876 1387.77 OFFCURVE",
"686.886 1431.76 CURVE",
"627.896 1470.76 OFFCURVE",
"547.909 1492.75 OFFCURVE",
"452.925 1492.75 CURVE SMOOTH",
"379.937 1492.75 OFFCURVE",
"288.952 1479.75 OFFCURVE",
"176.971 1452.76 CURVE",
"176.971 1266.79 LINE",
"241.96 1285.79 OFFCURVE",
"291.951 1297.78 OFFCURVE",
"331.945 1305.78 CURVE SMOOTH",
"370.938 1313.78 OFFCURVE",
"398.934 1316.78 OFFCURVE",
"421.93 1316.78 CURVE SMOOTH",
"516.914 1316.78 OFFCURVE",
"566.906 1290.79 OFFCURVE",
"566.906 1242.79 CURVE SMOOTH",
"566.906 1191.8 OFFCURVE",
"517.914 1165.81 OFFCURVE",
"425.929 1165.81 CURVE SMOOTH",
"300.95 1165.81 LINE",
"300.95 989.835 LINE",
"417.93 989.835 LINE SMOOTH",
"529.912 989.835 OFFCURVE",
"585.902 955.841 OFFCURVE",
"585.902 887.852 CURVE SMOOTH",
"585.902 823.863 OFFCURVE",
"521.913 785.869 OFFCURVE",
"408.932 785.869 CURVE SMOOTH",
"329.945 785.869 OFFCURVE",
"243.959 810.865 OFFCURVE",
"149.975 859.857 CURVE",
"149.975 656.891 LINE",
"257.957 624.896 OFFCURVE",
"348.942 608.899 OFFCURVE",
"421.93 608.899 CURVE SMOOTH",
"668.889 608.899 OFFCURVE",
"801.867 707.882 OFFCURVE",
"801.867 887.852 CURVE SMOOTH",
"801.867 975.838 OFFCURVE",
"761.873 1041.83 OFFCURVE",
"688.885 1084.82 CURVE",
"748.875 1123.81 OFFCURVE",
"781.87 1180.8 OFFCURVE",
"781.87 1252.79 CURVE SMOOTH"
);
}
);
width = 951;
}
);
unicode = 00B3;
},
{
glyphname = acute;
layers = (
{
layerId = "C85A2332-1B89-4390-846F-6AFC3F1E970B";
name = Bold;
paths = (
{
closed = 1;
nodes = (
"802.866 1602.73 LINE",
"496.917 1602.73 LINE",
"149.975 1138.81 LINE",
"399.933 1138.81 LINE"
);
}
);
width = 952;
}
);
unicode = 00B4;
},
{
glyphname = mu;
layers = (
{
layerId = "C85A2332-1B89-4390-846F-6AFC3F1E970B";
name = Bold;
paths = (
{
closed = 1;
nodes = (
"414.931 -328 OFFCURVE",
"412.931 -255 OFFCURVE",
"411.931 -178 CURVE SMOOTH",
"410.932 -102 OFFCURVE",
"408.932 -27 OFFCURVE",
"407.932 47.992 CURVE",
"464.923 -2 OFFCURVE",
"540.91 -27 OFFCURVE",
"635.894 -27 CURVE SMOOTH",
"739.877 -27 OFFCURVE",
"831.862 15.9973 OFFCURVE",
"895.851 76.9872 CURVE",
"926.846 7.99867 OFFCURVE",
"982.836 -27 OFFCURVE",
"1064.82 -27 CURVE SMOOTH",
"1094.82 -27 OFFCURVE",
"1129.81 -14 OFFCURVE",
"1169.81 11.998 CURVE",
"1168.81 11.998 LINE",
"1177.8 17.997 OFFCURVE",
"1186.8 23.996 OFFCURVE",
"1197.8 29.995 CURVE",
"1207.8 35.994 OFFCURVE",
"1217.8 41.993 OFFCURVE",
"1227.8 47.992 CURVE",
"1236.79 53.991 OFFCURVE",
"1246.79 59.99 OFFCURVE",
"1255.79 64.9892 CURVE SMOOTH",
"1264.79 69.9883 OFFCURVE",
"1271.79 73.9877 OFFCURVE",
"1277.79 76.9872 CURVE",
"1277.79 293.951 LINE",
"1248.79 280.953 OFFCURVE",
"1225.8 271.955 OFFCURVE",
"1209.8 264.956 CURVE SMOOTH",
"1193.8 257.957 OFFCURVE",
"1183.8 253.958 OFFCURVE",
"1178.8 252.958 CURVE",
"1131.81 255.957 OFFCURVE",
"1108.82 264.956 OFFCURVE",
"1108.82 277.954 CURVE SMOOTH",
"1118.81 1119.81 LINE",
"872.855 1119.81 LINE",
"862.856 668.889 LINE SMOOTH",
"862.856 484.919 OFFCURVE",
"782.87 392.935 OFFCURVE",
"622.896 392.935 CURVE SMOOTH",
"477.92 392.935 OFFCURVE",
"405.932 471.921 OFFCURVE",
"405.932 628.895 CURVE",
"394.934 1130.81 LINE",
"149.975 1117.81 LINE",
"168.972 -398 LINE",
"415.931 -398 LINE"
);
}
);
width = 1427;
}
);
unicode = 03BC;
},
{
glyphname = paragraph;
layers = (
{
layerId = "C85A2332-1B89-4390-846F-6AFC3F1E970B";
name = Bold;
paths = (
{
closed = 1;
nodes = (
"343.943 1467.76 OFFCURVE",
"149.975 1296.78 OFFCURVE",
"149.975 1036.83 CURVE SMOOTH",
"149.975 909.849 OFFCURVE",
"189.968 809.865 OFFCURVE",
"270.955 734.878 CURVE SMOOTH",
"338.944 670.888 OFFCURVE",
"400.933 631.895 OFFCURVE",
"464.923 612.898 CURVE",
"398.934 -184 LINE",
"777.871 -184 LINE",
"777.871 1278.79 LINE",
"879.854 1278.79 LINE",
"870.855 -184 LINE",
"1287.79 -184 LINE",
"1071.82 1467.76 LINE",
"630.895 1467.76 LINE SMOOTH"
);
}
);
width = 1437;
}
);
unicode = 00B6;
},
{
glyphname = periodcentered;
layers = (
{
layerId = "C85A2332-1B89-4390-846F-6AFC3F1E970B";
name = Bold;
paths = (
{
closed = 1;
nodes = (
"420.93 856.857 LINE",
"149.975 856.857 LINE",
"149.975 544.909 LINE",
"420.93 544.909 LINE"
);
}
);
width = 570;
}
);
unicode = 00B7;
},
{
glyphname = cedilla;
layers = (
{
layerId = "C85A2332-1B89-4390-846F-6AFC3F1E970B";
name = Bold;
paths = (
{
closed = 1;
nodes = (
"326.946 19.9967 OFFCURVE",
"356.941 -23 OFFCURVE",
"376.937 -56 CURVE SMOOTH",
"395.934 -89 OFFCURVE",
"405.932 -114 OFFCURVE",
"405.932 -129 CURVE SMOOTH",
"405.932 -162 OFFCURVE",
"380.937 -179 OFFCURVE",
"331.945 -179 CURVE SMOOTH",
"279.953 -179 OFFCURVE",
"225.962 -164 OFFCURVE",
"149.975 -125 CURVE",
"149.975 -338 LINE",
"224.963 -358 OFFCURVE",
"289.952 -369 OFFCURVE",
"350.942 -369 CURVE SMOOTH",
"522.913 -369 OFFCURVE",
"610.898 -300 OFFCURVE",
"610.898 -163 CURVE SMOOTH",
"610.898 -92 OFFCURVE",
"571.905 -20 OFFCURVE",
"488.919 74.9875 CURVE",
"286.952 74.9875 LINE"
);
}
);
width = 760;
}
);
unicode = 00B8;
},
{
glyphname = onesuperior;
layers = (
{
layerId = "C85A2332-1B89-4390-846F-6AFC3F1E970B";
name = Bold;
paths = (
{
closed = 1;
nodes = (
"757.874 800.867 LINE",
"566.906 800.867 LINE",
"566.906 1476.75 LINE",
"400.933 1476.75 LINE",
"149.975 1434.76 LINE",
"149.975 1251.79 LINE",
"163.973 1253.79 OFFCURVE",
"179.97 1256.79 OFFCURVE",
"196.967 1259.79 CURVE SMOOTH",
"230.962 1266.79 OFFCURVE",
"267.955 1272.79 OFFCURVE",
"304.949 1279.79 CURVE SMOOTH",
"323.946 1282.79 OFFCURVE",
"340.943 1286.79 OFFCURVE",
"357.94 1289.79 CURVE",
"357.94 800.867 LINE",
"166.972 800.867 LINE",
"166.972 622.896 LINE",
"757.874 622.896 LINE"
);
}
);
width = 907;
}
);
unicode = 00B9;
},
{
glyphname = ordmasculine;
layers = (
{
layerId = "C85A2332-1B89-4390-846F-6AFC3F1E970B";
name = Bold;
paths = (
{
closed = 1;
nodes = (
"906.849 626.896 LINE",
"189.968 626.896 LINE",
"189.968 437.927 LINE",
"906.849 437.927 LINE"
);
},
{
closed = 1;
nodes = (
"304.949 1492.75 OFFCURVE",
"149.975 1325.78 OFFCURVE",
"149.975 1070.82 CURVE SMOOTH",
"149.975 818.864 OFFCURVE",
"305.949 650.892 OFFCURVE",
"548.909 650.892 CURVE SMOOTH",
"791.868 650.892 OFFCURVE",
"945.843 815.864 OFFCURVE",
"945.843 1070.82 CURVE SMOOTH",
"945.843 1326.78 OFFCURVE",
"789.869 1492.75 OFFCURVE",
"548.909 1492.75 CURVE SMOOTH"
);
},
{
closed = 1;
nodes = (
"602.9 1345.78 OFFCURVE",
"645.893 1328.78 OFFCURVE",
"677.887 1294.78 CURVE",
"708.882 1258.79 OFFCURVE",
"725.879 1211.8 OFFCURVE",
"725.879 1148.81 CURVE SMOOTH",
"725.879 1029.83 OFFCURVE",
"656.891 954.841 OFFCURVE",
"548.909 954.841 CURVE SMOOTH",
"495.917 954.841 OFFCURVE",
"452.925 971.838 OFFCURVE",
"418.93 1005.83 CURVE",
"418.93 1004.83 LINE",
"386.936 1038.83 OFFCURVE",
"370.938 1086.82 OFFCURVE",
"370.938 1148.81 CURVE SMOOTH",
"370.938 1275.79 OFFCURVE",
"439.927 1345.78 OFFCURVE",
"548.909 1345.78 CURVE SMOOTH"
);
}
);
width = 1095;
}
);
unicode = 00BA;
},
{
glyphname = guillemotright;
layers = (
{
layerId = "C85A2332-1B89-4390-846F-6AFC3F1E970B";
name = Bold;
paths = (
{
closed = 1;
nodes = (
"149.975 385.936 LINE",
"185.969 80.9865 LINE",
"715.881 506.916 LINE",
"675.888 653.891 LINE",
"191.968 1132.81 LINE",
"177.97 855.858 LINE",
"428.929 608.899 LINE"
);
},
{
closed = 1;
nodes = (
"553.908 364.939 LINE",
"589.902 59.99 LINE",
"1119.81 484.919 LINE",
"1079.82 632.895 LINE",
"595.901 1111.81 LINE",
"581.903 833.861 LINE",
"832.861 586.902 LINE"
);
}
);
width = 1269;
}
);
unicode = 00BB;
},
{
glyphname = onequarter;
layers = (
{
layerId = "C85A2332-1B89-4390-846F-6AFC3F1E970B";
name = Bold;
paths = (
{
closed = 1;
nodes = (
"757.874 800.867 LINE",
"566.906 800.867 LINE",
"566.906 1476.75 LINE",
"400.933 1476.75 LINE",
"149.975 1434.76 LINE",
"149.975 1251.79 LINE",
"163.973 1253.79 OFFCURVE",
"179.97 1256.79 OFFCURVE",
"196.967 1259.79 CURVE SMOOTH",
"230.962 1266.79 OFFCURVE",
"267.955 1272.79 OFFCURVE",
"304.949 1279.79 CURVE SMOOTH",
"323.946 1282.79 OFFCURVE",
"340.943 1286.79 OFFCURVE",
"357.94 1289.79 CURVE",
"357.94 800.867 LINE",
"166.972 800.867 LINE",
"166.972 622.896 LINE",
"757.874 622.896 LINE"
);
},
{
closed = 1;
nodes = (
"1871.69 1492.75 LINE",
"1634.73 1492.75 LINE",
"719.88 -27 LINE",
"956.841 -27 LINE"
);
},
{
closed = 1;
nodes = (
"1451.76 545.909 LINE",
"1451.76 305.949 LINE",
"1275.79 305.949 LINE"
);
},
{
closed = 1;
nodes = (
"1451.76 129.978 LINE",
"1451.76 -44 LINE",
"1661.72 -44 LINE",
"1661.72 129.978 LINE",
"1787.7 129.978 LINE",
"1787.7 305.949 LINE",
"1661.72 305.949 LINE",
"1661.72 809.865 LINE",
"1450.76 809.865 LINE",
"1065.82 291.951 LINE",
"1065.82 129.978 LINE"
);
}
);
width = 2021;
}
);
unicode = 00BC;
},
{
glyphname = onehalf;
layers = (
{
layerId = "C85A2332-1B89-4390-846F-6AFC3F1E970B";
name = Bold;
paths = (
{
closed = 1;
nodes = (
"757.874 800.867 LINE",
"566.906 800.867 LINE",
"566.906 1476.75 LINE",
"400.933 1476.75 LINE",
"149.975 1434.76 LINE",
"149.975 1251.79 LINE",
"163.973 1253.79 OFFCURVE",
"179.97 1256.79 OFFCURVE",
"196.967 1259.79 CURVE SMOOTH",
"230.962 1266.79 OFFCURVE",
"267.955 1272.79 OFFCURVE",
"304.949 1279.79 CURVE SMOOTH",
"323.946 1282.79 OFFCURVE",
"340.943 1286.79 OFFCURVE",
"357.94 1289.79 CURVE",
"357.94 800.867 LINE",
"166.972 800.867 LINE",
"166.972 622.896 LINE",
"757.874 622.896 LINE"
);
},
{
closed = 1;
nodes = (
"1611.73 1492.75 LINE",
"1374.77 1492.75 LINE",
"459.923 -27 LINE",
"696.884 -27 LINE"
);
},
{
closed = 1;
nodes = (
"1536.74 140.977 OFFCURVE",
"1538.74 141.976 OFFCURVE",
"1539.74 142.976 CURVE SMOOTH",
"1540.74 143.976 OFFCURVE",
"1540.74 143.976 OFFCURVE",
"1540.74 144.976 CURVE",
"1753.71 327.945 OFFCURVE",
"1860.69 467.922 OFFCURVE",
"1860.69 564.906 CURVE SMOOTH",
"1860.69 724.879 OFFCURVE",
"1721.71 825.863 OFFCURVE",
"1525.75 825.863 CURVE SMOOTH",
"1450.76 825.863 OFFCURVE",
"1354.77 804.866 OFFCURVE",
"1238.79 763.873 CURVE",
"1238.79 561.906 LINE",
"1357.77 620.897 OFFCURVE",
"1446.76 649.892 OFFCURVE",
"1505.75 649.892 CURVE SMOOTH",
"1589.74 649.892 OFFCURVE",
"1644.73 609.898 OFFCURVE",
"1644.73 549.908 CURVE SMOOTH",
"1644.73 502.916 OFFCURVE",
"1541.74 388.935 OFFCURVE",
"1335.78 205.966 CURVE SMOOTH",
"1232.79 112.981 LINE",
"1232.79 -44 LINE",
"1865.69 -44 LINE",
"1865.69 137.977 LINE",
"1532.74 137.977 LINE"
);
}
);
width = 2015;
}
);
unicode = 00BD;
},
{
glyphname = threequarters;
layers = (
{
layerId = "C85A2332-1B89-4390-846F-6AFC3F1E970B";
name = Bold;
paths = (
{
closed = 1;
nodes = (
"781.87 1325.78 OFFCURVE",
"747.876 1387.77 OFFCURVE",
"686.886 1431.76 CURVE",
"627.896 1470.76 OFFCURVE",
"547.909 1492.75 OFFCURVE",
"452.925 1492.75 CURVE SMOOTH",
"379.937 1492.75 OFFCURVE",
"288.952 1479.75 OFFCURVE",
"176.971 1452.76 CURVE",
"176.971 1266.79 LINE",
"241.96 1285.79 OFFCURVE",
"291.951 1297.78 OFFCURVE",
"331.945 1305.78 CURVE SMOOTH",
"370.938 1313.78 OFFCURVE",
"398.934 1316.78 OFFCURVE",
"421.93 1316.78 CURVE SMOOTH",
"516.914 1316.78 OFFCURVE",
"566.906 1290.79 OFFCURVE",
"566.906 1242.79 CURVE SMOOTH",
"566.906 1191.8 OFFCURVE",
"517.914 1165.81 OFFCURVE",
"425.929 1165.81 CURVE SMOOTH",
"300.95 1165.81 LINE",
"300.95 989.835 LINE",
"417.93 989.835 LINE SMOOTH",
"529.912 989.835 OFFCURVE",
"585.902 955.841 OFFCURVE",
"585.902 887.852 CURVE SMOOTH",
"585.902 823.863 OFFCURVE",
"521.913 785.869 OFFCURVE",
"408.932 785.869 CURVE SMOOTH",
"329.945 785.869 OFFCURVE",
"243.959 810.865 OFFCURVE",
"149.975 859.857 CURVE",
"149.975 656.891 LINE",
"257.957 624.896 OFFCURVE",
"348.942 608.899 OFFCURVE",
"421.93 608.899 CURVE SMOOTH",
"668.889 608.899 OFFCURVE",
"801.867 707.882 OFFCURVE",
"801.867 887.852 CURVE SMOOTH",
"801.867 975.838 OFFCURVE",
"761.873 1041.83 OFFCURVE",
"688.885 1084.82 CURVE",
"748.875 1123.81 OFFCURVE",
"781.87 1180.8 OFFCURVE",
"781.87 1252.79 CURVE SMOOTH"
);
},
{
closed = 1;
nodes = (
"1566.74 1492.75 LINE",
"1329.78 1492.75 LINE",
"414.931 -27 LINE",
"651.891 -27 LINE"
);
},
{
closed = 1;
nodes = (
"1406.77 545.909 LINE",
"1406.77 305.949 LINE",
"1230.8 305.949 LINE"
);
},
{
closed = 1;
nodes = (
"1406.77 129.978 LINE",
"1406.77 -44 LINE",
"1616.73 -44 LINE",
"1616.73 129.978 LINE",
"1742.71 129.978 LINE",
"1742.71 305.949 LINE",
"1616.73 305.949 LINE",
"1616.73 809.865 LINE",
"1405.77 809.865 LINE",
"1020.83 291.951 LINE",
"1020.83 129.978 LINE"
);
}
);
width = 1892;
}
);
unicode = 00BE;
},
{
glyphname = questiondown;
layers = (
{
layerId = "C85A2332-1B89-4390-846F-6AFC3F1E970B";
name = Bold;
paths = (
{
closed = 1;
nodes = (
"482.92 909.849 OFFCURVE",
"481.92 885.853 OFFCURVE",
"480.92 868.855 CURVE SMOOTH",
"477.92 834.861 OFFCURVE",
"472.921 813.865 OFFCURVE",
"452.925 788.869 CURVE",
"452.925 789.869 LINE",
"441.926 774.871 OFFCURVE",
"422.93 752.875 OFFCURVE",
"394.934 725.879 CURVE SMOOTH",
"312.948 645.893 LINE SMOOTH",
"255.957 589.902 OFFCURVE",
"214.964 538.91 OFFCURVE",
"187.969 491.918 CURVE",
"162.973 442.926 OFFCURVE",
"149.975 392.935 OFFCURVE",
"149.975 339.943 CURVE SMOOTH",
"149.975 119.98 OFFCURVE",
"318.947 -27 OFFCURVE",
"567.905 -27 CURVE SMOOTH",
"703.883 -27 OFFCURVE",
"831.862 11.998 OFFCURVE",
"968.839 94.9842 CURVE",
"968.839 418.93 LINE",
"815.864 313.948 OFFCURVE",
"689.885 256.957 OFFCURVE",
"600.9 256.957 CURVE SMOOTH",
"541.91 256.957 OFFCURVE",
"494.918 270.955 OFFCURVE",
"461.923 299.95 CURVE",
"461.923 298.95 LINE",
"429.928 325.946 OFFCURVE",
"413.931 360.94 OFFCURVE",
"413.931 404.933 CURVE SMOOTH",
"413.931 455.924 OFFCURVE",
"439.927 500.917 OFFCURVE",
"503.916 560.907 CURVE SMOOTH",
"588.902 643.893 LINE",
"680.887 744.876 OFFCURVE",
"706.882 773.871 OFFCURVE",
"706.882 910.848 CURVE SMOOTH",
"706.882 1093.82 LINE",
"482.92 1093.82 LINE",
"482.92 941.843 LINE SMOOTH"
);
},
{
closed = 1;
nodes = (
"477.92 1155.81 LINE",
"740.877 1155.81 LINE",
"740.877 1467.76 LINE",
"477.92 1467.76 LINE"
);
}
);
width = 1118;
}
);
unicode = 00BF;
},
{
glyphname = Agrave;
layers = (
{
layerId = "C85A2332-1B89-4390-846F-6AFC3F1E970B";
name = Bold;
paths = (
{
closed = 1;
nodes = (
"665.889 587.902 OFFCURVE",
"683.886 641.893 OFFCURVE",
"700.883 694.884 CURVE SMOOTH",
"717.88 746.876 OFFCURVE",
"735.878 797.867 OFFCURVE",
"752.875 848.859 CURVE SMOOTH",
"769.872 899.85 OFFCURVE",
"785.869 949.842 OFFCURVE",
"802.866 1000.83 CURVE SMOOTH",
"819.864 1051.82 OFFCURVE",
"836.861 1103.82 OFFCURVE",
"854.858 1157.81 CURVE",
"1063.82 531.911 LINE",
"646.892 531.911 LINE"
);
},
{
closed = 1;
nodes = (
"563.906 230.962 LINE",
"1144.81 230.962 LINE",
"1197.8 0 LINE",
"1559.74 0 LINE",
"970.838 1492.75 LINE",
"739.877 1492.75 LINE",
"149.975 0 LINE",
"491.918 0 LINE"
);
},
{
closed = 1;
nodes = (
"939.844 1550.74 LINE",
"701.883 1871.69 LINE",
"427.929 1871.69 LINE",
"706.882 1550.74 LINE"
);
}
);
width = 1709;
}
);
unicode = 00C0;
},
{
glyphname = Aacute;
layers = (
{
layerId = "C85A2332-1B89-4390-846F-6AFC3F1E970B";
name = Bold;
paths = (
{
closed = 1;
nodes = (
"665.889 587.902 OFFCURVE",
"683.886 641.893 OFFCURVE",
"700.883 694.884 CURVE SMOOTH",
"717.88 746.876 OFFCURVE",
"735.878 797.867 OFFCURVE",
"752.875 848.859 CURVE SMOOTH",
"769.872 899.85 OFFCURVE",
"785.869 949.842 OFFCURVE",
"802.866 1000.83 CURVE SMOOTH",
"819.864 1051.82 OFFCURVE",
"836.861 1103.82 OFFCURVE",
"854.858 1157.81 CURVE",
"1063.82 531.911 LINE",
"646.892 531.911 LINE"
);
},
{
closed = 1;
nodes = (
"563.906 230.962 LINE",
"1144.81 230.962 LINE",
"1197.8 0 LINE",
"1559.74 0 LINE",
"970.838 1492.75 LINE",
"739.877 1492.75 LINE",
"149.975 0 LINE",
"491.918 0 LINE"
);
},
{
closed = 1;
nodes = (
"1227.8 1871.69 LINE",
"954.841 1871.69 LINE",
"715.881 1550.74 LINE",
"950.842 1550.74 LINE"
);
}
);
width = 1709;
}
);
unicode = 00C1;
},
{
glyphname = Acircumflex;
layers = (
{
layerId = "C85A2332-1B89-4390-846F-6AFC3F1E970B";
name = Bold;
paths = (
{
closed = 1;
nodes = (
"665.889 587.902 OFFCURVE",
"683.886 641.893 OFFCURVE",
"700.883 694.884 CURVE SMOOTH",
"717.88 746.876 OFFCURVE",
"735.878 797.867 OFFCURVE",
"752.875 848.859 CURVE SMOOTH",
"769.872 899.85 OFFCURVE",
"785.869 949.842 OFFCURVE",
"802.866 1000.83 CURVE SMOOTH",
"819.864 1051.82 OFFCURVE",
"836.861 1103.82 OFFCURVE",
"854.858 1157.81 CURVE",
"1063.82 531.911 LINE",
"646.892 531.911 LINE"
);
},
{
closed = 1;
nodes = (
"563.906 230.962 LINE",
"1144.81 230.962 LINE",
"1197.8 0 LINE",
"1559.74 0 LINE",
"970.838 1492.75 LINE",
"739.877 1492.75 LINE",
"149.975 0 LINE",
"491.918 0 LINE"
);
},
{
closed = 1;
nodes = (
"729.879 1573.74 OFFCURVE",
"752.875 1598.73 OFFCURVE",
"776.871 1624.73 CURVE SMOOTH",
"799.867 1650.73 OFFCURVE",
"823.863 1675.72 OFFCURVE",
"846.859 1699.72 CURVE",
"986.836 1550.74 LINE",
"1209.8 1550.74 LINE",
"952.841 1873.69 LINE",
"741.877 1873.69 LINE",
"485.919 1550.74 LINE",
"708.882 1550.74 LINE"
);
}
);
width = 1709;
}
);
unicode = 00C2;
},
{
glyphname = Atilde;
layers = (
{
layerId = "C85A2332-1B89-4390-846F-6AFC3F1E970B";
name = Bold;
paths = (
{
closed = 1;
nodes = (
"665.889 587.902 OFFCURVE",
"683.886 641.893 OFFCURVE",
"700.883 694.884 CURVE SMOOTH",
"717.88 746.876 OFFCURVE",
"735.878 797.867 OFFCURVE",
"752.875 848.859 CURVE SMOOTH",
"769.872 899.85 OFFCURVE",
"785.869 949.842 OFFCURVE",
"802.866 1000.83 CURVE SMOOTH",
"819.864 1051.82 OFFCURVE",
"836.861 1103.82 OFFCURVE",
"854.858 1157.81 CURVE",
"1063.82 531.911 LINE",
"646.892 531.911 LINE"
);
},
{
closed = 1;
nodes = (
"563.906 230.962 LINE",
"1144.81 230.962 LINE",
"1197.8 0 LINE",
"1559.74 0 LINE",
"970.838 1492.75 LINE",
"739.877 1492.75 LINE",
"149.975 0 LINE",
"491.918 0 LINE"
);
},
{
closed = 1;
nodes = (
"867.856 1606.73 OFFCURVE",
"895.851 1594.73 OFFCURVE",
"916.847 1588.74 CURVE",
"937.844 1583.74 OFFCURVE",
"959.84 1580.74 OFFCURVE",
"986.836 1580.74 CURVE SMOOTH",
"1049.83 1580.74 OFFCURVE",
"1102.82 1607.73 OFFCURVE",
"1139.81 1656.72 CURVE SMOOTH",
"1176.8 1704.72 OFFCURVE",
"1197.8 1774.7 OFFCURVE",
"1200.8 1859.69 CURVE",
"1008.83 1859.69 LINE",
"1008.83 1816.7 LINE SMOOTH",
"1008.83 1787.7 OFFCURVE",
"997.834 1767.71 OFFCURVE",
"978.837 1767.71 CURVE SMOOTH",
"967.839 1767.71 OFFCURVE",
"950.842 1773.7 OFFCURVE",
"929.845 1786.7 CURVE",
"875.854 1814.7 LINE",
"876.854 1814.7 LINE",
"843.86 1833.69 OFFCURVE",
"818.864 1843.69 OFFCURVE",
"794.868 1850.69 CURVE SMOOTH",
"770.872 1857.69 OFFCURVE",
"749.875 1859.69 OFFCURVE",
"722.88 1859.69 CURVE SMOOTH",
"658.89 1859.69 OFFCURVE",
"604.899 1832.69 OFFCURVE",
"567.905 1784.7 CURVE SMOOTH",
"530.912 1735.71 OFFCURVE",
"509.915 1665.72 OFFCURVE",
"509.915 1580.74 CURVE",
"700.883 1580.74 LINE",
"700.883 1623.73 LINE SMOOTH",
"700.883 1655.72 OFFCURVE",
"711.882 1674.72 OFFCURVE",
"734.878 1674.72 CURVE SMOOTH",
"740.877 1674.72 OFFCURVE",
"755.874 1668.72 OFFCURVE",
"778.87 1655.72 CURVE SMOOTH",
"832.861 1624.73 LINE"
);
}
);
width = 1709;
}
);
unicode = 00C3;
},
{
glyphname = Adieresis;
layers = (
{
layerId = "C85A2332-1B89-4390-846F-6AFC3F1E970B";
name = Bold;
paths = (
{
closed = 1;
nodes = (
"665.889 587.902 OFFCURVE",
"683.886 641.893 OFFCURVE",
"700.883 694.884 CURVE SMOOTH",
"717.88 746.876 OFFCURVE",
"735.878 797.867 OFFCURVE",
"752.875 848.859 CURVE SMOOTH",
"769.872 899.85 OFFCURVE",
"785.869 949.842 OFFCURVE",
"802.866 1000.83 CURVE SMOOTH",
"819.864 1051.82 OFFCURVE",
"836.861 1103.82 OFFCURVE",
"854.858 1157.81 CURVE",
"1063.82 531.911 LINE",
"646.892 531.911 LINE"
);
},
{
closed = 1;
nodes = (
"563.906 230.962 LINE",
"1144.81 230.962 LINE",
"1197.8 0 LINE",
"1559.74 0 LINE",
"970.838 1492.75 LINE",
"739.877 1492.75 LINE",
"149.975 0 LINE",
"491.918 0 LINE"
);
},
{
closed = 1;
nodes = (
"1157.81 1844.69 LINE",
"893.851 1844.69 LINE",
"893.851 1580.74 LINE",
"1157.81 1580.74 LINE"
);
},
{
closed = 1;
nodes = (
"793.868 1844.69 LINE",
"528.912 1844.69 LINE",
"528.912 1580.74 LINE",
"793.868 1580.74 LINE"
);
}
);
width = 1709;
}
);
unicode = 00C4;
},
{
glyphname = Aring;
layers = (
{
layerId = "C85A2332-1B89-4390-846F-6AFC3F1E970B";
name = Bold;
paths = (
{
closed = 1;
nodes = (
"960.84 1521.75 OFFCURVE",
"914.848 1475.75 OFFCURVE",
"854.858 1475.75 CURVE SMOOTH",
"794.868 1475.75 OFFCURVE",
"748.875 1521.75 OFFCURVE",
"748.875 1580.74 CURVE SMOOTH",
"748.875 1641.73 OFFCURVE",
"794.868 1687.72 OFFCURVE",
"854.858 1687.72 CURVE SMOOTH",
"910.848 1687.72 OFFCURVE",
"960.84 1636.73 OFFCURVE",
"960.84 1580.74 CURVE SMOOTH"
);
},
{
closed = 1;
nodes = (
"668.889 648.892 OFFCURVE",
"686.886 696.884 OFFCURVE",
"703.883 743.876 CURVE SMOOTH",
"720.88 789.869 OFFCURVE",
"737.877 835.861 OFFCURVE",
"754.874 880.853 CURVE SMOOTH",
"787.869 970.838 OFFCURVE",
"820.863 1058.82 OFFCURVE",
"855.858 1153.81 CURVE",
"1058.82 598.9 LINE",
"650.892 598.9 LINE"
);
},
{
closed = 1;
nodes = (
"563.906 363.939 LINE",
"1147.81 363.939 LINE",
"1277.79 0 LINE",
"1558.74 0 LINE",
"1043.83 1349.78 LINE",
"1115.81 1408.77 OFFCURVE",
"1153.81 1488.75 OFFCURVE",
"1153.81 1580.74 CURVE SMOOTH",
"1153.81 1663.72 OFFCURVE",
"1124.81 1734.71 OFFCURVE",
"1065.82 1791.7 CURVE SMOOTH",
"1008.83 1850.69 OFFCURVE",
"938.844 1879.69 OFFCURVE",
"854.858 1879.69 CURVE SMOOTH",
"687.885 1879.69 OFFCURVE",
"556.907 1748.71 OFFCURVE",
"556.907 1580.74 CURVE SMOOTH",
"556.907 1486.75 OFFCURVE",
"593.901 1409.77 OFFCURVE",
"666.889 1350.78 CURVE",
"149.975 0 LINE",
"433.928 0 LINE"
);
}
);
width = 1708;
}
);
unicode = 00C5;
},
{
glyphname = AE;
layers = (
{
layerId = "C85A2332-1B89-4390-846F-6AFC3F1E970B";
name = Bold;
paths = (
{
closed = 1;
nodes = (
"601.9 0 LINE",
"591.901 249.958 LINE",
"1016.83 249.958 LINE",
"1016.83 0 LINE",
"2006.67 0 LINE",
"2006.67 322.946 LINE",
"1284.79 322.946 LINE",
"1284.79 512.915 LINE",
"1959.67 512.915 LINE",
"1959.67 750.875 LINE",
"1284.79 750.875 LINE",
"1284.79 1255.79 LINE",
"1988.67 1255.79 LINE",
"1988.67 1492.75 LINE",
"774.871 1492.75 LINE",
"149.975 0 LINE"
);
},
{
closed = 1;
nodes = (
"673.888 484.919 LINE",
"959.84 1266.79 LINE",
"1016.83 1266.79 LINE",
"1016.83 484.919 LINE"
);
}
);
width = 2156;
}
);
unicode = 00C6;
},
{
glyphname = Ccedilla;
layers = (
{
layerId = "C85A2332-1B89-4390-846F-6AFC3F1E970B";
name = Bold;
paths = (
{
closed = 1;
nodes = (
"1217.8 1467.76 OFFCURVE",
"1054.82 1518.75 OFFCURVE",
"879.854 1518.75 CURVE SMOOTH",
"427.929 1518.75 OFFCURVE",
"149.975 1217.8 OFFCURVE",
"149.975 744.876 CURVE SMOOTH",
"149.975 269.955 OFFCURVE",
"428.929 -28 OFFCURVE",
"879.854 -28 CURVE SMOOTH",
"1055.82 -28 OFFCURVE",
"1216.8 23.996 OFFCURVE",
"1367.77 126.979 CURVE",
"1367.77 567.905 LINE",
"1200.8 412.931 OFFCURVE",
"1045.83 338.944 OFFCURVE",
"890.852 338.944 CURVE SMOOTH",
"581.903 338.944 OFFCURVE",
"432.928 439.927 OFFCURVE",
"427.929 744.876 CURVE",
"427.929 1096.82 OFFCURVE",
"589.902 1284.79 OFFCURVE",
"890.852 1284.79 CURVE SMOOTH",
"1045.83 1284.79 OFFCURVE",
"1200.8 1210.8 OFFCURVE",
"1367.77 1055.82 CURVE",
"1367.77 1365.77 LINE"
);
},
{
closed = 1;
nodes = (
"736.877 19.9967 OFFCURVE",
"766.872 -23 OFFCURVE",
"786.869 -56 CURVE SMOOTH",
"805.866 -89 OFFCURVE",
"815.864 -114 OFFCURVE",
"815.864 -129 CURVE SMOOTH",
"815.864 -162 OFFCURVE",
"790.868 -179 OFFCURVE",
"741.877 -179 CURVE SMOOTH",
"689.885 -179 OFFCURVE",
"635.894 -164 OFFCURVE",
"559.907 -125 CURVE",
"559.907 -338 LINE",
"634.894 -358 OFFCURVE",
"699.883 -369 OFFCURVE",
"760.873 -369 CURVE SMOOTH",
"932.845 -369 OFFCURVE",
"1020.83 -300 OFFCURVE",
"1020.83 -163 CURVE SMOOTH",
"1020.83 -92 OFFCURVE",
"981.837 -20 OFFCURVE",
"898.85 74.9875 CURVE",
"696.884 74.9875 LINE"
);
}
);
width = 1517;
}
);
unicode = 00C7;
},
{
glyphname = Egrave;
layers = (
{
layerId = "C85A2332-1B89-4390-846F-6AFC3F1E970B";
name = Bold;
paths = (
{
closed = 1;
nodes = (
"1138.81 369.938 LINE",
"417.93 369.938 LINE",
"417.93 674.888 LINE",
"1091.82 674.888 LINE",
"1091.82 911.848 LINE",
"417.93 911.848 LINE",
"417.93 1255.79 LINE",
"1121.81 1255.79 LINE",
"1121.81 1492.75 LINE",
"149.975 1492.75 LINE",
"149.975 0 LINE",
"1138.81 0 LINE"
);
},
{
closed = 1;
nodes = (
"668.889 1550.74 LINE",
"430.928 1871.69 LINE",
"156.974 1871.69 LINE",
"435.927 1550.74 LINE"
);
}
);
width = 1288;
}
);
unicode = 00C8;
},
{
glyphname = Eacute;
layers = (
{
layerId = "C85A2332-1B89-4390-846F-6AFC3F1E970B";
name = Bold;
paths = (
{
closed = 1;
nodes = (
"1138.81 369.938 LINE",
"417.93 369.938 LINE",
"417.93 674.888 LINE",
"1091.82 674.888 LINE",
"1091.82 911.848 LINE",
"417.93 911.848 LINE",
"417.93 1255.79 LINE",
"1121.81 1255.79 LINE",
"1121.81 1492.75 LINE",
"149.975 1492.75 LINE",
"149.975 0 LINE",
"1138.81 0 LINE"
);
},
{
closed = 1;
nodes = (
"846.859 1871.69 LINE",
"573.904 1871.69 LINE",
"334.944 1550.74 LINE",
"569.905 1550.74 LINE"
);
}
);
width = 1288;
}
);
unicode = 00C9;
},
{
glyphname = Ecircumflex;
layers = (
{
layerId = "C85A2332-1B89-4390-846F-6AFC3F1E970B";
name = Bold;
paths = (
{
closed = 1;
nodes = (
"1138.81 369.938 LINE",
"417.93 369.938 LINE",
"417.93 674.888 LINE",
"1091.82 674.888 LINE",
"1091.82 911.848 LINE",
"417.93 911.848 LINE",
"417.93 1255.79 LINE",
"1121.81 1255.79 LINE",
"1121.81 1492.75 LINE",
"149.975 1492.75 LINE",
"149.975 0 LINE",
"1138.81 0 LINE"
);
},
{
closed = 1;
nodes = (
"478.92 1573.74 OFFCURVE",
"501.916 1598.73 OFFCURVE",
"525.912 1624.73 CURVE SMOOTH",
"548.909 1650.73 OFFCURVE",
"572.905 1675.72 OFFCURVE",
"595.901 1699.72 CURVE",
"735.878 1550.74 LINE",
"958.84 1550.74 LINE",
"701.883 1873.69 LINE",
"490.918 1873.69 LINE",
"234.961 1550.74 LINE",
"457.924 1550.74 LINE"
);
}
);
width = 1288;
}
);
unicode = 00CA;
},
{
glyphname = Edieresis;
layers = (
{
layerId = "C85A2332-1B89-4390-846F-6AFC3F1E970B";
name = Bold;
paths = (
{
closed = 1;
nodes = (
"1138.81 369.938 LINE",
"417.93 369.938 LINE",
"417.93 674.888 LINE",
"1091.82 674.888 LINE",
"1091.82 911.848 LINE",
"417.93 911.848 LINE",
"417.93 1255.79 LINE",
"1121.81 1255.79 LINE",
"1121.81 1492.75 LINE",
"149.975 1492.75 LINE",
"149.975 0 LINE",
"1138.81 0 LINE"
);
},
{
closed = 1;
nodes = (
"936.844 1844.69 LINE",
"672.888 1844.69 LINE",
"672.888 1580.74 LINE",
"936.844 1580.74 LINE"
);
},
{
closed = 1;
nodes = (
"572.905 1844.69 LINE",
"307.949 1844.69 LINE",
"307.949 1580.74 LINE",
"572.905 1580.74 LINE"
);
}
);
width = 1288;
}
);
unicode = 00CB;
},
{
glyphname = Igrave;
layers = (
{
layerId = "C85A2332-1B89-4390-846F-6AFC3F1E970B";
name = Bold;
paths = (
{
closed = 1;
nodes = (
"707.882 1492.75 LINE",
"450.925 1492.75 LINE",
"419.93 0 LINE",
"726.879 0 LINE"
);
},
{
closed = 1;
nodes = (
"661.89 1550.74 LINE",
"423.929 1871.69 LINE",
"149.975 1871.69 LINE",
"428.929 1550.74 LINE"
);
}
);
width = 876;
}
);
unicode = 00CC;
},
{
glyphname = Iacute;
layers = (
{
layerId = "C85A2332-1B89-4390-846F-6AFC3F1E970B";
name = Bold;
paths = (
{
closed = 1;
nodes = (
"437.927 1492.75 LINE",
"180.97 1492.75 LINE",
"149.975 0 LINE",
"456.924 0 LINE"
);
},
{
closed = 1;
nodes = (
"669.888 1871.69 LINE",
"396.934 1871.69 LINE",
"157.974 1550.74 LINE",
"392.935 1550.74 LINE"
);
}
);
width = 819;
}
);
unicode = 00CD;
},
{
glyphname = Icircumflex;
layers = (
{
layerId = "C85A2332-1B89-4390-846F-6AFC3F1E970B";
name = Bold;
paths = (
{
closed = 1;
nodes = (
"649.892 1492.75 LINE",
"392.935 1492.75 LINE",
"361.94 0 LINE",
"668.889 0 LINE"
);
},
{
closed = 1;
nodes = (
"393.934 1573.74 OFFCURVE",
"416.931 1598.73 OFFCURVE",
"440.927 1624.73 CURVE SMOOTH",
"463.923 1650.73 OFFCURVE",
"487.919 1675.72 OFFCURVE",
"510.915 1699.72 CURVE",
"650.892 1550.74 LINE",
"873.855 1550.74 LINE",
"616.897 1873.69 LINE",
"405.932 1873.69 LINE",
"149.975 1550.74 LINE",
"372.938 1550.74 LINE"
);
}
);
width = 1023;
}
);
unicode = 00CE;
},
{
glyphname = Idieresis;
layers = (
{
layerId = "C85A2332-1B89-4390-846F-6AFC3F1E970B";
name = Bold;
paths = (
{
closed = 1;
nodes = (
"556.907 1492.75 LINE",
"299.95 1492.75 LINE",
"268.955 0 LINE",
"575.904 0 LINE"
);
},
{
closed = 1;
nodes = (
"778.87 1844.69 LINE",
"514.914 1844.69 LINE",
"514.914 1580.74 LINE",
"778.87 1580.74 LINE"
);
},
{
closed = 1;
nodes = (
"414.931 1844.69 LINE",
"149.975 1844.69 LINE",
"149.975 1580.74 LINE",
"414.931 1580.74 LINE"
);
}
);
width = 928;
}
);
unicode = 00CF;
},
{
glyphname = Eth;
layers = (
{
layerId = "C85A2332-1B89-4390-846F-6AFC3F1E970B";
name = Bold;
paths = (
{
closed = 1;
nodes = (
"149.975 663.89 LINE",
"340.943 663.89 LINE",
"340.943 0 LINE",
"773.871 0 LINE SMOOTH",
"1052.82 0 OFFCURVE",
"1265.79 63.9893 OFFCURVE",
"1401.77 180.97 CURVE SMOOTH",
"1536.74 304.949 OFFCURVE",
"1607.73 492.918 OFFCURVE",
"1607.73 747.876 CURVE SMOOTH",
"1607.73 999.834 OFFCURVE",
"1535.74 1188.8 OFFCURVE",
"1402.77 1311.78 CURVE",
"1266.79 1428.76 OFFCURVE",
"1052.82 1492.75 OFFCURVE",
"773.871 1492.75 CURVE SMOOTH",
"340.943 1492.75 LINE",
"340.943 876.854 LINE",
"149.975 876.854 LINE"
);
},
{
closed = 1;
nodes = (
"1170.81 1259.79 OFFCURVE",
"1329.78 1103.82 OFFCURVE",
"1329.78 747.876 CURVE SMOOTH",
"1329.78 387.935 OFFCURVE",
"1170.81 336.944 OFFCURVE",
"801.867 336.944 CURVE SMOOTH",
"609.898 336.944 LINE",
"609.898 663.89 LINE",
"928.845 663.89 LINE",
"928.845 876.854 LINE",
"609.898 876.854 LINE",
"609.898 1259.79 LINE",
"801.867 1259.79 LINE SMOOTH"
);
}
);
width = 1757;
}
);
unicode = 00D0;
},
{
glyphname = Ntilde;
layers = (
{
layerId = "C85A2332-1B89-4390-846F-6AFC3F1E970B";
name = Bold;
paths = (
{
closed = 1;
nodes = (
"462.923 170.972 OFFCURVE",
"454.924 344.943 OFFCURVE",
"446.926 523.913 CURVE SMOOTH",
"437.927 702.883 OFFCURVE",
"429.928 878.854 OFFCURVE",
"420.93 1053.82 CURVE",
"979.837 0 LINE",
"1317.78 0 LINE",
"1317.78 1492.75 LINE",
"1065.82 1492.75 LINE",
"1039.83 450.925 LINE",
"487.919 1464.76 LINE",
"188.969 1464.76 LINE",
"149.975 0 LINE",
"470.922 0 LINE"
);
},
{
closed = 1;
nodes = (
"699.883 1606.73 OFFCURVE",
"727.879 1594.73 OFFCURVE",
"748.875 1588.74 CURVE",
"769.872 1583.74 OFFCURVE",
"791.868 1580.74 OFFCURVE",
"818.864 1580.74 CURVE SMOOTH",
"881.853 1580.74 OFFCURVE",
"934.844 1607.73 OFFCURVE",
"971.838 1656.72 CURVE SMOOTH",
"1008.83 1704.72 OFFCURVE",
"1029.83 1774.7 OFFCURVE",
"1032.83 1859.69 CURVE",
"840.86 1859.69 LINE",
"840.86 1816.7 LINE SMOOTH",
"840.86 1787.7 OFFCURVE",
"829.862 1767.71 OFFCURVE",
"810.865 1767.71 CURVE SMOOTH",
"799.867 1767.71 OFFCURVE",
"782.87 1773.7 OFFCURVE",
"761.873 1786.7 CURVE",
"707.882 1814.7 LINE",
"708.882 1814.7 LINE",
"675.888 1833.69 OFFCURVE",
"650.892 1843.69 OFFCURVE",
"626.896 1850.69 CURVE SMOOTH",
"602.9 1857.69 OFFCURVE",
"581.903 1859.69 OFFCURVE",
"554.908 1859.69 CURVE SMOOTH",
"490.918 1859.69 OFFCURVE",
"436.927 1832.69 OFFCURVE",
"399.933 1784.7 CURVE SMOOTH",
"362.94 1735.71 OFFCURVE",
"341.943 1665.72 OFFCURVE",
"341.943 1580.74 CURVE",
"532.911 1580.74 LINE",
"532.911 1623.73 LINE SMOOTH",
"532.911 1655.72 OFFCURVE",
"543.909 1674.72 OFFCURVE",
"566.906 1674.72 CURVE SMOOTH",
"572.905 1674.72 OFFCURVE",
"587.902 1668.72 OFFCURVE",
"610.898 1655.72 CURVE SMOOTH",
"664.889 1624.73 LINE"
);
}
);
width = 1467;
}
);
unicode = 00D1;
},
{
glyphname = Ograve;
layers = (
{
layerId = "C85A2332-1B89-4390-846F-6AFC3F1E970B";
name = Bold;
paths = (
{
closed = 1;
nodes = (
"1097.82 1286.79 OFFCURVE",
"1258.79 1087.82 OFFCURVE",
"1258.79 744.876 CURVE SMOOTH",
"1258.79 480.92 OFFCURVE",
"1109.82 412.931 OFFCURVE",
"844.859 412.931 CURVE SMOOTH",
"712.881 412.931 OFFCURVE",
"607.899 436.927 OFFCURVE",
"531.911 481.92 CURVE",
"463.923 525.912 OFFCURVE",
"427.929 612.898 OFFCURVE",
"427.929 744.876 CURVE SMOOTH",
"427.929 911.848 OFFCURVE",
"469.922 1049.83 OFFCURVE",
"541.91 1145.81 CURVE",
"616.897 1233.79 OFFCURVE",
"720.88 1286.79 OFFCURVE",
"844.859 1286.79 CURVE SMOOTH"
);
},
{
closed = 1;
nodes = (
"633.894 1518.75 OFFCURVE",
"464.923 1447.76 OFFCURVE",
"337.944 1305.78 CURVE SMOOTH",
"212.965 1164.81 OFFCURVE",
"149.975 980.837 OFFCURVE",
"149.975 744.876 CURVE SMOOTH",
"149.975 511.915 OFFCURVE",
"212.965 324.946 OFFCURVE",
"337.944 183.969 CURVE SMOOTH",
"464.923 42.9928 OFFCURVE",
"633.894 -28 OFFCURVE",
"844.859 -28 CURVE SMOOTH",
"1053.82 -28 OFFCURVE",
"1221.8 42.9928 OFFCURVE",
"1349.78 183.969 CURVE SMOOTH",
"1474.75 324.946 OFFCURVE",
"1537.74 511.915 OFFCURVE",
"1537.74 744.876 CURVE SMOOTH",
"1537.74 980.837 OFFCURVE",
"1474.75 1164.81 OFFCURVE",
"1349.78 1305.78 CURVE SMOOTH",
"1222.8 1447.76 OFFCURVE",
"1053.82 1518.75 OFFCURVE",
"844.859 1518.75 CURVE SMOOTH"
);
},
{
closed = 1;
nodes = (
"970.838 1550.74 LINE",
"732.878 1871.69 LINE",
"458.924 1871.69 LINE",
"737.877 1550.74 LINE"
);
}
);
width = 1687;
}
);
unicode = 00D2;
},
{
glyphname = Oacute;
layers = (
{
layerId = "C85A2332-1B89-4390-846F-6AFC3F1E970B";
name = Bold;
paths = (
{
closed = 1;
nodes = (
"1097.82 1286.79 OFFCURVE",
"1258.79 1087.82 OFFCURVE",
"1258.79 744.876 CURVE SMOOTH",
"1258.79 480.92 OFFCURVE",
"1109.82 412.931 OFFCURVE",
"844.859 412.931 CURVE SMOOTH",
"712.881 412.931 OFFCURVE",
"607.899 436.927 OFFCURVE",
"531.911 481.92 CURVE",
"463.923 525.912 OFFCURVE",
"427.929 612.898 OFFCURVE",
"427.929 744.876 CURVE SMOOTH",
"427.929 911.848 OFFCURVE",
"469.922 1049.83 OFFCURVE",
"541.91 1145.81 CURVE",
"616.897 1233.79 OFFCURVE",
"720.88 1286.79 OFFCURVE",
"844.859 1286.79 CURVE SMOOTH"
);
},
{
closed = 1;
nodes = (
"633.894 1518.75 OFFCURVE",
"464.923 1447.76 OFFCURVE",
"337.944 1305.78 CURVE SMOOTH",
"212.965 1164.81 OFFCURVE",
"149.975 980.837 OFFCURVE",
"149.975 744.876 CURVE SMOOTH",
"149.975 511.915 OFFCURVE",
"212.965 324.946 OFFCURVE",
"337.944 183.969 CURVE SMOOTH",
"464.923 42.9928 OFFCURVE",
"633.894 -28 OFFCURVE",
"844.859 -28 CURVE SMOOTH",
"1053.82 -28 OFFCURVE",
"1221.8 42.9928 OFFCURVE",
"1349.78 183.969 CURVE SMOOTH",
"1474.75 324.946 OFFCURVE",
"1537.74 511.915 OFFCURVE",
"1537.74 744.876 CURVE SMOOTH",
"1537.74 980.837 OFFCURVE",
"1474.75 1164.81 OFFCURVE",
"1349.78 1305.78 CURVE SMOOTH",
"1222.8 1447.76 OFFCURVE",
"1053.82 1518.75 OFFCURVE",
"844.859 1518.75 CURVE SMOOTH"
);
},
{
closed = 1;
nodes = (
"1168.81 1871.69 LINE",
"895.851 1871.69 LINE",
"656.891 1550.74 LINE",
"891.852 1550.74 LINE"
);
}
);
width = 1687;
}
);
unicode = 00D3;
},
{
glyphname = Ocircumflex;
layers = (
{
layerId = "C85A2332-1B89-4390-846F-6AFC3F1E970B";
name = Bold;
paths = (
{
closed = 1;
nodes = (
"1097.82 1286.79 OFFCURVE",
"1258.79 1087.82 OFFCURVE",
"1258.79 744.876 CURVE SMOOTH",
"1258.79 480.92 OFFCURVE",
"1109.82 412.931 OFFCURVE",
"844.859 412.931 CURVE SMOOTH",
"712.881 412.931 OFFCURVE",
"607.899 436.927 OFFCURVE",
"531.911 481.92 CURVE",
"463.923 525.912 OFFCURVE",
"427.929 612.898 OFFCURVE",
"427.929 744.876 CURVE SMOOTH",
"427.929 911.848 OFFCURVE",
"469.922 1049.83 OFFCURVE",
"541.91 1145.81 CURVE",
"616.897 1233.79 OFFCURVE",
"720.88 1286.79 OFFCURVE",
"844.859 1286.79 CURVE SMOOTH"
);
},
{
closed = 1;
nodes = (
"633.894 1518.75 OFFCURVE",
"464.923 1447.76 OFFCURVE",
"337.944 1305.78 CURVE SMOOTH",
"212.965 1164.81 OFFCURVE",
"149.975 980.837 OFFCURVE",
"149.975 744.876 CURVE SMOOTH",
"149.975 511.915 OFFCURVE",
"212.965 324.946 OFFCURVE",
"337.944 183.969 CURVE SMOOTH",
"464.923 42.9928 OFFCURVE",
"633.894 -28 OFFCURVE",
"844.859 -28 CURVE SMOOTH",
"1053.82 -28 OFFCURVE",
"1221.8 42.9928 OFFCURVE",
"1349.78 183.969 CURVE SMOOTH",
"1474.75 324.946 OFFCURVE",
"1537.74 511.915 OFFCURVE",
"1537.74 744.876 CURVE SMOOTH",
"1537.74 980.837 OFFCURVE",
"1474.75 1164.81 OFFCURVE",
"1349.78 1305.78 CURVE SMOOTH",
"1222.8 1447.76 OFFCURVE",
"1053.82 1518.75 OFFCURVE",
"844.859 1518.75 CURVE SMOOTH"
);
},
{
closed = 1;
nodes = (
"710.882 1573.74 OFFCURVE",
"733.878 1598.73 OFFCURVE",
"757.874 1624.73 CURVE SMOOTH",
"780.87 1650.73 OFFCURVE",
"804.866 1675.72 OFFCURVE",
"827.862 1699.72 CURVE",
"967.839 1550.74 LINE",
"1190.8 1550.74 LINE",
"933.845 1873.69 LINE",
"722.88 1873.69 LINE",
"466.922 1550.74 LINE",
"689.885 1550.74 LINE"
);
}
);
width = 1687;
}
);
unicode = 00D4;
},
{
glyphname = Otilde;
layers = (
{
layerId = "C85A2332-1B89-4390-846F-6AFC3F1E970B";
name = Bold;
paths = (
{
closed = 1;
nodes = (
"1097.82 1286.79 OFFCURVE",
"1258.79 1087.82 OFFCURVE",
"1258.79 744.876 CURVE SMOOTH",
"1258.79 480.92 OFFCURVE",
"1109.82 412.931 OFFCURVE",
"844.859 412.931 CURVE SMOOTH",
"712.881 412.931 OFFCURVE",
"607.899 436.927 OFFCURVE",
"531.911 481.92 CURVE",
"463.923 525.912 OFFCURVE",
"427.929 612.898 OFFCURVE",
"427.929 744.876 CURVE SMOOTH",
"427.929 911.848 OFFCURVE",
"469.922 1049.83 OFFCURVE",
"541.91 1145.81 CURVE",
"616.897 1233.79 OFFCURVE",
"720.88 1286.79 OFFCURVE",
"844.859 1286.79 CURVE SMOOTH"
);
},
{
closed = 1;
nodes = (
"633.894 1518.75 OFFCURVE",
"464.923 1447.76 OFFCURVE",
"337.944 1305.78 CURVE SMOOTH",
"212.965 1164.81 OFFCURVE",
"149.975 980.837 OFFCURVE",
"149.975 744.876 CURVE SMOOTH",
"149.975 511.915 OFFCURVE",
"212.965 324.946 OFFCURVE",
"337.944 183.969 CURVE SMOOTH",
"464.923 42.9928 OFFCURVE",
"633.894 -28 OFFCURVE",
"844.859 -28 CURVE SMOOTH",
"1053.82 -28 OFFCURVE",
"1221.8 42.9928 OFFCURVE",
"1349.78 183.969 CURVE SMOOTH",
"1474.75 324.946 OFFCURVE",
"1537.74 511.915 OFFCURVE",
"1537.74 744.876 CURVE SMOOTH",
"1537.74 980.837 OFFCURVE",
"1474.75 1164.81 OFFCURVE",
"1349.78 1305.78 CURVE SMOOTH",
"1222.8 1447.76 OFFCURVE",
"1053.82 1518.75 OFFCURVE",
"844.859 1518.75 CURVE SMOOTH"
);
},
{
closed = 1;
nodes = (
"848.859 1606.73 OFFCURVE",
"876.854 1594.73 OFFCURVE",
"897.851 1588.74 CURVE",
"918.847 1583.74 OFFCURVE",
"940.843 1580.74 OFFCURVE",
"967.839 1580.74 CURVE SMOOTH",
"1030.83 1580.74 OFFCURVE",
"1083.82 1607.73 OFFCURVE",
"1120.81 1656.72 CURVE SMOOTH",
"1157.81 1704.72 OFFCURVE",
"1178.8 1774.7 OFFCURVE",
"1181.8 1859.69 CURVE",
"989.835 1859.69 LINE",
"989.835 1816.7 LINE SMOOTH",
"989.835 1787.7 OFFCURVE",
"978.837 1767.71 OFFCURVE",
"959.84 1767.71 CURVE SMOOTH",
"948.842 1767.71 OFFCURVE",
"931.845 1773.7 OFFCURVE",
"910.848 1786.7 CURVE",
"856.857 1814.7 LINE",
"857.857 1814.7 LINE",
"824.863 1833.69 OFFCURVE",
"799.867 1843.69 OFFCURVE",
"775.871 1850.69 CURVE SMOOTH",
"751.875 1857.69 OFFCURVE",
"730.878 1859.69 OFFCURVE",
"703.883 1859.69 CURVE SMOOTH",
"639.893 1859.69 OFFCURVE",
"585.902 1832.69 OFFCURVE",
"548.909 1784.7 CURVE SMOOTH",
"511.915 1735.71 OFFCURVE",
"490.918 1665.72 OFFCURVE",
"490.918 1580.74 CURVE",
"681.886 1580.74 LINE",
"681.886 1623.73 LINE SMOOTH",
"681.886 1655.72 OFFCURVE",
"692.885 1674.72 OFFCURVE",
"715.881 1674.72 CURVE SMOOTH",
"721.88 1674.72 OFFCURVE",
"736.877 1668.72 OFFCURVE",
"759.874 1655.72 CURVE SMOOTH",
"813.865 1624.73 LINE"
);
}
);
width = 1687;
}
);
unicode = 00D5;
},
{
glyphname = Odieresis;
layers = (
{
layerId = "C85A2332-1B89-4390-846F-6AFC3F1E970B";
name = Bold;
paths = (
{
closed = 1;
nodes = (
"1097.82 1286.79 OFFCURVE",
"1258.79 1087.82 OFFCURVE",
"1258.79 744.876 CURVE SMOOTH",
"1258.79 480.92 OFFCURVE",
"1109.82 412.931 OFFCURVE",
"844.859 412.931 CURVE SMOOTH",
"712.881 412.931 OFFCURVE",
"607.899 436.927 OFFCURVE",
"531.911 481.92 CURVE",
"463.923 525.912 OFFCURVE",
"427.929 612.898 OFFCURVE",
"427.929 744.876 CURVE SMOOTH",
"427.929 911.848 OFFCURVE",
"469.922 1049.83 OFFCURVE",
"541.91 1145.81 CURVE",
"616.897 1233.79 OFFCURVE",
"720.88 1286.79 OFFCURVE",
"844.859 1286.79 CURVE SMOOTH"
);
},
{
closed = 1;
nodes = (
"633.894 1518.75 OFFCURVE",
"464.923 1447.76 OFFCURVE",
"337.944 1305.78 CURVE SMOOTH",
"212.965 1164.81 OFFCURVE",
"149.975 980.837 OFFCURVE",
"149.975 744.876 CURVE SMOOTH",
"149.975 511.915 OFFCURVE",
"212.965 324.946 OFFCURVE",
"337.944 183.969 CURVE SMOOTH",
"464.923 42.9928 OFFCURVE",
"633.894 -28 OFFCURVE",
"844.859 -28 CURVE SMOOTH",
"1053.82 -28 OFFCURVE",
"1221.8 42.9928 OFFCURVE",
"1349.78 183.969 CURVE SMOOTH",
"1474.75 324.946 OFFCURVE",
"1537.74 511.915 OFFCURVE",
"1537.74 744.876 CURVE SMOOTH",
"1537.74 980.837 OFFCURVE",
"1474.75 1164.81 OFFCURVE",
"1349.78 1305.78 CURVE SMOOTH",
"1222.8 1447.76 OFFCURVE",
"1053.82 1518.75 OFFCURVE",
"844.859 1518.75 CURVE SMOOTH"
);
},
{
closed = 1;
nodes = (
"1218.8 1844.69 LINE",
"954.841 1844.69 LINE",
"954.841 1580.74 LINE",
"1218.8 1580.74 LINE"
);
},
{
closed = 1;
nodes = (
"854.858 1844.69 LINE",
"589.902 1844.69 LINE",
"589.902 1580.74 LINE",
"854.858 1580.74 LINE"
);
}
);
width = 1687;
}
);
unicode = 00D6;
},
{
glyphname = multiply;
layers = (
{
layerId = "C85A2332-1B89-4390-846F-6AFC3F1E970B";
name = Bold;
paths = (
{
closed = 1;
nodes = (
"376.937 1201.8 LINE",
"167.972 988.835 LINE",
"500.917 653.891 LINE",
"149.975 301.95 LINE",
"357.94 89.985 LINE",
"712.881 443.926 LINE",
"1066.82 89.985 LINE",
"1275.79 301.95 LINE",
"923.846 653.891 LINE",
"1285.79 1016.83 LINE",
"1075.82 1228.8 LINE",
"712.881 865.856 LINE"
);
}
);
width = 1435;
}
);
unicode = 00D7;
},
{
glyphname = Oslash;
layers = (
{
layerId = "C85A2332-1B89-4390-846F-6AFC3F1E970B";
name = Bold;
paths = (
{
closed = 1;
nodes = (
"1254.79 1001.83 OFFCURVE",
"1262.79 977.837 OFFCURVE",
"1269.79 954.841 CURVE SMOOTH",
"1280.79 919.847 OFFCURVE",
"1286.79 869.855 OFFCURVE",
"1286.79 806.866 CURVE",
"1262.79 643.893 OFFCURVE",
"1217.8 518.914 OFFCURVE",
"1161.81 458.924 CURVE",
"1102.82 401.933 OFFCURVE",
"1003.83 362.94 OFFCURVE",
"876.854 343.943 CURVE",
"819.864 343.943 OFFCURVE",
"772.871 344.943 OFFCURVE",
"735.878 345.942 CURVE",
"715.881 348.942 OFFCURVE",
"696.884 352.941 OFFCURVE",
"675.888 363.939 CURVE",
"1243.79 1026.83 LINE"
);
},
{
closed = 1;
nodes = (
"503.916 542.91 OFFCURVE",
"484.919 575.904 OFFCURVE",
"463.923 614.898 CURVE",
"464.923 613.898 LINE",
"440.927 662.89 OFFCURVE",
"426.929 718.88 OFFCURVE",
"426.929 782.87 CURVE SMOOTH",
"426.929 949.842 OFFCURVE",
"468.922 1087.82 OFFCURVE",
"540.91 1183.8 CURVE",
"613.898 1270.79 OFFCURVE",
"719.88 1323.78 OFFCURVE",
"840.86 1324.78 CURVE",
"915.848 1317.78 OFFCURVE",
"975.838 1306.78 OFFCURVE",
"1022.83 1285.79 CURVE",
"1061.82 1270.79 OFFCURVE",
"1093.82 1241.79 OFFCURVE",
"1124.81 1202.8 CURVE",
"530.912 510.915 LINE"
);
},
{
closed = 1;
nodes = (
"459.923 100.983 LINE",
"576.904 12.9978 OFFCURVE",
"712.881 -28 OFFCURVE",
"871.855 -28 CURVE SMOOTH",
"1083.82 -28 OFFCURVE",
"1249.79 42.9928 OFFCURVE",
"1376.77 183.969 CURVE SMOOTH",
"1501.75 323.946 OFFCURVE",
"1564.74 510.915 OFFCURVE",
"1564.74 744.876 CURVE SMOOTH",
"1564.74 941.843 OFFCURVE",
"1516.75 1109.82 OFFCURVE",
"1425.76 1242.79 CURVE",
"1591.74 1436.76 LINE",
"1437.76 1570.74 LINE",
"1282.79 1388.77 LINE",
"1169.81 1473.75 OFFCURVE",
"1031.83 1518.75 OFFCURVE",
"871.855 1518.75 CURVE SMOOTH",
"450.925 1518.75 OFFCURVE",
"177.97 1211.8 OFFCURVE",
"177.97 744.876 CURVE SMOOTH",
"177.97 547.909 OFFCURVE",
"224.963 380.937 OFFCURVE",
"315.947 247.959 CURVE",
"149.975 50.9915 LINE",
"304.949 -82 LINE"
);
}
);
width = 1741;
}
);
unicode = 00D8;
},
{
glyphname = Ugrave;
layers = (
{
layerId = "C85A2332-1B89-4390-846F-6AFC3F1E970B";
name = Bold;
paths = (
{
closed = 1;
nodes = (
"163.973 176.971 OFFCURVE",
"357.94 -28 OFFCURVE",
"740.877 -28 CURVE SMOOTH",
"1124.81 -28 OFFCURVE",
"1316.78 173.971 OFFCURVE",
"1320.78 569.905 CURVE SMOOTH",
"1330.78 1492.75 LINE",
"1062.82 1492.75 LINE",
"1052.82 726.879 LINE SMOOTH",
"1050.83 584.903 OFFCURVE",
"1027.83 482.92 OFFCURVE",
"978.837 421.93 CURVE",
"978.837 422.93 LINE",
"931.845 365.939 OFFCURVE",
"851.858 336.944 OFFCURVE",
"740.877 336.944 CURVE SMOOTH",
"629.895 336.944 OFFCURVE",
"549.908 365.939 OFFCURVE",
"502.916 422.93 CURVE",
"502.916 421.93 LINE",
"453.924 482.92 OFFCURVE",
"430.928 584.903 OFFCURVE",
"428.929 726.879 CURVE SMOOTH",
"418.93 1492.75 LINE",
"149.975 1492.75 LINE",
"159.973 569.905 LINE SMOOTH"
);
},
{
closed = 1;
nodes = (
"860.857 1550.74 LINE",
"622.896 1871.69 LINE",
"348.942 1871.69 LINE",
"627.896 1550.74 LINE"
);
}
);
width = 1480;
}
);
unicode = 00D9;
},
{
glyphname = Uacute;
layers = (
{
layerId = "C85A2332-1B89-4390-846F-6AFC3F1E970B";
name = Bold;
paths = (
{
closed = 1;
nodes = (
"149.975 176.971 OFFCURVE",
"347.942 -28 OFFCURVE",
"730.878 -28 CURVE SMOOTH",
"1114.81 -28 OFFCURVE",
"1310.78 173.971 OFFCURVE",
"1310.78 569.905 CURVE SMOOTH",
"1310.78 1492.75 LINE",
"1042.83 1492.75 LINE",
"1042.83 726.879 LINE SMOOTH",
"1042.83 584.903 OFFCURVE",
"1017.83 482.92 OFFCURVE",
"968.839 421.93 CURVE",
"968.839 422.93 LINE",
"921.847 365.939 OFFCURVE",
"841.86 336.944 OFFCURVE",
"730.878 336.944 CURVE SMOOTH",
"619.897 336.944 OFFCURVE",
"539.91 365.939 OFFCURVE",
"492.918 422.93 CURVE",
"492.918 421.93 LINE",
"443.926 482.92 OFFCURVE",
"418.93 584.903 OFFCURVE",
"418.93 726.879 CURVE SMOOTH",
"418.93 1492.75 LINE",
"149.975 1492.75 LINE",
"149.975 569.905 LINE SMOOTH"
);
},
{
closed = 1;
nodes = (
"1088.82 1871.69 LINE",
"815.864 1871.69 LINE",
"576.904 1550.74 LINE",
"811.865 1550.74 LINE"
);
}
);
width = 1460;
}
);
unicode = 00DA;
},
{
glyphname = Ucircumflex;
layers = (
{
layerId = "C85A2332-1B89-4390-846F-6AFC3F1E970B";
name = Bold;
paths = (
{
closed = 1;
nodes = (
"149.975 176.971 OFFCURVE",
"347.942 -28 OFFCURVE",
"730.878 -28 CURVE SMOOTH",
"1114.81 -28 OFFCURVE",
"1310.78 173.971 OFFCURVE",
"1310.78 569.905 CURVE SMOOTH",
"1310.78 1492.75 LINE",
"1042.83 1492.75 LINE",
"1042.83 726.879 LINE SMOOTH",
"1042.83 584.903 OFFCURVE",
"1017.83 482.92 OFFCURVE",
"968.839 421.93 CURVE",
"968.839 422.93 LINE",
"921.847 365.939 OFFCURVE",
"841.86 336.944 OFFCURVE",
"730.878 336.944 CURVE SMOOTH",
"619.897 336.944 OFFCURVE",
"539.91 365.939 OFFCURVE",
"492.918 422.93 CURVE",
"492.918 421.93 LINE",
"443.926 482.92 OFFCURVE",
"418.93 584.903 OFFCURVE",
"418.93 726.879 CURVE SMOOTH",
"418.93 1492.75 LINE",
"149.975 1492.75 LINE",
"149.975 569.905 LINE SMOOTH"
);
},
{
closed = 1;
nodes = (
"610.898 1573.74 OFFCURVE",
"633.894 1598.73 OFFCURVE",
"657.891 1624.73 CURVE SMOOTH",
"680.887 1650.73 OFFCURVE",
"704.883 1675.72 OFFCURVE",
"727.879 1699.72 CURVE",
"867.856 1550.74 LINE",
"1090.82 1550.74 LINE",
"833.861 1873.69 LINE",
"622.896 1873.69 LINE",
"366.939 1550.74 LINE",
"589.902 1550.74 LINE"
);
}
);
width = 1460;
}
);
unicode = 00DB;
},
{
glyphname = Udieresis;
layers = (
{
layerId = "C85A2332-1B89-4390-846F-6AFC3F1E970B";
name = Bold;
paths = (
{
closed = 1;
nodes = (
"149.975 176.971 OFFCURVE",
"347.942 -28 OFFCURVE",
"730.878 -28 CURVE SMOOTH",
"1114.81 -28 OFFCURVE",
"1310.78 173.971 OFFCURVE",
"1310.78 569.905 CURVE SMOOTH",
"1310.78 1492.75 LINE",
"1042.83 1492.75 LINE",
"1042.83 726.879 LINE SMOOTH",
"1042.83 584.903 OFFCURVE",
"1017.83 482.92 OFFCURVE",
"968.839 421.93 CURVE",
"968.839 422.93 LINE",
"921.847 365.939 OFFCURVE",
"841.86 336.944 OFFCURVE",
"730.878 336.944 CURVE SMOOTH",
"619.897 336.944 OFFCURVE",
"539.91 365.939 OFFCURVE",
"492.918 422.93 CURVE",
"492.918 421.93 LINE",
"443.926 482.92 OFFCURVE",
"418.93 584.903 OFFCURVE",
"418.93 726.879 CURVE SMOOTH",
"418.93 1492.75 LINE",
"149.975 1492.75 LINE",
"149.975 569.905 LINE SMOOTH"
);
},
{
closed = 1;
nodes = (
"1068.82 1844.69 LINE",
"804.866 1844.69 LINE",
"804.866 1580.74 LINE",
"1068.82 1580.74 LINE"
);
},
{
closed = 1;
nodes = (
"704.883 1844.69 LINE",
"439.927 1844.69 LINE",
"439.927 1580.74 LINE",
"704.883 1580.74 LINE"
);
}
);
width = 1460;
}
);
unicode = 00DC;
},
{
glyphname = Yacute;
layers = (
{
layerId = "C85A2332-1B89-4390-846F-6AFC3F1E970B";
name = Bold;
paths = (
{
closed = 1;
nodes = (
"971.838 0 LINE",
"971.838 512.915 LINE",
"1468.76 1492.75 LINE",
"1177.8 1492.75 LINE",
"810.865 808.865 LINE",
"440.927 1492.75 LINE",
"149.975 1492.75 LINE",
"636.894 512.915 LINE",
"636.894 0 LINE"
);
},
{
closed = 1;
nodes = (
"1147.81 1871.69 LINE",
"874.854 1871.69 LINE",
"635.894 1550.74 LINE",
"870.855 1550.74 LINE"
);
}
);
width = 1618;
}
);
unicode = 00DD;
},
{
glyphname = Thorn;
layers = (
{
layerId = "C85A2332-1B89-4390-846F-6AFC3F1E970B";
name = Bold;
paths = (
{
closed = 1;
nodes = (
"417.93 320.947 LINE",
"620.897 320.947 LINE SMOOTH",
"965.839 320.947 OFFCURVE",
"1140.81 476.921 OFFCURVE",
"1140.81 781.87 CURVE SMOOTH",
"1140.81 1086.82 OFFCURVE",
"965.839 1241.79 OFFCURVE",
"620.897 1241.79 CURVE SMOOTH",
"417.93 1241.79 LINE",
"417.93 1492.75 LINE",
"149.975 1492.75 LINE",
"149.975 0 LINE",
"417.93 0 LINE"
);
},
{
closed = 1;
nodes = (
"776.871 1008.83 OFFCURVE",
"862.856 926.846 OFFCURVE",
"862.856 781.87 CURVE SMOOTH",
"862.856 636.894 OFFCURVE",
"776.871 553.908 OFFCURVE",
"620.897 553.908 CURVE SMOOTH",
"417.93 553.908 LINE",
"417.93 1008.83 LINE",
"620.897 1008.83 LINE SMOOTH"
);
}
);
width = 1290;
}
);
unicode = 00DE;
},
{
glyphname = germandbls;
layers = (
{
layerId = "C85A2332-1B89-4390-846F-6AFC3F1E970B";
name = Bold;
paths = (
{
closed = 1;
nodes = (
"478.92 174.971 OFFCURVE",
"470.922 360.94 OFFCURVE",
"462.923 545.909 CURVE SMOOTH",
"454.924 730.878 OFFCURVE",
"446.926 915.848 OFFCURVE",
"438.927 1091.82 CURVE",
"461.923 1286.79 OFFCURVE",
"527.912 1346.78 OFFCURVE",
"667.889 1346.78 CURVE SMOOTH",
"795.868 1346.78 OFFCURVE",
"837.861 1335.78 OFFCURVE",
"914.848 1174.8 CURVE",
"701.883 1133.81 OFFCURVE",
"624.896 1012.83 OFFCURVE",
"624.896 839.86 CURVE SMOOTH",
"624.896 774.871 OFFCURVE",
"639.893 717.88 OFFCURVE",
"670.888 670.888 CURVE SMOOTH",
"697.884 630.895 OFFCURVE",
"725.879 589.902 OFFCURVE",
"760.873 546.909 CURVE",
"842.86 490.918 LINE",
"903.85 453.924 OFFCURVE",
"940.843 424.929 OFFCURVE",
"953.841 403.933 CURVE",
"967.839 384.936 OFFCURVE",
"974.838 364.939 OFFCURVE",
"974.838 345.942 CURVE SMOOTH",
"974.838 320.947 OFFCURVE",
"959.84 300.95 OFFCURVE",
"929.845 286.952 CURVE SMOOTH",
"898.85 272.955 OFFCURVE",
"853.858 265.956 OFFCURVE",
"792.868 265.956 CURVE SMOOTH",
"712.881 265.956 OFFCURVE",
"617.897 288.952 OFFCURVE",
"488.919 336.944 CURVE",
"488.919 28.9952 LINE",
"600.9 -7 OFFCURVE",
"696.884 -27 OFFCURVE",
"780.87 -27 CURVE SMOOTH",
"1069.82 -27 OFFCURVE",
"1225.8 101.983 OFFCURVE",
"1225.8 341.943 CURVE SMOOTH",
"1225.8 481.92 OFFCURVE",
"1181.8 558.907 OFFCURVE",
"962.84 697.884 CURVE SMOOTH",
"909.849 732.878 LINE",
"910.848 732.878 LINE",
"841.86 776.871 OFFCURVE",
"812.865 815.864 OFFCURVE",
"812.865 859.857 CURVE SMOOTH",
"812.865 955.841 OFFCURVE",
"920.847 1017.83 OFFCURVE",
"1111.81 1028.83 CURVE",
"1106.82 1356.77 OFFCURVE",
"956.841 1526.75 OFFCURVE",
"671.888 1526.75 CURVE SMOOTH",
"527.912 1526.75 OFFCURVE",
"413.931 1488.75 OFFCURVE",
"330.945 1413.76 CURVE SMOOTH",
"248.959 1337.78 OFFCURVE",
"207.965 1232.79 OFFCURVE",
"207.965 1099.82 CURVE",
"149.975 0 LINE",
"486.919 0 LINE"
);
}
);
width = 1375;
}
);
unicode = 00DF;
},
{
glyphname = agrave;
lastChange = "2013-01-12 20:51:28 -0500";
layers = (
{
components = (
{
name = a;
transform = "{1, 0, 0, 1, 0, 0}";
}
);
layerId = "C85A2332-1B89-4390-846F-6AFC3F1E970B";
name = Bold;
paths = (
{
closed = 1;
nodes = (
"826.862 1179.8 LINE",
"506.916 1602.73 LINE",
"240.96 1602.73 LINE",
"474.921 1179.8 LINE"
);
}
);
width = 1257;
}
);
unicode = 00E0;
},
{
glyphname = aacute;
lastChange = "2013-01-12 20:51:34 -0500";
layers = (
{
components = (
{
name = a;
transform = "{1, 0, 0, 1, 0, 0}";
}
);
layerId = "C85A2332-1B89-4390-846F-6AFC3F1E970B";
name = Bold;
paths = (
{
closed = 1;
nodes = (
"1122.81 1672.72 LINE",
"816.864 1672.72 LINE",
"469.922 1208.8 LINE",
"719.88 1208.8 LINE"
);
}
);
width = 1272;
}
);
unicode = 00E1;
},
{
glyphname = acircumflex;
lastChange = "2013-01-12 20:51:42 -0500";
layers = (
{
components = (
{
name = a;
transform = "{1, 0, 0, 1, 0, 0}";
}
);
layerId = "C85A2332-1B89-4390-846F-6AFC3F1E970B";
name = Bold;
paths = (
{
closed = 1;
nodes = (
"483.919 1208.8 OFFCURVE",
"508.915 1242.79 OFFCURVE",
"533.911 1277.79 CURVE SMOOTH",
"558.907 1312.78 OFFCURVE",
"584.903 1346.78 OFFCURVE",
"609.898 1380.77 CURVE",
"758.874 1177.8 LINE",
"976.837 1177.8 LINE",
"699.883 1602.73 LINE",
"519.913 1602.73 LINE",
"242.96 1177.8 LINE",
"460.923 1177.8 LINE"
);
}
);
width = 1257;
}
);
unicode = 00E2;
},
{
glyphname = atilde;
lastChange = "2013-01-12 20:51:50 -0500";
layers = (
{
components = (
{
name = a;
transform = "{1, 0, 0, 1, 0, 0}";
}
);
layerId = "C85A2332-1B89-4390-846F-6AFC3F1E970B";
name = Bold;
paths = (
{
closed = 1;
nodes = (
"635.894 1239.79 OFFCURVE",
"678.887 1221.8 OFFCURVE",
"738.877 1221.8 CURVE SMOOTH",
"875.854 1221.8 OFFCURVE",
"954.841 1342.78 OFFCURVE",
"958.84 1559.74 CURVE",
"767.872 1559.74 LINE",
"766.872 1508.75 OFFCURVE",
"762.873 1471.76 OFFCURVE",
"757.874 1448.76 CURVE SMOOTH",
"752.875 1425.76 OFFCURVE",
"743.876 1414.76 OFFCURVE",
"732.878 1414.76 CURVE SMOOTH",
"726.879 1414.76 OFFCURVE",
"713.881 1423.76 OFFCURVE",
"694.884 1440.76 CURVE",
"695.884 1440.76 LINE",
"641.893 1491.75 LINE SMOOTH",
"586.902 1540.74 OFFCURVE",
"545.909 1559.74 OFFCURVE",
"486.919 1559.74 CURVE SMOOTH",
"349.942 1559.74 OFFCURVE",
"269.955 1437.76 OFFCURVE",
"266.956 1221.8 CURVE",
"457.924 1221.8 LINE",
"458.924 1272.79 OFFCURVE",
"462.923 1308.78 OFFCURVE",
"467.922 1331.78 CURVE SMOOTH",
"472.921 1354.77 OFFCURVE",
"481.92 1365.77 OFFCURVE",
"492.918 1365.77 CURVE SMOOTH",
"498.917 1365.77 OFFCURVE",
"511.915 1356.77 OFFCURVE",
"530.912 1339.78 CURVE",
"529.912 1339.78 LINE",
"582.903 1287.79 LINE"
);
}
);
width = 1257;
}
);
unicode = 00E3;
},
{
glyphname = adieresis;
lastChange = "2013-01-12 20:51:58 -0500";
layers = (
{
components = (
{
name = a;
transform = "{1, 0, 0, 1, 0, 0}";
}
);
layerId = "C85A2332-1B89-4390-846F-6AFC3F1E970B";
name = Bold;
paths = (
{
closed = 1;
nodes = (
"1035.83 1536.74 LINE",
"757.874 1536.74 LINE",
"757.874 1259.79 LINE",
"1035.83 1259.79 LINE"
);
},
{
closed = 1;
nodes = (
"644.893 1536.74 LINE",
"366.939 1536.74 LINE",
"366.939 1259.79 LINE",
"644.893 1259.79 LINE"
);
}
);
width = 1257;
}
);
unicode = 00E4;
},
{
glyphname = aring;
lastChange = "2013-01-12 20:52:03 -0500";
layers = (
{
components = (
{
name = a;
transform = "{1, 0, 0, 1, 0, 0}";
}
);
layerId = "C85A2332-1B89-4390-846F-6AFC3F1E970B";
name = Bold;
paths = (
{
closed = 1;
nodes = (
"704.883 1400.77 OFFCURVE",
"660.89 1354.77 OFFCURVE",
"600.9 1354.77 CURVE SMOOTH",
"570.905 1354.77 OFFCURVE",
"545.909 1364.77 OFFCURVE",
"524.913 1383.77 CURVE",
"505.916 1404.77 OFFCURVE",
"495.917 1429.76 OFFCURVE",
"495.917 1459.76 CURVE SMOOTH",
"495.917 1518.75 OFFCURVE",
"539.91 1562.74 OFFCURVE",
"600.9 1562.74 CURVE SMOOTH",
"660.89 1562.74 OFFCURVE",
"704.883 1518.75 OFFCURVE",
"704.883 1459.76 CURVE SMOOTH"
);
},
{
closed = 1;
nodes = (
"903.85 1620.73 OFFCURVE",
"771.872 1752.71 OFFCURVE",
"610.898 1752.71 CURVE SMOOTH",
"447.925 1752.71 OFFCURVE",
"317.947 1622.73 OFFCURVE",
"317.947 1459.76 CURVE SMOOTH",
"317.947 1295.78 OFFCURVE",
"447.925 1165.81 OFFCURVE",
"610.898 1165.81 CURVE SMOOTH",
"771.872 1165.81 OFFCURVE",
"903.85 1296.78 OFFCURVE",
"903.85 1459.76 CURVE SMOOTH"
);
}
);
width = 1257;
}
);
unicode = 00E5;
},
{
glyphname = ae;
layers = (
{
layerId = "C85A2332-1B89-4390-846F-6AFC3F1E970B";
name = Bold;
paths = (
{
closed = 1;
nodes = (
"1122.81 794.868 OFFCURVE",
"1150.81 844.859 OFFCURVE",
"1191.8 888.852 CURVE SMOOTH",
"1241.79 945.843 OFFCURVE",
"1308.78 974.838 OFFCURVE",
"1393.77 974.838 CURVE SMOOTH",
"1537.74 974.838 OFFCURVE",
"1619.73 838.86 OFFCURVE",
"1635.73 746.876 CURVE",
"1109.82 745.876 LINE"
);
},
{
closed = 1;
nodes = (
"503.916 1144.81 OFFCURVE",
"372.938 1116.81 OFFCURVE",
"226.962 1059.82 CURVE",
"226.962 850.858 LINE",
"361.94 925.846 OFFCURVE",
"486.919 961.84 OFFCURVE",
"601.9 961.84 CURVE SMOOTH",
"684.886 961.84 OFFCURVE",
"748.875 937.844 OFFCURVE",
"792.868 888.852 CURVE",
"828.862 851.858 OFFCURVE",
"850.858 819.864 OFFCURVE",
"858.857 790.868 CURVE",
"657.891 790.868 LINE SMOOTH",
"328.945 790.868 OFFCURVE",
"149.975 676.887 OFFCURVE",
"149.975 341.943 CURVE SMOOTH",
"149.975 109.982 OFFCURVE",
"302.95 -27 OFFCURVE",
"559.907 -27 CURVE SMOOTH",
"731.878 -27 OFFCURVE",
"867.856 39.9933 OFFCURVE",
"963.84 167.972 CURVE",
"1068.82 27.9953 OFFCURVE",
"1213.8 -27 OFFCURVE",
"1422.76 -27 CURVE SMOOTH",
"1492.75 -27 OFFCURVE",
"1562.74 -15 OFFCURVE",
"1631.73 8.9985 CURVE SMOOTH",
"1663.72 20.9965 OFFCURVE",
"1701.72 34.9942 OFFCURVE",
"1739.71 49.9917 CURVE SMOOTH",
"1777.7 64.9892 OFFCURVE",
"1814.7 79.9867 OFFCURVE",
"1845.69 92.9845 CURVE",
"1845.69 426.929 LINE",
"1690.72 342.943 OFFCURVE",
"1556.74 302.95 OFFCURVE",
"1431.76 302.95 CURVE SMOOTH",
"1222.8 302.95 OFFCURVE",
"1129.81 424.929 OFFCURVE",
"1102.82 537.91 CURVE",
"1885.69 537.91 LINE",
"1885.69 658.89 LINE SMOOTH",
"1885.69 914.848 OFFCURVE",
"1694.72 1144.81 OFFCURVE",
"1391.77 1144.81 CURVE SMOOTH",
"1231.79 1144.81 OFFCURVE",
"1102.82 1093.82 OFFCURVE",
"1003.83 994.834 CURVE",
"923.846 1090.82 OFFCURVE",
"788.869 1144.81 OFFCURVE",
"619.897 1144.81 CURVE SMOOTH"
);
},
{
closed = 1;
nodes = (
"861.857 580.903 LINE",
"861.857 587.902 LINE",
"861.857 618.897 LINE",
"898.85 580.903 LINE"
);
},
{
closed = 1;
nodes = (
"737.877 307.949 OFFCURVE",
"669.888 284.953 OFFCURVE",
"582.903 284.953 CURVE SMOOTH",
"467.922 284.953 OFFCURVE",
"396.934 329.945 OFFCURVE",
"396.934 405.932 CURVE SMOOTH",
"396.934 480.92 OFFCURVE",
"416.931 527.912 OFFCURVE",
"455.924 546.909 CURVE SMOOTH",
"504.916 569.905 OFFCURVE",
"594.901 580.903 OFFCURVE",
"727.879 580.903 CURVE SMOOTH",
"861.857 580.903 LINE",
"860.857 475.921 OFFCURVE",
"835.861 400.933 OFFCURVE",
"786.869 354.941 CURVE SMOOTH"
);
}
);
width = 2035;
}
);
unicode = 00E6;
},
{
glyphname = ccedilla;
layers = (
{
layerId = "C85A2332-1B89-4390-846F-6AFC3F1E970B";
name = Bold;
paths = (
{
closed = 1;
nodes = (
"935.844 1118.81 OFFCURVE",
"823.863 1144.81 OFFCURVE",
"712.881 1144.81 CURVE SMOOTH",
"364.939 1144.81 OFFCURVE",
"149.975 919.847 OFFCURVE",
"149.975 558.907 CURVE SMOOTH",
"149.975 205.966 OFFCURVE",
"366.939 -27 OFFCURVE",
"701.883 -27 CURVE SMOOTH",
"822.863 -27 OFFCURVE",
"934.844 -1 OFFCURVE",
"1051.82 53.991 CURVE",
"1046.83 410.932 LINE",
"965.839 363.939 OFFCURVE",
"904.849 343.943 OFFCURVE",
"861.857 342.943 CURVE SMOOTH",
"714.881 342.943 LINE",
"621.896 350.942 OFFCURVE",
"534.911 370.938 OFFCURVE",
"489.918 399.933 CURVE",
"449.925 428.929 OFFCURVE",
"423.929 486.919 OFFCURVE",
"414.931 562.906 CURVE",
"417.93 794.868 OFFCURVE",
"520.913 933.845 OFFCURVE",
"720.88 933.845 CURVE SMOOTH",
"813.865 933.845 OFFCURVE",
"924.846 898.85 OFFCURVE",
"1051.82 828.862 CURVE",
"1051.82 1065.82 LINE"
);
},
{
closed = 1;
nodes = (
"633.894 19.9967 OFFCURVE",
"663.89 -23 OFFCURVE",
"683.886 -56 CURVE SMOOTH",
"702.883 -89 OFFCURVE",
"712.881 -114 OFFCURVE",
"712.881 -129 CURVE SMOOTH",
"712.881 -162 OFFCURVE",
"687.885 -179 OFFCURVE",
"638.894 -179 CURVE SMOOTH",
"586.902 -179 OFFCURVE",
"532.911 -164 OFFCURVE",
"456.924 -125 CURVE",
"456.924 -338 LINE",
"531.911 -358 OFFCURVE",
"596.901 -369 OFFCURVE",
"657.891 -369 CURVE SMOOTH",
"829.862 -369 OFFCURVE",
"917.847 -300 OFFCURVE",
"917.847 -163 CURVE SMOOTH",
"917.847 -92 OFFCURVE",
"878.854 -20 OFFCURVE",
"795.868 74.9875 CURVE",
"593.901 74.9875 LINE"
);
}
);
width = 1201;
}
);
unicode = 00E7;
},
{
glyphname = egrave;
layers = (
{
layerId = "C85A2332-1B89-4390-846F-6AFC3F1E970B";
name = Bold;
paths = (
{
closed = 1;
nodes = (
"1170.81 828.862 OFFCURVE",
"1124.81 945.843 OFFCURVE",
"1044.83 1021.83 CURVE",
"1045.83 1021.83 LINE",
"965.839 1097.82 OFFCURVE",
"850.858 1138.81 OFFCURVE",
"700.883 1144.81 CURVE",
"361.94 1144.81 OFFCURVE",
"161.973 910.848 OFFCURVE",
"149.975 550.908 CURVE SMOOTH",
"149.975 373.938 OFFCURVE",
"201.966 234.961 OFFCURVE",
"306.949 132.978 CURVE SMOOTH",
"412.931 31.9947 OFFCURVE",
"552.908 -21 OFFCURVE",
"727.879 -27 CURVE SMOOTH",
"868.855 -27 OFFCURVE",
"1009.83 4.99917 OFFCURVE",
"1153.81 64.9892 CURVE",
"1148.81 388.935 LINE",
"1057.82 340.943 OFFCURVE",
"983.836 313.948 OFFCURVE",
"924.846 308.949 CURVE SMOOTH",
"861.857 303.949 OFFCURVE",
"804.866 301.95 OFFCURVE",
"737.877 301.95 CURVE",
"636.894 309.948 OFFCURVE",
"543.909 330.945 OFFCURVE",
"486.919 365.939 CURVE",
"443.926 397.934 OFFCURVE",
"412.931 465.922 OFFCURVE",
"404.933 565.906 CURVE",
"1183.8 565.906 LINE",
"1183.8 670.888 LINE"
);
},
{
closed = 1;
nodes = (
"434.928 827.862 OFFCURVE",
"457.924 865.856 OFFCURVE",
"496.917 904.849 CURVE",
"496.917 903.85 LINE",
"546.909 954.841 OFFCURVE",
"614.898 979.837 OFFCURVE",
"700.883 979.837 CURVE SMOOTH",
"773.871 979.837 OFFCURVE",
"832.861 954.841 OFFCURVE",
"876.854 903.85 CURVE SMOOTH",
"907.849 866.856 OFFCURVE",
"934.844 825.863 OFFCURVE",
"949.842 790.868 CURVE",
"425.929 789.869 LINE"
);
},
{
closed = 1;
nodes = (
"878.854 1179.8 LINE",
"558.907 1602.73 LINE",
"292.951 1602.73 LINE",
"526.912 1179.8 LINE"
);
}
);
width = 1333;
}
);
unicode = 00E8;
},
{
glyphname = eacute;
layers = (
{
layerId = "C85A2332-1B89-4390-846F-6AFC3F1E970B";
name = Bold;
paths = (
{
closed = 1;
nodes = (
"1170.81 828.862 OFFCURVE",
"1124.81 945.843 OFFCURVE",
"1044.83 1021.83 CURVE",
"1045.83 1021.83 LINE",
"965.839 1097.82 OFFCURVE",
"850.858 1138.81 OFFCURVE",
"700.883 1144.81 CURVE",
"361.94 1144.81 OFFCURVE",
"161.973 910.848 OFFCURVE",
"149.975 550.908 CURVE SMOOTH",
"149.975 373.938 OFFCURVE",
"201.966 234.961 OFFCURVE",
"306.949 132.978 CURVE SMOOTH",
"412.931 31.9947 OFFCURVE",
"552.908 -21 OFFCURVE",
"727.879 -27 CURVE SMOOTH",
"868.855 -27 OFFCURVE",
"1009.83 4.99917 OFFCURVE",
"1153.81 64.9892 CURVE",
"1148.81 388.935 LINE",
"1057.82 340.943 OFFCURVE",
"983.836 313.948 OFFCURVE",
"924.846 308.949 CURVE SMOOTH",
"861.857 303.949 OFFCURVE",
"804.866 301.95 OFFCURVE",
"737.877 301.95 CURVE",
"636.894 309.948 OFFCURVE",
"543.909 330.945 OFFCURVE",
"486.919 365.939 CURVE",
"443.926 397.934 OFFCURVE",
"412.931 465.922 OFFCURVE",
"404.933 565.906 CURVE",
"1183.8 565.906 LINE",
"1183.8 670.888 LINE"
);
},
{
closed = 1;
nodes = (
"434.928 827.862 OFFCURVE",
"457.924 865.856 OFFCURVE",
"496.917 904.849 CURVE",
"496.917 903.85 LINE",
"546.909 954.841 OFFCURVE",
"614.898 979.837 OFFCURVE",
"700.883 979.837 CURVE SMOOTH",
"773.871 979.837 OFFCURVE",
"832.861 954.841 OFFCURVE",
"876.854 903.85 CURVE SMOOTH",
"907.849 866.856 OFFCURVE",
"934.844 825.863 OFFCURVE",
"949.842 790.868 CURVE",
"425.929 789.869 LINE"
);
},
{
closed = 1;
nodes = (
"1104.82 1602.73 LINE",
"798.867 1602.73 LINE",
"451.925 1138.81 LINE",
"701.883 1138.81 LINE"
);
}
);
width = 1333;
}
);
unicode = 00E9;
},
{
glyphname = ecircumflex;
layers = (
{
layerId = "C85A2332-1B89-4390-846F-6AFC3F1E970B";
name = Bold;
paths = (
{
closed = 1;
nodes = (
"1170.81 828.862 OFFCURVE",
"1124.81 945.843 OFFCURVE",
"1044.83 1021.83 CURVE",
"1045.83 1021.83 LINE",
"965.839 1097.82 OFFCURVE",
"850.858 1138.81 OFFCURVE",
"700.883 1144.81 CURVE",
"361.94 1144.81 OFFCURVE",
"161.973 910.848 OFFCURVE",
"149.975 550.908 CURVE SMOOTH",
"149.975 373.938 OFFCURVE",
"201.966 234.961 OFFCURVE",
"306.949 132.978 CURVE SMOOTH",
"412.931 31.9947 OFFCURVE",
"552.908 -21 OFFCURVE",
"727.879 -27 CURVE SMOOTH",
"868.855 -27 OFFCURVE",
"1009.83 4.99917 OFFCURVE",
"1153.81 64.9892 CURVE",
"1148.81 388.935 LINE",
"1057.82 340.943 OFFCURVE",
"983.836 313.948 OFFCURVE",
"924.846 308.949 CURVE SMOOTH",
"861.857 303.949 OFFCURVE",
"804.866 301.95 OFFCURVE",
"737.877 301.95 CURVE",
"636.894 309.948 OFFCURVE",
"543.909 330.945 OFFCURVE",
"486.919 365.939 CURVE",
"443.926 397.934 OFFCURVE",
"412.931 465.922 OFFCURVE",
"404.933 565.906 CURVE",
"1183.8 565.906 LINE",
"1183.8 670.888 LINE"
);
},
{
closed = 1;
nodes = (
"434.928 827.862 OFFCURVE",
"457.924 865.856 OFFCURVE",
"496.917 904.849 CURVE",
"496.917 903.85 LINE",
"546.909 954.841 OFFCURVE",
"614.898 979.837 OFFCURVE",
"700.883 979.837 CURVE SMOOTH",
"773.871 979.837 OFFCURVE",
"832.861 954.841 OFFCURVE",
"876.854 903.85 CURVE SMOOTH",
"907.849 866.856 OFFCURVE",
"934.844 825.863 OFFCURVE",
"949.842 790.868 CURVE",
"425.929 789.869 LINE"
);
},
{
closed = 1;
nodes = (
"535.911 1208.8 OFFCURVE",
"560.907 1242.79 OFFCURVE",
"585.902 1277.79 CURVE SMOOTH",
"610.898 1312.78 OFFCURVE",
"636.894 1346.78 OFFCURVE",
"661.89 1380.77 CURVE",
"810.865 1177.8 LINE",
"1028.83 1177.8 LINE",
"751.875 1602.73 LINE",
"571.905 1602.73 LINE",
"294.951 1177.8 LINE",
"512.915 1177.8 LINE"
);
}
);
width = 1333;
}
);
unicode = 00EA;
},
{
glyphname = edieresis;
layers = (
{
layerId = "C85A2332-1B89-4390-846F-6AFC3F1E970B";
name = Bold;
paths = (
{
closed = 1;
nodes = (
"1170.81 828.862 OFFCURVE",
"1124.81 945.843 OFFCURVE",
"1044.83 1021.83 CURVE",
"1045.83 1021.83 LINE",
"965.839 1097.82 OFFCURVE",
"850.858 1138.81 OFFCURVE",
"700.883 1144.81 CURVE",
"361.94 1144.81 OFFCURVE",
"161.973 910.848 OFFCURVE",
"149.975 550.908 CURVE SMOOTH",
"149.975 373.938 OFFCURVE",
"201.966 234.961 OFFCURVE",
"306.949 132.978 CURVE SMOOTH",
"412.931 31.9947 OFFCURVE",
"552.908 -21 OFFCURVE",
"727.879 -27 CURVE SMOOTH",
"868.855 -27 OFFCURVE",
"1009.83 4.99917 OFFCURVE",
"1153.81 64.9892 CURVE",
"1148.81 388.935 LINE",
"1057.82 340.943 OFFCURVE",
"983.836 313.948 OFFCURVE",
"924.846 308.949 CURVE SMOOTH",
"861.857 303.949 OFFCURVE",
"804.866 301.95 OFFCURVE",
"737.877 301.95 CURVE",
"636.894 309.948 OFFCURVE",
"543.909 330.945 OFFCURVE",
"486.919 365.939 CURVE",
"443.926 397.934 OFFCURVE",
"412.931 465.922 OFFCURVE",
"404.933 565.906 CURVE",
"1183.8 565.906 LINE",
"1183.8 670.888 LINE"
);
},
{
closed = 1;
nodes = (
"434.928 827.862 OFFCURVE",
"457.924 865.856 OFFCURVE",
"496.917 904.849 CURVE",
"496.917 903.85 LINE",
"546.909 954.841 OFFCURVE",
"614.898 979.837 OFFCURVE",
"700.883 979.837 CURVE SMOOTH",
"773.871 979.837 OFFCURVE",
"832.861 954.841 OFFCURVE",
"876.854 903.85 CURVE SMOOTH",
"907.849 866.856 OFFCURVE",
"934.844 825.863 OFFCURVE",
"949.842 790.868 CURVE",
"425.929 789.869 LINE"
);
},
{
closed = 1;
nodes = (
"1057.82 1536.74 LINE",
"779.87 1536.74 LINE",
"779.87 1259.79 LINE",
"1057.82 1259.79 LINE"
);
},
{
closed = 1;
nodes = (
"666.889 1536.74 LINE",
"388.935 1536.74 LINE",
"388.935 1259.79 LINE",
"666.889 1259.79 LINE"
);
}
);
width = 1333;
}
);
unicode = 00EB;
},
{
glyphname = igrave;
layers = (
{
layerId = "C85A2332-1B89-4390-846F-6AFC3F1E970B";
name = Bold;
paths = (
{
closed = 1;
nodes = (
"688.885 1119.81 LINE",
"441.926 1119.81 LINE",
"441.926 0 LINE",
"688.885 0 LINE"
);
},
{
closed = 1;
nodes = (
"735.878 1179.8 LINE",
"415.931 1602.73 LINE",
"149.975 1602.73 LINE",
"383.936 1179.8 LINE"
);
}
);
width = 885;
}
);
unicode = 00EC;
},
{
glyphname = iacute;
layers = (
{
layerId = "C85A2332-1B89-4390-846F-6AFC3F1E970B";
name = Bold;
paths = (
{
closed = 1;
nodes = (
"419.93 1119.81 LINE",
"172.971 1119.81 LINE",
"172.971 0 LINE",
"419.93 0 LINE"
);
},
{
closed = 1;
nodes = (
"802.866 1602.73 LINE",
"496.917 1602.73 LINE",
"149.975 1138.81 LINE",
"399.933 1138.81 LINE"
);
}
);
width = 952;
}
);
unicode = 00ED;
},
{
glyphname = icircumflex;
layers = (
{
layerId = "C85A2332-1B89-4390-846F-6AFC3F1E970B";
name = Bold;
paths = (
{
closed = 1;
nodes = (
"676.887 1119.81 LINE",
"429.928 1119.81 LINE",
"429.928 0 LINE",
"676.887 0 LINE"
);
},
{
closed = 1;
nodes = (
"390.935 1208.8 OFFCURVE",
"415.931 1242.79 OFFCURVE",
"440.927 1277.79 CURVE SMOOTH",
"465.922 1312.78 OFFCURVE",
"491.918 1346.78 OFFCURVE",
"516.914 1380.77 CURVE",
"665.889 1177.8 LINE",
"883.853 1177.8 LINE",
"606.899 1602.73 LINE",
"426.929 1602.73 LINE",
"149.975 1177.8 LINE",
"367.939 1177.8 LINE"
);
}
);
width = 1033;
}
);
unicode = 00EE;
},
{
glyphname = idieresis;
layers = (
{
layerId = "C85A2332-1B89-4390-846F-6AFC3F1E970B";
name = Bold;
paths = (
{
closed = 1;
nodes = (
"622.896 1119.81 LINE",
"375.937 1119.81 LINE",
"375.937 0 LINE",
"622.896 0 LINE"
);
},
{
closed = 1;
nodes = (
"818.864 1536.74 LINE",
"540.91 1536.74 LINE",
"540.91 1259.79 LINE",
"818.864 1259.79 LINE"
);
},
{
closed = 1;
nodes = (
"427.929 1536.74 LINE",
"149.975 1536.74 LINE",
"149.975 1259.79 LINE",
"427.929 1259.79 LINE"
);
}
);
width = 968;
}
);
unicode = 00EF;
},
{
glyphname = eth;
layers = (
{
layerId = "C85A2332-1B89-4390-846F-6AFC3F1E970B";
name = Bold;
paths = (
{
closed = 1;
nodes = (
"841.86 858.857 LINE",
"840.86 859.857 OFFCURVE",
"839.86 861.857 OFFCURVE",
"838.86 863.856 CURVE",
"837.861 864.856 OFFCURVE",
"835.861 866.856 OFFCURVE",
"834.861 867.856 CURVE",
"851.858 855.858 LINE"
);
},
{
closed = 1;
nodes = (
"926.846 321.946 OFFCURVE",
"822.863 192.968 OFFCURVE",
"666.889 192.968 CURVE SMOOTH",
"507.915 192.968 OFFCURVE",
"405.932 319.947 OFFCURVE",
"405.932 538.91 CURVE SMOOTH",
"405.932 649.892 OFFCURVE",
"431.928 735.878 OFFCURVE",
"482.92 796.867 CURVE",
"481.92 796.867 LINE",
"532.911 855.858 OFFCURVE",
"603.899 884.853 OFFCURVE",
"696.884 884.853 CURVE SMOOTH",
"740.877 884.853 OFFCURVE",
"785.869 875.854 OFFCURVE",
"841.86 858.857 CURVE",
"898.85 781.87 OFFCURVE",
"926.846 675.888 OFFCURVE",
"926.846 538.91 CURVE SMOOTH"
);
},
{
closed = 1;
nodes = (
"1037.83 1504.75 LINE",
"715.881 1396.77 LINE",
"601.9 1526.75 LINE",
"289.952 1526.75 LINE",
"300.95 1513.75 OFFCURVE",
"314.948 1499.75 OFFCURVE",
"329.945 1482.75 CURVE SMOOTH",
"344.943 1465.76 OFFCURVE",
"360.94 1447.76 OFFCURVE",
"377.937 1428.76 CURVE SMOOTH",
"394.934 1409.77 OFFCURVE",
"411.931 1390.77 OFFCURVE",
"428.929 1371.77 CURVE SMOOTH",
"445.926 1352.77 OFFCURVE",
"460.923 1334.78 OFFCURVE",
"475.921 1317.78 CURVE",
"230.962 1236.79 LINE",
"285.952 1072.82 LINE",
"330.945 1087.82 OFFCURVE",
"385.936 1105.82 OFFCURVE",
"439.927 1124.81 CURVE SMOOTH",
"493.918 1143.81 OFFCURVE",
"547.909 1161.81 OFFCURVE",
"595.901 1177.8 CURVE",
"664.889 1098.82 LINE",
"662.89 1098.82 OFFCURVE",
"660.89 1098.82 OFFCURVE",
"658.89 1099.82 CURVE",
"656.891 1099.82 OFFCURVE",
"654.891 1099.82 OFFCURVE",
"653.891 1099.82 CURVE",
"654.891 1099.82 OFFCURVE",
"655.891 1099.82 OFFCURVE",
"655.891 1099.82 CURVE",
"655.891 1098.82 OFFCURVE",
"653.891 1098.82 OFFCURVE",
"650.892 1098.82 CURVE SMOOTH",
"351.941 1098.82 OFFCURVE",
"149.975 867.856 OFFCURVE",
"149.975 538.91 CURVE SMOOTH",
"149.975 198.967 OFFCURVE",
"357.94 -27 OFFCURVE",
"666.889 -27 CURVE SMOOTH",
"973.838 -27 OFFCURVE",
"1183.8 199.967 OFFCURVE",
"1183.8 538.91 CURVE SMOOTH",
"1183.8 649.892 OFFCURVE",
"1164.81 752.875 OFFCURVE",
"1127.81 847.859 CURVE SMOOTH",
"1091.82 939.844 OFFCURVE",
"1029.83 1034.83 OFFCURVE",
"950.842 1126.81 CURVE SMOOTH",
"834.861 1257.79 LINE",
"1092.82 1343.78 LINE"
);
}
);
width = 1333;
}
);
unicode = 00F0;
},
{
glyphname = ntilde;
layers = (
{
layerId = "C85A2332-1B89-4390-846F-6AFC3F1E970B";
name = Bold;
paths = (
{
closed = 1;
nodes = (
"1121.81 973.838 OFFCURVE",
"986.836 1144.81 OFFCURVE",
"725.879 1144.81 CURVE SMOOTH",
"645.893 1144.81 OFFCURVE",
"575.904 1126.81 OFFCURVE",
"514.914 1093.82 CURVE",
"482.92 1074.82 OFFCURVE",
"453.924 1058.82 OFFCURVE",
"425.929 1039.83 CURVE",
"425.929 1128.81 LINE",
"179.97 1128.81 LINE",
"149.975 0 LINE",
"464.923 0 LINE",
"434.928 638.894 LINE",
"434.928 822.863 OFFCURVE",
"518.914 930.845 OFFCURVE",
"706.882 930.845 CURVE SMOOTH",
"833.861 930.845 OFFCURVE",
"881.853 845.859 OFFCURVE",
"881.853 673.888 CURVE",
"842.86 0 LINE",
"1167.81 0 LINE",
"1137.81 669.888 LINE SMOOTH"
);
},
{
closed = 1;
nodes = (
"600.9 1239.79 OFFCURVE",
"643.893 1221.8 OFFCURVE",
"703.883 1221.8 CURVE SMOOTH",
"840.86 1221.8 OFFCURVE",
"919.847 1342.78 OFFCURVE",
"923.846 1559.74 CURVE",
"732.878 1559.74 LINE",
"731.878 1508.75 OFFCURVE",
"727.879 1471.76 OFFCURVE",
"722.88 1448.76 CURVE SMOOTH",
"717.88 1425.76 OFFCURVE",
"708.882 1414.76 OFFCURVE",
"697.884 1414.76 CURVE SMOOTH",
"691.885 1414.76 OFFCURVE",
"678.887 1423.76 OFFCURVE",
"659.89 1440.76 CURVE",
"660.89 1440.76 LINE",
"606.899 1491.75 LINE SMOOTH",
"551.908 1540.74 OFFCURVE",
"510.915 1559.74 OFFCURVE",
"451.925 1559.74 CURVE SMOOTH",
"314.948 1559.74 OFFCURVE",
"234.961 1437.76 OFFCURVE",
"231.961 1221.8 CURVE",
"422.93 1221.8 LINE",
"423.929 1272.79 OFFCURVE",
"427.929 1308.78 OFFCURVE",
"432.928 1331.78 CURVE SMOOTH",
"437.927 1354.77 OFFCURVE",
"446.926 1365.77 OFFCURVE",
"457.924 1365.77 CURVE SMOOTH",
"463.923 1365.77 OFFCURVE",
"476.921 1356.77 OFFCURVE",
"495.917 1339.78 CURVE",
"494.918 1339.78 LINE",
"547.909 1287.79 LINE"
);
}
);
width = 1317;
}
);
unicode = 00F1;
},
{
glyphname = ograve;
layers = (
{
layerId = "C85A2332-1B89-4390-846F-6AFC3F1E970B";
name = Bold;
paths = (
{
closed = 1;
nodes = (
"833.861 943.843 OFFCURVE",
"936.844 813.865 OFFCURVE",
"936.844 588.902 CURVE SMOOTH",
"936.844 481.92 OFFCURVE",
"915.848 414.931 OFFCURVE",
"873.855 387.935 CURVE",
"826.862 360.94 OFFCURVE",
"759.874 343.943 OFFCURVE",
"676.887 343.943 CURVE SMOOTH",
"504.916 343.943 OFFCURVE",
"414.931 372.938 OFFCURVE",
"414.931 588.902 CURVE SMOOTH",
"414.931 812.865 OFFCURVE",
"517.914 943.843 OFFCURVE",
"676.887 943.843 CURVE SMOOTH"
);
},
{
closed = 1;
nodes = (
"513.914 1144.81 OFFCURVE",
"386.936 1091.82 OFFCURVE",
"295.951 986.836 CURVE SMOOTH",
"203.966 881.853 OFFCURVE",
"159.973 739.877 OFFCURVE",
"159.973 558.907 CURVE SMOOTH",
"159.973 377.937 OFFCURVE",
"203.966 235.961 OFFCURVE",
"295.951 131.978 CURVE SMOOTH",
"386.936 25.9957 OFFCURVE",
"513.914 -27 OFFCURVE",
"676.887 -27 CURVE SMOOTH",
"997.834 -27 OFFCURVE",
"1193.8 198.967 OFFCURVE",
"1193.8 558.907 CURVE SMOOTH",
"1193.8 918.847 OFFCURVE",
"997.834 1144.81 OFFCURVE",
"676.887 1144.81 CURVE SMOOTH"
);
},
{
closed = 1;
nodes = (
"735.878 1179.8 LINE",
"415.931 1602.73 LINE",
"149.975 1602.73 LINE",
"383.936 1179.8 LINE"
);
}
);
width = 1343;
}
);
unicode = 00F2;
},
{
glyphname = oacute;
layers = (
{
layerId = "C85A2332-1B89-4390-846F-6AFC3F1E970B";
name = Bold;
paths = (
{
closed = 1;
nodes = (
"823.863 943.843 OFFCURVE",
"926.846 813.865 OFFCURVE",
"926.846 588.902 CURVE SMOOTH",
"926.846 481.92 OFFCURVE",
"905.849 414.931 OFFCURVE",
"863.856 387.935 CURVE",
"816.864 360.94 OFFCURVE",
"749.875 343.943 OFFCURVE",
"666.889 343.943 CURVE SMOOTH",
"494.918 343.943 OFFCURVE",
"404.933 372.938 OFFCURVE",
"404.933 588.902 CURVE SMOOTH",
"404.933 812.865 OFFCURVE",
"507.915 943.843 OFFCURVE",
"666.889 943.843 CURVE SMOOTH"
);
},
{
closed = 1;
nodes = (
"503.916 1144.81 OFFCURVE",
"376.937 1091.82 OFFCURVE",
"285.952 986.836 CURVE SMOOTH",
"193.968 881.853 OFFCURVE",
"149.975 739.877 OFFCURVE",
"149.975 558.907 CURVE SMOOTH",
"149.975 377.937 OFFCURVE",
"193.968 235.961 OFFCURVE",
"285.952 131.978 CURVE SMOOTH",
"376.937 25.9957 OFFCURVE",
"503.916 -27 OFFCURVE",
"666.889 -27 CURVE SMOOTH",
"987.836 -27 OFFCURVE",
"1183.8 198.967 OFFCURVE",
"1183.8 558.907 CURVE SMOOTH",
"1183.8 918.847 OFFCURVE",
"987.836 1144.81 OFFCURVE",
"666.889 1144.81 CURVE SMOOTH"
);
},
{
closed = 1;
nodes = (
"1161.81 1602.73 LINE",
"855.858 1602.73 LINE",
"508.915 1138.81 LINE",
"758.874 1138.81 LINE"
);
}
);
width = 1333;
}
);
unicode = 00F3;
},
{
glyphname = ocircumflex;
layers = (
{
layerId = "C85A2332-1B89-4390-846F-6AFC3F1E970B";
name = Bold;
paths = (
{
closed = 1;
nodes = (
"823.863 943.843 OFFCURVE",
"926.846 813.865 OFFCURVE",
"926.846 588.902 CURVE SMOOTH",
"926.846 481.92 OFFCURVE",
"905.849 414.931 OFFCURVE",
"863.856 387.935 CURVE",
"816.864 360.94 OFFCURVE",
"749.875 343.943 OFFCURVE",
"666.889 343.943 CURVE SMOOTH",
"494.918 343.943 OFFCURVE",
"404.933 372.938 OFFCURVE",
"404.933 588.902 CURVE SMOOTH",
"404.933 812.865 OFFCURVE",
"507.915 943.843 OFFCURVE",
"666.889 943.843 CURVE SMOOTH"
);
},
{
closed = 1;
nodes = (
"503.916 1144.81 OFFCURVE",
"376.937 1091.82 OFFCURVE",
"285.952 986.836 CURVE SMOOTH",
"193.968 881.853 OFFCURVE",
"149.975 739.877 OFFCURVE",
"149.975 558.907 CURVE SMOOTH",
"149.975 377.937 OFFCURVE",
"193.968 235.961 OFFCURVE",
"285.952 131.978 CURVE SMOOTH",
"376.937 25.9957 OFFCURVE",
"503.916 -27 OFFCURVE",
"666.889 -27 CURVE SMOOTH",
"987.836 -27 OFFCURVE",
"1183.8 198.967 OFFCURVE",
"1183.8 558.907 CURVE SMOOTH",
"1183.8 918.847 OFFCURVE",
"987.836 1144.81 OFFCURVE",
"666.889 1144.81 CURVE SMOOTH"
);
},
{
closed = 1;
nodes = (
"492.918 1208.8 OFFCURVE",
"517.914 1242.79 OFFCURVE",
"542.91 1277.79 CURVE SMOOTH",
"567.905 1312.78 OFFCURVE",
"593.901 1346.78 OFFCURVE",
"618.897 1380.77 CURVE",
"767.872 1177.8 LINE",
"985.836 1177.8 LINE",
"708.882 1602.73 LINE",
"528.912 1602.73 LINE",
"251.958 1177.8 LINE",
"469.922 1177.8 LINE"
);
}
);
width = 1333;
}
);
unicode = 00F4;
},
{
glyphname = otilde;
layers = (
{
layerId = "C85A2332-1B89-4390-846F-6AFC3F1E970B";
name = Bold;
paths = (
{
closed = 1;
nodes = (
"823.863 943.843 OFFCURVE",
"926.846 813.865 OFFCURVE",
"926.846 588.902 CURVE SMOOTH",
"926.846 481.92 OFFCURVE",
"905.849 414.931 OFFCURVE",
"863.856 387.935 CURVE",
"816.864 360.94 OFFCURVE",
"749.875 343.943 OFFCURVE",
"666.889 343.943 CURVE SMOOTH",
"494.918 343.943 OFFCURVE",
"404.933 372.938 OFFCURVE",
"404.933 588.902 CURVE SMOOTH",
"404.933 812.865 OFFCURVE",
"507.915 943.843 OFFCURVE",
"666.889 943.843 CURVE SMOOTH"
);
},
{
closed = 1;
nodes = (
"503.916 1144.81 OFFCURVE",
"376.937 1091.82 OFFCURVE",
"285.952 986.836 CURVE SMOOTH",
"193.968 881.853 OFFCURVE",
"149.975 739.877 OFFCURVE",
"149.975 558.907 CURVE SMOOTH",
"149.975 377.937 OFFCURVE",
"193.968 235.961 OFFCURVE",
"285.952 131.978 CURVE SMOOTH",
"376.937 25.9957 OFFCURVE",
"503.916 -27 OFFCURVE",
"666.889 -27 CURVE SMOOTH",
"987.836 -27 OFFCURVE",
"1183.8 198.967 OFFCURVE",
"1183.8 558.907 CURVE SMOOTH",
"1183.8 918.847 OFFCURVE",
"987.836 1144.81 OFFCURVE",
"666.889 1144.81 CURVE SMOOTH"
);
},
{
closed = 1;
nodes = (
"674.888 1239.79 OFFCURVE",
"717.88 1221.8 OFFCURVE",
"777.871 1221.8 CURVE SMOOTH",
"914.848 1221.8 OFFCURVE",
"993.835 1342.78 OFFCURVE",
"997.834 1559.74 CURVE",
"806.866 1559.74 LINE",
"805.866 1508.75 OFFCURVE",
"801.867 1471.76 OFFCURVE",
"796.867 1448.76 CURVE SMOOTH",
"791.868 1425.76 OFFCURVE",
"782.87 1414.76 OFFCURVE",
"771.872 1414.76 CURVE SMOOTH",
"765.872 1414.76 OFFCURVE",
"752.875 1423.76 OFFCURVE",
"733.878 1440.76 CURVE",
"734.878 1440.76 LINE",
"680.887 1491.75 LINE SMOOTH",
"625.896 1540.74 OFFCURVE",
"584.903 1559.74 OFFCURVE",
"525.912 1559.74 CURVE SMOOTH",
"388.935 1559.74 OFFCURVE",
"308.949 1437.76 OFFCURVE",
"305.949 1221.8 CURVE",
"496.917 1221.8 LINE",
"497.917 1272.79 OFFCURVE",
"501.916 1308.78 OFFCURVE",
"506.916 1331.78 CURVE SMOOTH",
"511.915 1354.77 OFFCURVE",
"520.913 1365.77 OFFCURVE",
"531.911 1365.77 CURVE SMOOTH",
"537.91 1365.77 OFFCURVE",
"550.908 1356.77 OFFCURVE",
"569.905 1339.78 CURVE",
"568.905 1339.78 LINE",
"621.896 1287.79 LINE"
);
}
);
width = 1333;
}
);
unicode = 00F5;
},
{
glyphname = odieresis;
layers = (
{
layerId = "C85A2332-1B89-4390-846F-6AFC3F1E970B";
name = Bold;
paths = (
{
closed = 1;
nodes = (
"823.863 943.843 OFFCURVE",
"926.846 813.865 OFFCURVE",
"926.846 588.902 CURVE SMOOTH",
"926.846 481.92 OFFCURVE",
"905.849 414.931 OFFCURVE",
"863.856 387.935 CURVE",
"816.864 360.94 OFFCURVE",
"749.875 343.943 OFFCURVE",
"666.889 343.943 CURVE SMOOTH",
"494.918 343.943 OFFCURVE",
"404.933 372.938 OFFCURVE",
"404.933 588.902 CURVE SMOOTH",
"404.933 812.865 OFFCURVE",
"507.915 943.843 OFFCURVE",
"666.889 943.843 CURVE SMOOTH"
);
},
{
closed = 1;
nodes = (
"503.916 1144.81 OFFCURVE",
"376.937 1091.82 OFFCURVE",
"285.952 986.836 CURVE SMOOTH",
"193.968 881.853 OFFCURVE",
"149.975 739.877 OFFCURVE",
"149.975 558.907 CURVE SMOOTH",
"149.975 377.937 OFFCURVE",
"193.968 235.961 OFFCURVE",
"285.952 131.978 CURVE SMOOTH",
"376.937 25.9957 OFFCURVE",
"503.916 -27 OFFCURVE",
"666.889 -27 CURVE SMOOTH",
"987.836 -27 OFFCURVE",
"1183.8 198.967 OFFCURVE",
"1183.8 558.907 CURVE SMOOTH",
"1183.8 918.847 OFFCURVE",
"987.836 1144.81 OFFCURVE",
"666.889 1144.81 CURVE SMOOTH"
);
},
{
closed = 1;
nodes = (
"1074.82 1536.74 LINE",
"796.867 1536.74 LINE",
"796.867 1259.79 LINE",
"1074.82 1259.79 LINE"
);
},
{
closed = 1;
nodes = (
"683.886 1536.74 LINE",
"405.932 1536.74 LINE",
"405.932 1259.79 LINE",
"683.886 1259.79 LINE"
);
}
);
width = 1333;
}
);
unicode = 00F6;
},
{
glyphname = divide;
layers = (
{
layerId = "C85A2332-1B89-4390-846F-6AFC3F1E970B";
name = Bold;
paths = (
{
closed = 1;
nodes = (
"984.836 1180.8 LINE",
"633.894 1180.8 LINE",
"633.894 829.862 LINE",
"984.836 829.862 LINE"
);
},
{
closed = 1;
nodes = (
"984.836 396.934 LINE",
"633.894 396.934 LINE",
"633.894 46.9922 LINE",
"984.836 46.9922 LINE"
);
},
{
closed = 1;
nodes = (
"1467.76 752.875 LINE",
"149.975 752.875 LINE",
"149.975 472.921 LINE",
"1467.76 472.921 LINE"
);
}
);
width = 1617;
}
);
unicode = 00F7;
},
{
glyphname = oslash;
layers = (
{
layerId = "C85A2332-1B89-4390-846F-6AFC3F1E970B";
name = Bold;
paths = (
{
closed = 1;
nodes = (
"977.837 665.889 OFFCURVE",
"979.837 622.896 OFFCURVE",
"979.837 558.907 CURVE SMOOTH",
"979.837 325.946 OFFCURVE",
"876.854 192.968 OFFCURVE",
"719.88 192.968 CURVE SMOOTH",
"659.89 192.968 OFFCURVE",
"615.897 205.966 OFFCURVE",
"575.904 236.961 CURVE",
"965.839 708.882 LINE"
);
},
{
closed = 1;
nodes = (
"462.923 446.926 OFFCURVE",
"458.924 494.918 OFFCURVE",
"458.924 545.909 CURVE SMOOTH",
"458.924 668.889 OFFCURVE",
"482.92 763.873 OFFCURVE",
"529.912 830.862 CURVE SMOOTH",
"574.904 890.852 OFFCURVE",
"639.893 924.846 OFFCURVE",
"719.88 924.846 CURVE SMOOTH",
"775.871 924.846 OFFCURVE",
"821.863 911.848 OFFCURVE",
"861.857 880.853 CURVE",
"471.921 409.932 LINE"
);
},
{
closed = 1;
nodes = (
"305.949 -92 OFFCURVE",
"315.947 -80 OFFCURVE",
"326.946 -67 CURVE SMOOTH",
"348.942 -40 OFFCURVE",
"371.938 -12 OFFCURVE",
"395.934 15.9973 CURVE SMOOTH",
"406.932 28.9952 OFFCURVE",
"417.93 41.993 OFFCURVE",
"427.929 54.9908 CURVE",
"506.916 0 OFFCURVE",
"604.899 -27 OFFCURVE",
"719.88 -27 CURVE SMOOTH",
"1042.83 -27 OFFCURVE",
"1236.79 199.967 OFFCURVE",
"1236.79 558.907 CURVE SMOOTH",
"1236.79 703.883 OFFCURVE",
"1206.8 825.863 OFFCURVE",
"1145.81 925.846 CURVE",
"1287.79 1099.82 LINE",
"1142.81 1221.8 LINE",
"1133.81 1210.8 OFFCURVE",
"1123.81 1198.8 OFFCURVE",
"1112.81 1185.8 CURVE SMOOTH",
"1101.82 1172.8 OFFCURVE",
"1089.82 1158.81 OFFCURVE",
"1078.82 1144.81 CURVE",
"1054.82 1116.81 OFFCURVE",
"1030.83 1087.82 OFFCURVE",
"1010.83 1062.82 CURVE",
"927.846 1117.81 OFFCURVE",
"830.862 1144.81 OFFCURVE",
"719.88 1144.81 CURVE SMOOTH",
"396.934 1144.81 OFFCURVE",
"202.966 919.847 OFFCURVE",
"202.966 558.907 CURVE SMOOTH",
"202.966 409.932 OFFCURVE",
"229.962 292.951 OFFCURVE",
"293.951 192.968 CURVE",
"149.975 16.9972 LINE",
"296.951 -103 LINE"
);
}
);
width = 1437;
}
);
unicode = 00F8;
},
{
glyphname = ugrave;
layers = (
{
layerId = "C85A2332-1B89-4390-846F-6AFC3F1E970B";
name = Bold;
paths = (
{
closed = 1;
nodes = (
"149.975 136.977 OFFCURVE",
"288.952 -27 OFFCURVE",
"553.908 -27 CURVE SMOOTH",
"670.888 -27 OFFCURVE",
"768.872 9.99834 OFFCURVE",
"845.859 84.9859 CURVE",
"840.86 0 LINE",
"1089.82 0 LINE",
"1109.82 1119.81 LINE",
"835.861 1119.81 LINE",
"824.863 641.893 LINE",
"817.864 550.908 OFFCURVE",
"793.868 472.921 OFFCURVE",
"748.875 421.93 CURVE SMOOTH",
"705.883 370.938 OFFCURVE",
"643.893 345.942 OFFCURVE",
"561.906 345.942 CURVE SMOOTH",
"434.928 345.942 OFFCURVE",
"378.937 436.927 OFFCURVE",
"367.939 607.899 CURVE",
"367.939 1119.81 LINE",
"149.975 1119.81 LINE",
"149.975 449.925 LINE SMOOTH"
);
},
{
closed = 1;
nodes = (
"740.877 1179.8 LINE",
"420.93 1602.73 LINE",
"154.974 1602.73 LINE",
"388.935 1179.8 LINE"
);
}
);
width = 1259;
}
);
unicode = 00F9;
},
{
glyphname = uacute;
layers = (
{
layerId = "C85A2332-1B89-4390-846F-6AFC3F1E970B";
name = Bold;
paths = (
{
closed = 1;
nodes = (
"149.975 136.977 OFFCURVE",
"288.952 -27 OFFCURVE",
"553.908 -27 CURVE SMOOTH",
"670.888 -27 OFFCURVE",
"768.872 9.99834 OFFCURVE",
"845.859 84.9859 CURVE",
"840.86 0 LINE",
"1089.82 0 LINE",
"1109.82 1119.81 LINE",
"835.861 1119.81 LINE",
"824.863 641.893 LINE",
"817.864 550.908 OFFCURVE",
"793.868 472.921 OFFCURVE",
"748.875 421.93 CURVE SMOOTH",
"705.883 370.938 OFFCURVE",
"643.893 345.942 OFFCURVE",
"561.906 345.942 CURVE SMOOTH",
"434.928 345.942 OFFCURVE",
"378.937 436.927 OFFCURVE",
"367.939 607.899 CURVE",
"367.939 1119.81 LINE",
"149.975 1119.81 LINE",
"149.975 449.925 LINE SMOOTH"
);
},
{
closed = 1;
nodes = (
"1076.82 1602.73 LINE",
"770.872 1602.73 LINE",
"423.929 1138.81 LINE",
"673.888 1138.81 LINE"
);
}
);
width = 1259;
}
);
unicode = 00FA;
},
{
glyphname = ucircumflex;
layers = (
{
layerId = "C85A2332-1B89-4390-846F-6AFC3F1E970B";
name = Bold;
paths = (
{
closed = 1;
nodes = (
"149.975 136.977 OFFCURVE",
"288.952 -27 OFFCURVE",
"553.908 -27 CURVE SMOOTH",
"670.888 -27 OFFCURVE",
"768.872 9.99834 OFFCURVE",
"845.859 84.9859 CURVE",
"840.86 0 LINE",
"1089.82 0 LINE",
"1109.82 1119.81 LINE",
"835.861 1119.81 LINE",
"824.863 641.893 LINE",
"817.864 550.908 OFFCURVE",
"793.868 472.921 OFFCURVE",
"748.875 421.93 CURVE SMOOTH",
"705.883 370.938 OFFCURVE",
"643.893 345.942 OFFCURVE",
"561.906 345.942 CURVE SMOOTH",
"434.928 345.942 OFFCURVE",
"378.937 436.927 OFFCURVE",
"367.939 607.899 CURVE",
"367.939 1119.81 LINE",
"149.975 1119.81 LINE",
"149.975 449.925 LINE SMOOTH"
);
},
{
closed = 1;
nodes = (
"507.915 1208.8 OFFCURVE",
"532.911 1242.79 OFFCURVE",
"557.907 1277.79 CURVE SMOOTH",
"582.903 1312.78 OFFCURVE",
"608.899 1346.78 OFFCURVE",
"633.894 1380.77 CURVE",
"782.87 1177.8 LINE",
"1000.83 1177.8 LINE",
"723.88 1602.73 LINE",
"543.909 1602.73 LINE",
"266.956 1177.8 LINE",
"484.919 1177.8 LINE"
);
}
);
width = 1259;
}
);
unicode = 00FB;
},
{
glyphname = udieresis;
layers = (
{
layerId = "C85A2332-1B89-4390-846F-6AFC3F1E970B";
name = Bold;
paths = (
{
closed = 1;
nodes = (
"149.975 136.977 OFFCURVE",
"288.952 -27 OFFCURVE",
"553.908 -27 CURVE SMOOTH",
"670.888 -27 OFFCURVE",
"768.872 9.99834 OFFCURVE",
"845.859 84.9859 CURVE",
"840.86 0 LINE",
"1089.82 0 LINE",
"1109.82 1119.81 LINE",
"835.861 1119.81 LINE",
"824.863 641.893 LINE",
"817.864 550.908 OFFCURVE",
"793.868 472.921 OFFCURVE",
"748.875 421.93 CURVE SMOOTH",
"705.883 370.938 OFFCURVE",
"643.893 345.942 OFFCURVE",
"561.906 345.942 CURVE SMOOTH",
"434.928 345.942 OFFCURVE",
"378.937 436.927 OFFCURVE",
"367.939 607.899 CURVE",
"367.939 1119.81 LINE",
"149.975 1119.81 LINE",
"149.975 449.925 LINE SMOOTH"
);
},
{
closed = 1;
nodes = (
"989.835 1536.74 LINE",
"711.882 1536.74 LINE",
"711.882 1259.79 LINE",
"989.835 1259.79 LINE"
);
},
{
closed = 1;
nodes = (
"598.9 1536.74 LINE",
"320.947 1536.74 LINE",
"320.947 1259.79 LINE",
"598.9 1259.79 LINE"
);
}
);
width = 1259;
}
);
unicode = 00FC;
},
{
glyphname = yacute;
layers = (
{
layerId = "C85A2332-1B89-4390-846F-6AFC3F1E970B";
name = Bold;
paths = (
{
closed = 1;
nodes = (
"754.874 552.908 LINE",
"409.932 1119.81 LINE",
"149.975 1119.81 LINE",
"186.969 1040.83 OFFCURVE",
"224.963 959.84 OFFCURVE",
"263.956 875.854 CURVE SMOOTH",
"341.943 707.882 OFFCURVE",
"420.93 536.911 OFFCURVE",
"499.917 368.939 CURVE SMOOTH",
"538.91 284.953 OFFCURVE",
"576.904 203.966 OFFCURVE",
"613.898 124.979 CURVE",
"602.9 101.983 OFFCURVE",
"591.901 79.9867 OFFCURVE",
"580.903 58.9902 CURVE SMOOTH",
"569.905 37.9937 OFFCURVE",
"557.907 15.9973 OFFCURVE",
"546.909 -7 CURVE",
"519.913 -42 OFFCURVE",
"492.918 -70 OFFCURVE",
"469.922 -90 CURVE",
"450.925 -105 OFFCURVE",
"420.93 -114 OFFCURVE",
"383.936 -114 CURVE SMOOTH",
"226.962 -114 LINE",
"226.962 -416 LINE",
"419.93 -416 LINE SMOOTH",
"591.901 -416 OFFCURVE",
"693.885 -359 OFFCURVE",
"818.864 -74 CURVE",
"1278.79 1119.81 LINE",
"1019.83 1119.81 LINE"
);
},
{
closed = 1;
nodes = (
"1213.8 1602.73 LINE",
"907.849 1602.73 LINE",
"560.907 1138.81 LINE",
"810.865 1138.81 LINE"
);
}
);
width = 1428;
}
);
unicode = 00FD;
},
{
glyphname = thorn;
layers = (
{
layerId = "C85A2332-1B89-4390-846F-6AFC3F1E970B";
name = Bold;
paths = (
{
closed = 1;
nodes = (
"472.921 6.99884 OFFCURVE",
"568.905 -27 OFFCURVE",
"693.885 -27 CURVE SMOOTH",
"969.839 -27 OFFCURVE",
"1159.81 211.965 OFFCURVE",
"1159.81 558.907 CURVE SMOOTH",
"1159.81 905.849 OFFCURVE",
"969.839 1144.81 OFFCURVE",
"693.885 1144.81 CURVE SMOOTH",
"568.905 1144.81 OFFCURVE",
"472.921 1110.82 OFFCURVE",
"396.934 1034.83 CURVE",
"396.934 1526.75 LINE",
"149.975 1526.75 LINE",
"149.975 -398 LINE",
"396.934 -398 LINE",
"396.934 82.9862 LINE"
);
},
{
closed = 1;
nodes = (
"906.849 439.927 OFFCURVE",
"882.853 347.942 OFFCURVE",
"834.861 282.953 CURVE SMOOTH",
"791.868 221.963 OFFCURVE",
"730.878 190.968 OFFCURVE",
"651.891 190.968 CURVE SMOOTH",
"572.905 190.968 OFFCURVE",
"511.915 221.963 OFFCURVE",
"466.922 283.953 CURVE",
"467.922 282.953 LINE",
"420.93 347.942 OFFCURVE",
"396.934 439.927 OFFCURVE",
"396.934 558.907 CURVE SMOOTH",
"396.934 677.887 OFFCURVE",
"420.93 768.872 OFFCURVE",
"467.922 833.861 CURVE",
"466.922 832.861 LINE",
"513.914 895.851 OFFCURVE",
"574.904 926.846 OFFCURVE",
"651.891 926.846 CURVE SMOOTH",
"806.866 926.846 OFFCURVE",
"906.849 793.868 OFFCURVE",
"906.849 558.907 CURVE SMOOTH"
);
}
);
width = 1309;
}
);
unicode = 00FE;
},
{
glyphname = Cacute;
layers = (
{
layerId = "C85A2332-1B89-4390-846F-6AFC3F1E970B";
name = Bold;
paths = (
{
closed = 1;
nodes = (
"1217.8 1467.76 OFFCURVE",
"1054.82 1518.75 OFFCURVE",
"879.854 1518.75 CURVE SMOOTH",
"427.929 1518.75 OFFCURVE",
"149.975 1217.8 OFFCURVE",
"149.975 744.876 CURVE SMOOTH",
"149.975 269.955 OFFCURVE",
"428.929 -28 OFFCURVE",
"879.854 -28 CURVE SMOOTH",
"1055.82 -28 OFFCURVE",
"1216.8 23.996 OFFCURVE",
"1367.77 126.979 CURVE",
"1367.77 567.905 LINE",
"1200.8 412.931 OFFCURVE",
"1045.83 338.944 OFFCURVE",
"890.852 338.944 CURVE SMOOTH",
"581.903 338.944 OFFCURVE",
"432.928 439.927 OFFCURVE",
"427.929 744.876 CURVE",
"427.929 1096.82 OFFCURVE",
"589.902 1284.79 OFFCURVE",
"890.852 1284.79 CURVE SMOOTH",
"1045.83 1284.79 OFFCURVE",
"1200.8 1210.8 OFFCURVE",
"1367.77 1055.82 CURVE",
"1367.77 1365.77 LINE"
);
},
{
closed = 1;
nodes = (
"1245.79 1871.69 LINE",
"972.838 1871.69 LINE",
"733.878 1550.74 LINE",
"968.839 1550.74 LINE"
);
}
);
width = 1517;
}
);
unicode = 0106;
},
{
glyphname = cacute;
layers = (
{
layerId = "C85A2332-1B89-4390-846F-6AFC3F1E970B";
name = Bold;
paths = (
{
closed = 1;
nodes = (
"935.844 1118.81 OFFCURVE",
"823.863 1144.81 OFFCURVE",
"712.881 1144.81 CURVE SMOOTH",
"364.939 1144.81 OFFCURVE",
"149.975 919.847 OFFCURVE",
"149.975 558.907 CURVE SMOOTH",
"149.975 205.966 OFFCURVE",
"366.939 -27 OFFCURVE",
"701.883 -27 CURVE SMOOTH",
"822.863 -27 OFFCURVE",
"934.844 -1 OFFCURVE",
"1051.82 53.991 CURVE",
"1046.83 410.932 LINE",
"965.839 363.939 OFFCURVE",
"904.849 343.943 OFFCURVE",
"861.857 342.943 CURVE SMOOTH",
"714.881 342.943 LINE",
"621.896 350.942 OFFCURVE",
"534.911 370.938 OFFCURVE",
"489.918 399.933 CURVE",
"449.925 428.929 OFFCURVE",
"423.929 486.919 OFFCURVE",
"414.931 562.906 CURVE",
"417.93 794.868 OFFCURVE",
"520.913 933.845 OFFCURVE",
"720.88 933.845 CURVE SMOOTH",
"813.865 933.845 OFFCURVE",
"924.846 898.85 OFFCURVE",
"1051.82 828.862 CURVE",
"1051.82 1065.82 LINE"
);
},
{
closed = 1;
nodes = (
"1113.81 1602.73 LINE",
"807.866 1602.73 LINE",
"460.923 1138.81 LINE",
"710.882 1138.81 LINE"
);
}
);
width = 1263;
}
);
unicode = 0107;
},
{
glyphname = Ccaron;
layers = (
{
layerId = "C85A2332-1B89-4390-846F-6AFC3F1E970B";
name = Bold;
paths = (
{
closed = 1;
nodes = (
"1217.8 1467.76 OFFCURVE",
"1054.82 1518.75 OFFCURVE",
"879.854 1518.75 CURVE SMOOTH",
"427.929 1518.75 OFFCURVE",
"149.975 1217.8 OFFCURVE",
"149.975 744.876 CURVE SMOOTH",
"149.975 269.955 OFFCURVE",
"428.929 -28 OFFCURVE",
"879.854 -28 CURVE SMOOTH",
"1055.82 -28 OFFCURVE",
"1216.8 23.996 OFFCURVE",
"1367.77 126.979 CURVE",
"1367.77 567.905 LINE",
"1200.8 412.931 OFFCURVE",
"1045.83 338.944 OFFCURVE",
"890.852 338.944 CURVE SMOOTH",
"581.903 338.944 OFFCURVE",
"432.928 439.927 OFFCURVE",
"427.929 744.876 CURVE",
"427.929 1096.82 OFFCURVE",
"589.902 1284.79 OFFCURVE",
"890.852 1284.79 CURVE SMOOTH",
"1045.83 1284.79 OFFCURVE",
"1200.8 1210.8 OFFCURVE",
"1367.77 1055.82 CURVE",
"1367.77 1365.77 LINE"
);
},
{
closed = 1;
nodes = (
"869.855 1873.69 LINE",
"848.859 1850.69 OFFCURVE",
"825.863 1825.7 OFFCURVE",
"802.866 1799.7 CURVE SMOOTH",
"778.87 1773.7 OFFCURVE",
"754.874 1748.71 OFFCURVE",
"731.878 1723.71 CURVE",
"591.901 1873.69 LINE",
"368.939 1873.69 LINE",
"624.896 1550.74 LINE",
"835.861 1550.74 LINE",
"1092.82 1873.69 LINE"
);
}
);
width = 1517;
}
);
unicode = 010C;
},
{
glyphname = ccaron;
layers = (
{
layerId = "C85A2332-1B89-4390-846F-6AFC3F1E970B";
name = Bold;
paths = (
{
closed = 1;
nodes = (
"935.844 1118.81 OFFCURVE",
"823.863 1144.81 OFFCURVE",
"712.881 1144.81 CURVE SMOOTH",
"364.939 1144.81 OFFCURVE",
"149.975 919.847 OFFCURVE",
"149.975 558.907 CURVE SMOOTH",
"149.975 205.966 OFFCURVE",
"366.939 -27 OFFCURVE",
"701.883 -27 CURVE SMOOTH",
"822.863 -27 OFFCURVE",
"934.844 -1 OFFCURVE",
"1051.82 53.991 CURVE",
"1046.83 410.932 LINE",
"965.839 363.939 OFFCURVE",
"904.849 343.943 OFFCURVE",
"861.857 342.943 CURVE SMOOTH",
"714.881 342.943 LINE",
"621.896 350.942 OFFCURVE",
"534.911 370.938 OFFCURVE",
"489.918 399.933 CURVE",
"449.925 428.929 OFFCURVE",
"423.929 486.919 OFFCURVE",
"414.931 562.906 CURVE",
"417.93 794.868 OFFCURVE",
"520.913 933.845 OFFCURVE",
"720.88 933.845 CURVE SMOOTH",
"813.865 933.845 OFFCURVE",
"924.846 898.85 OFFCURVE",
"1051.82 828.862 CURVE",
"1051.82 1065.82 LINE"
);
},
{
closed = 1;
nodes = (
"716.881 1602.73 LINE",
"669.888 1539.74 OFFCURVE",
"616.897 1467.76 OFFCURVE",
"567.905 1399.77 CURVE",
"418.93 1602.73 LINE",
"200.967 1602.73 LINE",
"477.92 1177.8 LINE",
"657.891 1177.8 LINE",
"934.844 1602.73 LINE"
);
}
);
width = 1201;
}
);
unicode = 010D;
},
